<svg width="72" height="72" viewBox="0 0 72 72" fill="none" xmlns="http://www.w3.org/2000/svg">
<path d="M15.8207 25.7714H43.1755C43.4681 25.7658 43.7468 25.6456 43.9518 25.4367C44.1567 25.2278 44.2715 24.9468 44.2715 24.6542C44.2715 24.3615 44.1567 24.0806 43.9517 23.8717C43.7468 23.6628 43.468 23.5427 43.1754 23.5371H15.8207C15.5281 23.5427 15.2493 23.6628 15.0444 23.8717C14.8394 24.0806 14.7246 24.3616 14.7246 24.6542C14.7246 24.9469 14.8394 25.2279 15.0444 25.4367C15.2493 25.6456 15.5281 25.7658 15.8207 25.7714Z" fill="#67EC9C"/>
<path d="M15.8198 34.282H32.6582C32.9506 34.2762 33.2291 34.156 33.4339 33.9471C33.6386 33.7382 33.7533 33.4574 33.7533 33.1649C33.7533 32.8724 33.6386 32.5916 33.4338 32.3827C33.229 32.1739 32.9505 32.0536 32.6581 32.0479H15.8198C15.5273 32.0536 15.2488 32.1739 15.0441 32.3828C14.8393 32.5916 14.7246 32.8725 14.7246 33.1649C14.7246 33.4574 14.8393 33.7383 15.0441 33.9471C15.2488 34.156 15.5273 34.2762 15.8198 34.282Z" fill="#67EC9C"/>
<path d="M33.0241 40.5576H15.8203C15.524 40.5576 15.2398 40.6753 15.0303 40.8848C14.8208 41.0943 14.7031 41.3785 14.7031 41.6747C14.7031 41.971 14.8208 42.2552 15.0303 42.4647C15.2398 42.6742 15.524 42.7919 15.8203 42.7919H33.0241C33.3168 42.7865 33.5957 42.6664 33.8007 42.4575C34.0058 42.2486 34.1207 41.9675 34.1207 41.6747C34.1207 41.382 34.0058 41.1009 33.8007 40.892C33.5957 40.6831 33.3168 40.563 33.0241 40.5576Z" fill="#67EC9C"/>
<path d="M30.4712 49.0684H15.8212C15.5285 49.0738 15.2496 49.1939 15.0446 49.4028C14.8395 49.6117 14.7246 49.8928 14.7246 50.1855C14.7246 50.4783 14.8395 50.7593 15.0446 50.9682C15.2497 51.1771 15.5286 51.2972 15.8213 51.3026H30.4712C30.7639 51.2972 31.0428 51.1771 31.2479 50.9682C31.453 50.7593 31.5679 50.4782 31.5679 50.1855C31.5679 49.8927 31.453 49.6117 31.2479 49.4028C31.0428 49.1939 30.7639 49.0738 30.4712 49.0684Z" fill="#67EC9C"/>
<path d="M67.6699 10.751C67.5947 10.3278 67.4364 9.92371 67.204 9.56212C66.9716 9.20052 66.6698 8.88862 66.316 8.64448L63.0848 6.40318C62.3713 5.91032 61.4917 5.72026 60.6384 5.87464C59.7852 6.02901 59.0278 6.51524 58.5323 7.22683L54.2505 13.3992C54.194 12.2433 53.6959 11.1532 52.8588 10.3539C52.0218 9.55469 50.9099 9.10736 49.7526 9.10431H9.24344C8.04477 9.1057 6.89561 9.58252 6.04809 10.4302C5.20056 11.2778 4.72389 12.427 4.72266 13.6257V61.2149C4.72389 62.4135 5.20056 63.5628 6.04809 64.4104C6.89561 65.258 8.04477 65.7348 9.24344 65.7362H49.7526C50.9513 65.7348 52.1004 65.258 52.948 64.4104C53.7955 63.5628 54.2721 62.4135 54.2734 61.2149V31.7411C57.258 27.437 64.2233 17.3996 67.1375 13.1974C67.3836 12.8451 67.5573 12.4475 67.6487 12.0275C67.7401 11.6076 67.7473 11.1738 67.6699 10.751ZM52.0391 61.2149C52.0385 61.8212 51.7975 62.4025 51.3688 62.8313C50.9401 63.2601 50.3589 63.5013 49.7525 63.502H9.24344C8.63712 63.5013 8.05585 63.2601 7.62718 62.8313C7.1985 62.4025 6.95744 61.8212 6.95687 61.2149V13.6256C6.95744 13.0193 7.1985 12.438 7.62718 12.0092C8.05585 11.5804 8.63712 11.3392 9.24344 11.3385H49.7526C50.3589 11.3392 50.9402 11.5804 51.3689 12.0092C51.7975 12.438 52.0386 13.0193 52.0392 13.6256V16.5869L38.5314 36.0588C38.4764 36.1796 38.4202 36.2929 38.3677 36.415L35.4681 47.5904C35.4152 47.8089 35.4291 48.0383 35.5079 48.2488C35.5867 48.4594 35.7268 48.6415 35.9102 48.7716C36.0935 48.9016 36.3117 48.9737 36.5365 48.9786C36.7612 48.9834 36.9823 48.9207 37.171 48.7986L46.8233 42.332C46.9426 42.2319 47.0534 42.122 47.1543 42.0034L52.0392 34.9618L52.0391 61.2149ZM40.1278 38.5263L44.236 41.3765L38.3688 45.3071L40.1278 38.5263ZM45.9377 39.8377L41.0034 36.4144L55.0015 16.2355L59.9364 19.659L45.9377 39.8377ZM65.3026 11.9232L61.2103 17.8227L56.2754 14.3992L60.3673 8.50046C60.5244 8.27487 60.7644 8.12071 61.035 8.07174C61.3055 8.02277 61.5843 8.08298 61.8106 8.23918L65.0419 10.48C65.2669 10.6375 65.4206 10.8776 65.4694 11.1479C65.5183 11.4182 65.4583 11.6969 65.3026 11.9232Z" fill="#67EC9C"/>
</svg>
