<svg width="42" height="42" viewBox="0 0 42 42" fill="none" xmlns="http://www.w3.org/2000/svg">
<path fill-rule="evenodd" clip-rule="evenodd" d="M35.8076 24.9594L41.9599 41.1663C42.0519 41.4084 41.9823 41.6822 41.7858 41.8512C41.6715 41.9495 41.5286 42 41.3845 42C41.281 42 41.1769 41.9739 41.0826 41.9207L31.1922 36.3487L21.3019 41.9207C21.1145 42.0263 20.8854 42.0263 20.6979 41.9207L10.8076 36.3487L0.917249 41.9207C0.691581 42.0479 0.410624 42.0201 0.214078 41.8512C0.0177774 41.6822 -0.0518676 41.4084 0.0400895 41.1663L6.19243 24.9594C6.24353 24.8248 6.34025 24.7124 6.46567 24.6418L13.0191 20.95L11.1063 17.9165C9.93149 16.0537 9.31051 13.9004 9.31051 11.6894C9.31051 5.24384 14.5544 0 21 0C27.4456 0 32.6894 5.24384 32.6894 11.6894C32.6894 13.8999 32.0687 16.0531 30.8945 17.9163L28.9813 20.9499L35.5344 24.6418C35.6597 24.7124 35.7565 24.8248 35.8076 24.9594ZM22.5604 31.1303C22.3339 31.4889 22.0002 31.7506 21.6153 31.8864V40.3318L30.4967 35.3282L27.8291 22.7768C27.8291 22.7768 22.5916 31.0811 22.5604 31.1303ZM10.5411 11.6894C10.5411 13.6677 11.0964 15.594 12.1472 17.26L12.1499 17.2645C12.2675 17.4521 19.5652 29.0249 20.4016 30.3512L20.4788 30.4736C20.5931 30.6532 20.7883 30.7616 21 30.7616C21.2116 30.7616 21.4059 30.6537 21.52 30.4733L21.5237 30.4675C21.6507 30.2682 28.198 19.8857 29.5942 17.6715L29.8537 17.26C30.9038 15.5937 31.459 13.6673 31.459 11.6894C31.459 5.92224 26.7672 1.23039 21 1.23039C15.2329 1.23039 10.5411 5.92224 10.5411 11.6894ZM12.999 22.3734L7.26367 25.6044L1.79334 40.0148L10.2636 35.2427L11.4882 29.4812C11.5588 29.149 11.8852 28.9363 12.2179 29.0074C12.5503 29.0781 12.7624 29.4047 12.6918 29.7371L11.5034 35.3283L20.3846 40.3319V31.8863C20.0004 31.7507 19.6665 31.4895 19.4391 31.132L14.171 22.7772L13.2033 27.3301C13.1419 27.6192 12.8864 27.8175 12.6022 27.8175C12.5598 27.8175 12.5168 27.8131 12.4736 27.8039C12.1413 27.7332 11.9292 27.4065 11.9998 27.0741L12.999 22.3734ZM29.0013 22.3733L31.7364 35.2428L40.2067 40.0148L34.7363 25.6044L29.0013 22.3733ZM25.4873 11.4548C25.4873 13.9326 23.4786 15.9412 21.0008 15.9412C18.523 15.9412 16.5144 13.9326 16.5144 11.4548C16.5144 8.97698 18.523 6.96832 21.0008 6.96832C23.4786 6.96832 25.4873 8.97698 25.4873 11.4548ZM26.7282 11.4548C26.7282 14.6179 24.164 17.1822 21.0008 17.1822C17.8377 17.1822 15.2734 14.6179 15.2734 11.4548C15.2734 8.29163 17.8377 5.72739 21.0008 5.72739C24.164 5.72739 26.7282 8.29163 26.7282 11.4548Z" fill="#67EC9C"/>
</svg>
