<svg width="40" height="40" viewBox="0 0 40 40" fill="none" xmlns="http://www.w3.org/2000/svg">
<path d="M20.8242 22.6612C19.33 22.6543 17.8454 22.4202 16.4215 21.9669C14.1465 21.2058 12.4567 19.2798 11.998 16.925C11.4961 14.5075 12.4108 11.9514 14.5069 9.91218C14.7319 9.69313 14.9656 9.4833 15.2081 9.28269C17.3544 7.48584 20.2479 6.8614 22.9442 7.61321C25.5545 8.44636 27.3582 10.8319 27.4484 13.5705C27.5462 15.1468 27.0324 16.7002 26.0139 17.9074C25.2285 18.8969 23.9558 19.3642 22.7166 19.1183C22.2099 19.0131 21.7677 18.7062 21.492 18.2682C21.2446 17.8427 21.1811 17.3349 21.3163 16.8616C21.8992 14.658 22.4919 11.3093 22.4978 11.2753C22.5392 11.0408 22.7026 10.8461 22.9265 10.7646C23.1503 10.6832 23.4006 10.7274 23.5831 10.8805C23.7655 11.0337 23.8524 11.2725 23.811 11.5071C23.7863 11.6465 23.2027 14.945 22.6054 17.2024C22.5627 17.3275 22.5734 17.4646 22.635 17.5816C22.7272 17.7091 22.8662 17.7948 23.0216 17.8198C23.7802 17.9464 24.5464 17.6421 25.0114 17.0295C25.8023 16.0834 26.1985 14.8691 26.118 13.6385C26.0528 11.4587 24.6233 9.55551 22.548 8.88552C20.2826 8.26243 17.8557 8.79473 16.059 10.3088C15.8448 10.4865 15.6365 10.6727 15.4367 10.8673C14.4004 11.8754 12.7455 13.9671 13.3031 16.6536C13.6778 18.5304 15.0182 20.0686 16.8262 20.6963C19.9527 21.6936 24.4452 21.8137 26.8122 18.8705C27.0448 18.5905 27.459 18.5488 27.7427 18.7768C28.0265 19.0049 28.0748 19.4184 27.8512 19.7058C26.1009 21.8825 23.4373 22.6612 20.8242 22.6612Z" fill="#67EC9C"/>
<path d="M18.5434 19.2053C17.8387 19.2174 17.1514 18.9864 16.5972 18.551C15.3177 17.5271 15.2825 15.7482 15.6412 14.5367C15.762 14.1333 15.9242 13.7434 16.1253 13.3733C16.6254 12.3642 17.4252 11.5342 18.4152 10.9969C19.648 10.3572 21.1542 10.5998 22.1238 11.5942C22.6049 12.1214 22.9672 12.7456 23.1864 13.4248C23.3025 13.7695 23.1209 14.1436 22.7783 14.2656C22.4357 14.3876 22.0586 14.2125 21.9306 13.872C21.7726 13.3703 21.5099 12.9077 21.1599 12.515C20.5946 11.9369 19.7137 11.8054 19.0042 12.1931C18.2618 12.6118 17.6651 13.2475 17.2943 14.0149C17.1385 14.3024 17.0126 14.6052 16.9187 14.9185C16.6596 15.7948 16.7165 16.9384 17.4314 17.5108C18.2128 18.1383 19.5312 17.873 20.273 17.2331C20.8257 16.7355 21.3007 16.1577 21.682 15.5191C21.8055 15.3122 22.031 15.188 22.2718 15.1943C22.5127 15.2006 22.7314 15.3363 22.8439 15.5494C22.9564 15.7624 22.9452 16.0196 22.8146 16.2221C22.363 16.9746 21.8007 17.6549 21.1467 18.2401C20.4178 18.8552 19.497 19.1965 18.5434 19.2053Z" fill="#67EC9C"/>
<path d="M37.9973 40H1.99986C0.89587 39.9988 0.00121239 39.1042 0 38.0002V13.3353C1.04793e-05 13.0768 0.149467 12.8416 0.383495 12.7318C0.617523 12.622 0.893925 12.6574 1.09272 12.8226L17.4496 26.4167C18.9296 27.639 21.069 27.6386 22.5485 26.4157L38.9039 12.8226C39.1027 12.6571 39.3793 12.6214 39.6136 12.7313C39.8478 12.8411 39.9973 13.0766 39.9972 13.3353V38.0002C39.996 39.1042 39.1013 39.9988 37.9973 40ZM1.33324 14.756V38.0002C1.33372 38.3682 1.63189 38.6663 1.99986 38.6668H37.9973C38.3653 38.6665 38.6636 38.3682 38.6639 38.0002V14.756L23.3997 27.4418C21.4261 29.0728 18.5725 29.0733 16.5984 27.4428L1.33324 14.756Z" fill="#67EC9C"/>
<path d="M0.667272 14.0023C0.376913 14.0025 0.119781 13.8148 0.031561 13.5382C-0.0566589 13.2615 0.0443281 12.9596 0.281233 12.7917L6.28081 8.5387C6.58119 8.33052 6.99318 8.403 7.20447 8.7012C7.41575 8.9994 7.34755 9.41213 7.05156 9.62649L1.05198 13.8795C0.939637 13.9595 0.805154 14.0024 0.667272 14.0023Z" fill="#67EC9C"/>
<path d="M39.3318 14.0023C39.1939 14.0024 39.0594 13.9595 38.9471 13.8795L32.9475 9.62649C32.6515 9.41213 32.5833 8.9994 32.7946 8.7012C33.0059 8.403 33.4179 8.33052 33.7183 8.5387L39.7179 12.7917C39.9548 12.9596 40.0557 13.2615 39.9675 13.5382C39.8793 13.8148 39.6222 14.0025 39.3318 14.0023Z" fill="#67EC9C"/>
<path d="M26.1571 4.66916C26.0191 4.66923 25.8845 4.62634 25.772 4.54643L22.5855 2.28659C21.1064 1.03667 18.9449 1.02365 17.4508 2.25566L14.2244 4.5465C14.0301 4.6843 13.777 4.70796 13.5605 4.60858C13.344 4.5092 13.197 4.30187 13.1748 4.06469C13.1526 3.82751 13.2586 3.59651 13.453 3.45871L16.6394 1.19887C18.6083 -0.411041 21.4425 -0.398236 23.3968 1.2294L26.5432 3.45844C26.7803 3.62628 26.8815 3.92835 26.7932 4.20511C26.7049 4.48187 26.4476 4.6696 26.1571 4.66916Z" fill="#67EC9C"/>
<path d="M1.10083 39.6403C0.819894 39.6405 0.568958 39.4646 0.473387 39.2005C0.377816 38.9363 0.458125 38.6405 0.674193 38.461L15.8865 25.8219C16.0692 25.6664 16.3215 25.6212 16.5469 25.7035C16.7723 25.7858 16.9361 25.9829 16.9757 26.2195C17.0154 26.4561 16.9248 26.6958 16.7386 26.8471L1.52633 39.4862C1.4069 39.5858 1.25632 39.6403 1.10083 39.6403Z" fill="#67EC9C"/>
<path d="M38.8954 39.64C38.74 39.6401 38.5896 39.5856 38.4703 39.486L23.258 26.8469C23.0718 26.6956 22.9812 26.4559 23.0209 26.2193C23.0606 25.9826 23.2244 25.7855 23.4498 25.7033C23.6752 25.621 23.9274 25.6662 24.1102 25.8216L39.322 38.4607C39.5381 38.6403 39.6184 38.936 39.5229 39.2002C39.4273 39.4644 39.1763 39.6402 38.8954 39.64Z" fill="#67EC9C"/>
<path d="M33.3314 18.9886C32.9632 18.9886 32.6648 18.6902 32.6648 18.322V4.67482C32.6629 4.68882 32.6361 4.66995 32.5915 4.66962H7.40657C7.3771 4.66781 7.34818 4.67817 7.32657 4.69828L7.33324 18.322C7.33324 18.6902 7.03478 18.9886 6.66662 18.9886C6.29846 18.9886 6 18.6902 6 18.322V4.66962C6.02151 3.9136 6.65048 3.31741 7.40657 3.33638H32.5915C33.3475 3.31749 33.9764 3.91363 33.998 4.66962V18.322C33.998 18.6902 33.6996 18.9886 33.3314 18.9886Z" fill="#67EC9C"/>
</svg>
