<svg width="41" height="41" viewBox="0 0 41 41" fill="none" xmlns="http://www.w3.org/2000/svg">
<path d="M36.6722 9.40932C36.6722 9.80909 36.2402 10.1331 35.7072 10.1331C35.1742 10.1331 34.7422 9.80909 34.7422 9.40932C34.7422 9.00955 35.1742 8.68555 35.7072 8.68555C36.2402 8.68555 36.6722 9.00955 36.6722 9.40932Z" fill="#67EC9C"/>
<path d="M31.8441 9.40932C31.8441 9.80909 31.4122 10.1331 30.8793 10.1331C30.3464 10.1331 29.9141 9.80909 29.9141 9.40932C29.9141 9.00955 30.3464 8.68555 30.8793 8.68555C31.4122 8.68555 31.8441 9.00955 31.8441 9.40932Z" fill="#67EC9C"/>
<path d="M27.0218 9.40932C27.0218 9.80909 26.6975 10.1331 26.2978 10.1331C25.8982 10.1331 25.5742 9.80909 25.5742 9.40932C25.5742 9.00955 25.8982 8.68555 26.2978 8.68555C26.6975 8.68555 27.0218 9.00955 27.0218 9.40932Z" fill="#67EC9C"/>
<path d="M31.1239 0C25.9357 0 21.7149 4.19583 21.7149 9.35339C21.7149 11.2233 22.2692 13.0171 23.3224 14.5661L21.755 19.2396C21.6549 19.5388 21.7458 19.8682 21.9853 20.075C22.2254 20.2823 22.5669 20.3237 22.8495 20.1833L27.3854 17.9286C28.5768 18.4453 29.8324 18.7068 31.1239 18.7068C36.3118 18.7068 40.5329 14.5107 40.5329 9.35339C40.5329 4.19583 36.3118 0 31.1239 0ZM31.1239 17.1477C29.942 17.1477 28.7942 16.8838 27.7131 16.3629C27.4942 16.2575 27.2381 16.2591 27.0204 16.3671L23.8415 17.9472L24.9354 14.6851C25.0163 14.444 24.974 14.1791 24.8221 13.9748C23.8152 12.6222 23.2829 11.0242 23.2829 9.35339C23.2829 5.05558 26.8002 1.55905 31.1239 1.55905C35.4472 1.55905 38.9645 5.05558 38.9645 9.35339C38.9645 13.6512 35.4472 17.1477 31.1239 17.1477Z" fill="#67EC9C"/>
<path d="M15.9222 25.332C15.9222 25.7317 15.4902 26.0559 14.9572 26.0559C14.4242 26.0559 13.9922 25.7317 13.9922 25.332C13.9922 24.9323 14.4242 24.6084 14.9572 24.6084C15.4902 24.6084 15.9222 24.9323 15.9222 25.332Z" fill="#67EC9C"/>
<path d="M27.4171 24.7601C27.1087 24.456 26.608 24.4563 26.2993 24.7601L22.5107 28.4915C21.973 29.0216 21.1428 29.1295 20.5371 28.7485C19.6669 28.2008 18.8164 27.6023 18.0097 26.9694C17.6683 26.7018 17.1709 26.7575 16.899 27.0938C16.6273 27.4305 16.6838 27.9201 17.0252 28.188C17.8748 28.854 18.7698 29.4841 19.6863 30.0607C20.9128 30.8322 22.5713 30.6351 23.6289 29.5924L26.858 26.4117L34.2804 33.7224L31.356 36.6023C29.4685 38.4622 26.6296 39.0124 24.2917 37.9717C11.8601 32.4376 5.39137 23.055 2.15389 16.1585C1.04222 13.7904 1.57598 10.9379 3.48229 9.06033L6.36289 6.2221L13.7853 13.5331L10.5558 16.7141C9.49725 17.7569 9.29782 19.3905 10.0813 20.5981C10.6401 21.46 11.2492 22.3038 11.8913 23.1064C12.1614 23.4442 12.6585 23.5023 13.0011 23.2359C13.3441 22.9698 13.4031 22.4802 13.1327 22.1427C12.5226 21.3803 11.9441 20.5784 11.4131 19.7597C11.026 19.163 11.1356 18.3453 11.6737 17.8152L15.4619 14.0836C15.7703 13.7794 15.7706 13.2865 15.4619 12.9824L6.92197 4.5705C6.61325 4.2667 6.11283 4.2667 5.80412 4.5705L2.36443 7.95916C-0.00833496 10.2962 -0.66929 13.8543 0.719302 16.8123C5.3287 26.6313 13.1404 34.7162 23.6409 39.3907C26.5916 40.7044 30.1387 40.0047 32.4739 37.7035L35.9571 34.2732C36.2655 33.9691 36.2658 33.4758 35.9571 33.172L27.4171 24.7601Z" fill="#67EC9C"/>
</svg>
