<svg width="72" height="72" viewBox="0 0 72 72" fill="none" xmlns="http://www.w3.org/2000/svg">
<g clip-path="url(#clip0_381_5524)">
<path d="M70.8716 69.8009H2.18784V60.8648C3.77992 60.7141 6.35111 61.4538 6.36138 59.7624C6.37164 58.0711 3.79019 58.8106 2.18784 58.6634V48.9742C3.78667 48.827 6.32721 49.5632 6.36138 47.8752C6.39568 46.1872 3.76615 46.92 2.18784 46.7864V37.0767C3.73873 36.9295 6.34085 37.6553 6.36138 36.0051C6.3819 34.3548 3.76615 35.0568 2.18784 34.9061V25.1964C3.77992 25.0458 6.34774 25.7887 6.36138 24.0973C6.37501 22.406 3.7833 23.149 2.18784 22.9983V13.3194C3.78667 13.1688 6.3237 13.9048 6.36138 12.2204C6.39906 10.5359 3.7833 11.2685 2.18784 11.118V2.18193H5.26924C5.86775 2.14833 6.32552 1.63586 6.29192 1.03735C6.26085 0.485943 5.82065 0.0457423 5.26924 0.0146709H1.08881C0.493956 0.0108749 0.00764072 0.488052 4.86353e-05 1.08291V70.8861C-0.00557513 71.4874 0.477225 71.9794 1.07855 71.9852H1.08881H70.8716C71.4748 71.9852 71.9638 71.4962 71.9638 70.893C71.9638 70.2899 71.4748 69.8009 70.8716 69.8009Z" fill="#67EC9C"/>
<path d="M70.8715 31.671H65.2531L61.487 28.8875L71.6521 18.6163C72.0777 18.1855 72.0777 17.4927 71.6521 17.0619C71.2126 16.6754 70.5543 16.6754 70.1148 17.0619L59.7203 27.5591L53.8999 23.2245C53.7058 23.0852 53.4746 23.0066 53.2358 22.9986H36.4321C36.2441 20.7601 34.2771 19.0978 32.0385 19.2858C31.4364 19.3364 30.853 19.5204 30.331 19.8247L22.8022 11.4742C22.5921 11.2528 22.2994 11.1288 21.9942 11.1319H13.0787C12.4708 11.1658 12.0054 11.6861 12.0394 12.294C12.0706 12.8546 12.5181 13.3021 13.0787 13.3333H21.5114L28.8074 21.3757C27.7522 23.3612 28.5064 25.826 30.4918 26.8811C32.4773 27.9363 34.9421 27.1821 35.9972 25.1967H52.8901L58.166 29.1168L54.9305 32.3865C52.923 31.3745 50.4751 32.1817 49.4629 34.1892C49.3467 34.4199 49.2526 34.6612 49.182 34.9098H41.256C40.9024 34.9095 40.5701 35.0787 40.3624 35.3651L37.0105 40.0249L31.0431 35.1358C30.8502 34.9791 30.6069 34.8975 30.3584 34.9064H13.0787C12.4793 34.9068 11.9937 35.3931 11.9941 35.9925C11.9946 36.5913 12.4799 37.0766 13.0787 37.077H29.9577L35.737 41.8018L32.1592 46.7867H25.5411C24.9216 44.6275 22.669 43.3792 20.5098 43.9986C18.3505 44.6181 17.1022 46.8707 17.7217 49.0299C17.8693 49.5444 18.1169 50.0246 18.4505 50.4432L12.2022 59.1498C11.8717 59.6498 12.0092 60.3232 12.5091 60.6537C12.9828 60.9668 13.6176 60.8619 13.9654 60.4131L20.2309 51.7134C22.3451 52.4724 24.6743 51.3738 25.4333 49.2595C25.467 49.1656 25.4972 49.0706 25.5239 48.9745H32.7138C33.0651 48.962 33.3895 48.7828 33.5869 48.4917L37.4215 43.1815L49.3018 52.8707C49.4936 53.0326 49.7355 53.1233 49.9865 53.1274H61.6273C61.9428 53.1299 62.242 52.9872 62.4386 52.7405L71.7101 42.3836C72.6722 41.3564 71.0049 39.8809 70.0942 40.9285L61.1445 50.9292H50.3665L38.7257 41.4113L41.8346 37.0767H49.1649C49.77 39.242 52.0158 40.5068 54.1811 39.9017C56.3464 39.2966 57.6112 37.0507 57.0061 34.8854C56.9029 34.5164 56.7482 34.1638 56.5465 33.8379L59.9326 30.4415C60.3297 30.64 64.4622 34.0843 64.8833 33.8379H70.8715C71.47 33.8043 71.9278 33.2918 71.8942 32.6933C71.8632 32.1423 71.4229 31.7021 70.8715 31.671ZM32.3681 25.2618C31.3045 25.2169 30.4786 24.3184 30.5235 23.2546C30.5657 22.2539 31.3673 21.4522 32.3681 21.41C33.4317 21.4549 34.2575 22.3534 34.2127 23.4172C34.1705 24.4179 33.3688 25.2196 32.3681 25.2618ZM21.6073 49.7655C20.5607 49.7211 19.7483 48.8365 19.7928 47.7899C19.8347 46.8056 20.623 46.0173 21.6073 45.9754C22.6539 46.0198 23.4662 46.9044 23.4218 47.951C23.3799 48.9353 22.5914 49.7238 21.6073 49.7655ZM53.0852 37.9159C52.031 37.8712 51.2126 36.9806 51.2573 35.9264C51.2994 34.9348 52.0936 34.1406 53.0852 34.0985C54.1394 34.1432 54.9578 35.0339 54.9131 36.0881C54.871 37.0797 54.0767 37.8739 53.0852 37.9159Z" fill="#67EC9C"/>
</g>
<defs>
<clipPath id="clip0_381_5524">
<rect width="72" height="72" fill="white"/>
</clipPath>
</defs>
</svg>
