<svg width="72" height="72" viewBox="0 0 72 72" fill="none" xmlns="http://www.w3.org/2000/svg">
<g clip-path="url(#clip0_381_5509)">
<path d="M67.4993 31.5002C66.6713 31.5002 65.9993 30.8282 65.9993 30.0002C65.9993 21.1862 62.5673 12.8972 56.3333 6.6662C55.7483 6.0812 55.7483 5.1302 56.3333 4.5452C56.9183 3.9602 57.8693 3.9602 58.4543 4.5452C65.2553 11.3432 68.9993 20.3822 68.9993 30.0002C68.9993 30.8282 68.3273 31.5002 67.4993 31.5002Z" fill="#67EC9C"/>
<path d="M4.5 31.5002C3.672 31.5002 3 30.8282 3 30.0002C3 20.3822 6.744 11.3432 13.545 4.5452C14.13 3.9602 15.081 3.9602 15.666 4.5452C16.251 5.1302 16.251 6.0812 15.666 6.6662C9.432 12.8972 6 21.1862 6 30.0002C6 30.8282 5.328 31.5002 4.5 31.5002Z" fill="#67EC9C"/>
<path d="M40.5 12.54C39.672 12.54 39 11.868 39 11.04V6C39 4.347 37.653 3 36 3C34.347 3 33 4.347 33 6V11.04C33 11.868 32.328 12.54 31.5 12.54C30.672 12.54 30 11.871 30 11.04V6C30 2.691 32.691 0 36 0C39.309 0 42 2.691 42 6V11.04C42 11.871 41.328 12.54 40.5 12.54Z" fill="#67EC9C"/>
<path d="M36 72C30.21 72 25.5 67.29 25.5 61.5C25.5 60.672 26.172 60 27 60C27.828 60 28.5 60.672 28.5 61.5C28.5 65.634 31.866 69 36 69C40.134 69 43.5 65.634 43.5 61.5C43.5 60.672 44.172 60 45 60C45.828 60 46.5 60.672 46.5 61.5C46.5 67.29 41.79 72 36 72Z" fill="#67EC9C"/>
<path d="M61.5 63H10.5C8.019 63 6 60.981 6 58.5C6 57.183 6.573 55.938 7.575 55.08C12.303 51.084 15 45.27 15 39.114V30C15 18.42 24.42 9 36 9C47.58 9 57 18.42 57 30V39.114C57 45.273 59.697 51.084 64.401 55.059C65.427 55.938 66 57.183 66 58.5C66 60.981 63.984 63 61.5 63ZM36 12C26.073 12 18 20.073 18 30V39.114C18 46.158 14.916 52.803 9.537 57.351C9.192 57.645 9 58.062 9 58.5C9 59.328 9.672 60 10.5 60H61.5C62.328 60 63 59.328 63 58.5C63 58.062 62.808 57.645 62.475 57.36C57.087 52.803 54 46.155 54 39.114V30C54 20.073 45.927 12 36 12Z" fill="#67EC9C"/>
</g>
<defs>
<clipPath id="clip0_381_5509">
<rect width="72" height="72" fill="white"/>
</clipPath>
</defs>
</svg>
