<svg width="204" height="174" viewBox="0 0 204 174" fill="none" xmlns="http://www.w3.org/2000/svg">
<path d="M171.877 58.7416C173.407 78.3707 160.48 98.4518 143.903 121.555C127.437 144.721 107.43 170.972 83.5694 173.765C59.7726 176.449 32.0588 155.783 15.8262 129.435C-0.233006 103.041 -4.87445 71.073 5.63152 47.8386C16.1375 24.6041 41.5714 9.97638 66.1585 3.64793C90.7456 -2.68051 114.266 -0.83621 134.249 9.65953C154.122 20.092 170.283 39.2224 171.877 58.7416Z" fill="#35D13B" fill-opacity="0.15"/>
<path d="M163.747 171.473C145.017 178.088 122.074 170.747 95.2347 160.642C68.3621 150.66 37.5594 138.037 28.613 115.537C19.7903 93.0703 32.7003 60.693 54.1438 38.0094C75.6778 15.4823 105.622 2.61573 131.006 6.77655C156.39 10.9374 177.28 31.8788 189.862 54.1631C202.443 76.4475 206.782 99.8279 201.765 122.023C196.782 144.094 182.354 164.824 163.747 171.473Z" fill="#20D11C" fill-opacity="0.15"/>
<path fill-rule="evenodd" clip-rule="evenodd" d="M149.862 138.091C155.224 138.091 159.347 133.248 157.539 128.199C156.743 125.978 155.809 123.811 154.742 121.711C151.588 115.502 147.276 109.883 141.977 105.183C131.518 95.9061 117.969 90.8762 103.991 91.0815C90.013 91.2868 76.6172 96.7124 66.436 106.292C61.2768 111.146 57.1322 116.89 54.1613 123.188C53.3902 124.823 52.6981 126.495 52.0879 128.199C50.28 133.248 54.4027 138.091 59.7654 138.091V138.091C63.8023 138.091 67.216 135.265 68.8144 131.558C70.919 126.677 74.0121 122.233 77.9492 118.528C85.0761 111.822 94.4532 108.025 104.238 107.881C114.022 107.737 123.507 111.258 130.828 117.752C135.164 121.598 138.555 126.322 140.812 131.558C142.411 135.265 145.825 138.091 149.862 138.091V138.091Z" fill="#26B15E"/>
<circle cx="74" cy="52" r="14" fill="#26B15E"/>
<circle cx="136" cy="52" r="14" fill="#26B15E"/>
</svg>
