<svg width="119" height="49" viewBox="0 0 119 49" fill="none" xmlns="http://www.w3.org/2000/svg">
<path d="M33.1222 30.8227C33.052 30.8227 33.0169 30.8227 32.9467 30.8227L30.1036 25.755L29.5068 24.7137L29.1207 24.0195C30.3142 23.5683 31.297 22.9088 32.0692 22.1105C32.2447 21.9369 32.4202 21.7286 32.5606 21.5204C32.6659 21.3815 32.7712 21.208 32.8765 21.0344C33.4732 20.0278 33.7892 18.8824 33.7892 17.5634C33.7892 15.2031 33.052 13.3982 31.5778 12.1486C30.1036 10.899 27.9975 10.2742 25.2245 10.2742H17.1513V20.132C16.344 20.5138 15.6771 21.208 15.3612 22.0757H5.63824V6.90735C6.86677 6.31727 7.74429 5.0677 7.74429 3.60987C7.74429 1.63138 6.09455 0 4.0938 0C2.05795 0 0.408203 1.63138 0.408203 3.64458C0.408203 5.0677 1.25062 6.28256 2.44405 6.90735V30.198C1.25062 30.8227 0.408203 32.0376 0.408203 33.4607C0.408203 35.4739 2.05795 37.1053 4.0938 37.1053C6.12965 37.1053 7.77939 35.4739 7.77939 33.4607C7.77939 32.0029 6.93697 30.7533 5.67334 30.1632V24.7484H15.3612C15.6771 25.6162 16.344 26.3104 17.1513 26.6922V41.2705C15.9228 41.8606 15.1155 43.1102 15.1155 44.5333C15.1155 46.5465 16.7652 48.1779 18.8011 48.1779C20.8369 48.1779 22.4867 46.5465 22.4867 44.5333C22.4867 43.1102 21.6442 41.8606 20.4508 41.2705V26.6922C21.2932 26.2757 21.9251 25.5815 22.241 24.7484H24.9437H26.1723L26.7339 25.7897L30.244 32.2806C29.7525 32.9054 29.4717 33.669 29.4717 34.502C29.4717 36.5152 31.1215 38.1466 33.1573 38.1466C35.1932 38.1466 36.8429 36.5152 36.8429 34.502C36.8078 32.4541 35.1581 30.8227 33.1222 30.8227ZM2.05795 3.64458C2.05795 2.53385 2.97057 1.63138 4.0938 1.63138C5.21703 1.63138 6.12965 2.53385 6.12965 3.64458C6.12965 4.13052 5.95414 4.58176 5.67334 4.92886C5.28723 5.3801 4.72561 5.65778 4.0938 5.65778C3.42688 5.65778 2.83016 5.34538 2.44405 4.82473C2.19835 4.47763 2.05795 4.0611 2.05795 3.64458ZM6.12965 33.4607C6.12965 34.5714 5.21703 35.4739 4.0938 35.4739C2.97057 35.4739 2.05795 34.5714 2.05795 33.4607C2.05795 33.0095 2.19835 32.593 2.44405 32.2806C2.83016 31.7946 3.42688 31.4475 4.0938 31.4475C4.72561 31.4475 5.28723 31.7252 5.67334 32.1764C5.95414 32.5235 6.12965 32.9748 6.12965 33.4607ZM20.8018 44.5333C20.8018 45.644 19.8892 46.5465 18.766 46.5465C17.6427 46.5465 16.7301 45.644 16.7301 44.5333C16.7301 44.0821 16.8705 43.6308 17.1513 43.3184C17.5374 42.8325 18.0991 42.5201 18.766 42.5201C19.4329 42.5201 19.9945 42.8325 20.3806 43.3184C20.6614 43.6308 20.8018 44.0474 20.8018 44.5333ZM18.766 25.7897C17.9937 25.7897 17.3268 25.3732 16.9758 24.7484C16.8003 24.4708 16.7301 24.1237 16.7301 23.7766C16.7301 23.0823 17.0811 22.4923 17.6076 22.1105C17.9235 21.8675 18.3448 21.7634 18.766 21.7634C19.1872 21.7634 19.6084 21.9022 19.9243 22.1105C20.4508 22.4576 20.8018 23.0823 20.8018 23.7766C20.8018 24.1237 20.6965 24.4708 20.5561 24.7484C20.2051 25.3732 19.5382 25.7897 18.766 25.7897ZM25.3298 22.1105H22.1708C21.8197 21.2774 21.1879 20.5832 20.3806 20.1667V12.9469H25.2947C26.9796 12.9469 28.2783 13.3635 29.1909 14.1618C30.1036 14.9601 30.5248 16.1056 30.5248 17.5981C30.5248 18.9865 30.0685 20.0625 29.1207 20.8956C29.0505 20.965 28.9803 20.9997 28.9101 21.0691C27.9975 21.7634 26.8041 22.1105 25.3298 22.1105ZM33.1222 36.4805C31.999 36.4805 31.0864 35.578 31.0864 34.4673C31.0864 34.2938 31.1215 34.1202 31.1566 33.9814C31.3672 33.1136 32.1745 32.4541 33.1222 32.4541C33.403 32.4541 33.6838 32.5235 33.9296 32.6277C34.6316 32.9401 35.1581 33.6343 35.1581 34.4673C35.1581 35.578 34.2455 36.4805 33.1222 36.4805Z" fill="#0076BA"/>
<path d="M47.1866 29.5732V14.4048H40.1313V11.2114H57.4712V14.4048H50.4159V29.5732H47.1866Z" fill="#041815"/>
<path d="M59.6475 29.5732V11.2114H76.2151V14.4048H62.8416V26.3798H76.2502V29.5732H59.6475ZM65.2285 21.5898V18.8824H75.5131V21.5898H65.2285Z" fill="#041815"/>
<path d="M87.5175 29.5732C86.2188 29.5732 85.0253 29.3302 83.9372 28.8443C82.8491 28.3583 81.9014 27.6989 81.0589 26.8658C80.2516 26.0328 79.6198 25.0262 79.1635 23.8807C78.7072 22.7353 78.4966 21.4857 78.4966 20.1667C78.4966 18.813 78.7072 17.5982 79.1635 16.4874C79.6198 15.3767 80.2516 14.4395 81.0589 13.6412C81.8663 12.8429 82.814 12.2528 83.9372 11.8363C85.0253 11.4197 86.2188 11.1768 87.5175 11.1768H97.5915V14.3701H87.5175C86.6751 14.3701 85.9029 14.5089 85.2009 14.8213C84.4988 15.099 83.9021 15.5155 83.3756 16.0362C82.8491 16.5569 82.463 17.1816 82.1822 17.9106C81.9014 18.6395 81.761 19.4378 81.761 20.3056C81.761 21.1733 81.9014 21.9717 82.1822 22.7006C82.463 23.4295 82.8842 24.089 83.3756 24.6096C83.9021 25.1303 84.4988 25.5468 85.2009 25.8592C85.9029 26.1716 86.6751 26.3104 87.5175 26.3104H97.5915V29.5038H87.5175V29.5732Z" fill="#041815"/>
<path d="M100.224 29.6426V11.2114H103.453V29.6426H100.224ZM115.142 29.6426V21.6592H105.805V18.813H115.142V11.2114H118.371V29.6426H115.142Z" fill="#041815"/>
<path d="M44.0274 37.4871V39.4309H46.2738V37.4871H46.8706V42.1036H46.2738V39.9516H44.0274V42.1036H43.4307V37.4871H44.0274Z" fill="#041815"/>
<path d="M56.1012 39.7433C56.1012 41.34 55.1183 42.173 53.9249 42.173C52.6964 42.173 51.8188 41.2358 51.8188 39.8127C51.8188 38.3549 52.7315 37.383 53.9951 37.383C55.2587 37.4177 56.1012 38.3896 56.1012 39.7433ZM52.4507 39.8127C52.4507 40.8193 52.9772 41.6871 53.96 41.6871C54.9077 41.6871 55.4693 40.8193 55.4693 39.778C55.4693 38.8408 54.9779 37.9037 53.9951 37.9037C53.0123 37.9037 52.4507 38.8061 52.4507 39.8127Z" fill="#041815"/>
<path d="M61.0161 37.4871H61.6128V41.6176H63.6136V42.1036H61.0161V37.4871Z" fill="#041815"/>
<path d="M68.457 37.5566C68.808 37.4872 69.2644 37.4525 69.7558 37.4525C70.6333 37.4525 71.23 37.6607 71.6512 38.0425C72.0724 38.4243 72.3181 38.945 72.3181 39.7086C72.3181 40.4722 72.0724 41.0623 71.6512 41.5136C71.1949 41.9301 70.4929 42.1731 69.5803 42.1731C69.159 42.1731 68.7729 42.1383 68.4921 42.1036V37.5566H68.457ZM69.0537 41.6524C69.1941 41.6871 69.4399 41.6871 69.6505 41.6871C70.9492 41.6871 71.6512 40.9582 71.6512 39.7433C71.6512 38.6673 71.0194 37.9731 69.7558 37.9731C69.4399 37.9731 69.1941 38.0078 69.0537 38.0425V41.6524Z" fill="#041815"/>
<path d="M77.8296 37.4871V42.1036H77.2329V37.4871H77.8296Z" fill="#041815"/>
<path d="M83.0239 42.1036V37.4871H83.6908L85.1651 39.8127C85.5161 40.3681 85.7969 40.854 86.0075 41.3053H86.0426C85.9724 40.6805 85.9724 40.1251 85.9724 39.3962V37.4871H86.534V42.1036H85.9373L84.4631 39.778C84.1472 39.2573 83.8312 38.7367 83.5855 38.2507H83.5504C83.5855 38.8408 83.5855 39.3962 83.5855 40.1598V42.1383H83.0239V42.1036Z" fill="#041815"/>
<path d="M95.3093 41.8953C95.0285 41.9995 94.502 42.1383 93.8702 42.1383C93.1682 42.1383 92.5715 41.9648 92.1152 41.5135C91.729 41.1317 91.4482 40.5069 91.4482 39.778C91.4482 38.3896 92.396 37.383 93.9755 37.383C94.502 37.383 94.9583 37.4871 95.1338 37.5913L94.9934 38.0772C94.7477 37.9731 94.4318 37.8689 93.9755 37.8689C92.8523 37.8689 92.1152 38.5631 92.1152 39.7086C92.1152 40.8887 92.8172 41.5829 93.9053 41.5829C94.2914 41.5829 94.5722 41.5135 94.7126 41.4441V40.0557H93.7649V39.5697H95.3093V41.8953Z" fill="#041815"/>
<path d="M106.752 40.6458L106.261 42.1036H105.629L107.208 37.4871H107.946L109.525 42.1036H108.893L108.402 40.6458H106.752ZM108.297 40.1945L107.84 38.8755C107.735 38.5631 107.665 38.2855 107.595 38.0425C107.524 38.3202 107.454 38.5979 107.349 38.8755L106.893 40.1945H108.297Z" fill="#041815"/>
<path d="M117.844 41.8953C117.564 41.9995 117.037 42.1383 116.405 42.1383C115.703 42.1383 115.107 41.9648 114.65 41.5135C114.264 41.1317 113.983 40.5069 113.983 39.778C113.983 38.3896 114.931 37.383 116.511 37.383C117.037 37.383 117.493 37.4871 117.669 37.5913L117.529 38.0772C117.283 37.9731 116.967 37.8689 116.511 37.8689C115.387 37.8689 114.65 38.5631 114.65 39.7086C114.65 40.8887 115.352 41.5829 116.44 41.5829C116.827 41.5829 117.107 41.5135 117.248 41.4441V40.0557H116.3V39.5697H117.844V41.8953Z" fill="#041815"/>
</svg>
