<svg width="179" height="48" viewBox="0 0 179 48" fill="none" xmlns="http://www.w3.org/2000/svg">
<path d="M43.3736 22.0871C34.8407 11.7467 9.74384 19.9363 2.96769 33.2547C-3.39017 45.6632 10.5804 52.9429 29.8213 41.6925C50.2334 29.7804 35.9282 18.6127 17.7748 32.2621C32.4983 25.9751 37.3503 31.683 31.2434 37.5564C27.0606 41.6098 17.6075 45.0842 11.417 43.0988C5.22641 41.1134 7.9034 33.9992 13.9266 28.6222C22.8778 20.7635 36.2628 17.4546 43.3736 22.0871Z" fill="#00A651"/>
<path d="M43.3736 22.0871C34.8407 11.7467 9.74384 19.9363 2.96769 33.2547C-3.39017 45.6632 10.5804 52.9429 29.8213 41.6925C50.2334 29.7804 35.9282 18.6127 17.7748 32.2621C32.4983 25.9751 37.3503 31.683 31.2434 37.5564C27.0606 41.6098 17.6075 45.0842 11.417 43.0988C5.22641 41.1134 7.9034 33.9992 13.9266 28.6222C22.8778 20.7635 36.2628 17.4546 43.3736 22.0871Z" fill="#E7830D"/>
<path d="M29.5708 1.0754C27.5631 1.73719 26.3082 3.5571 26.3082 5.7079V15.0556C28.4833 14.7247 30.6583 14.5593 32.7497 14.8075V0L29.5708 1.0754ZM15.9349 11.4158V18.53C18.0263 17.4546 20.2013 16.6274 22.3764 15.9656V5.7079L19.1975 6.78331C17.1897 7.44509 15.9349 9.265 15.9349 11.4158ZM5.56152 17.1237V25.8924C7.40196 24.0725 9.57701 22.3353 12.003 20.8463V11.3331L8.82411 12.4085C6.81636 13.153 5.56152 14.9729 5.56152 17.1237Z" fill="#006CAB"/>
<path d="M29.5708 1.0754C27.5631 1.73719 26.3082 3.5571 26.3082 5.7079V15.0556C28.4833 14.7247 30.6583 14.5593 32.7497 14.8075V0L29.5708 1.0754ZM15.9349 11.4158V18.53C18.0263 17.4546 20.2013 16.6274 22.3764 15.9656V5.7079L19.1975 6.78331C17.1897 7.44509 15.9349 9.265 15.9349 11.4158ZM5.56152 17.1237V25.8924C7.40196 24.0725 9.57701 22.3353 12.003 20.8463V11.3331L8.82411 12.4085C6.81636 13.153 5.56152 14.9729 5.56152 17.1237Z" fill="#006CAB"/>
<path d="M0.959961 31.8484C5.56104 22.3352 24.6346 10.8367 37.6013 15.8828C35.6772 12.6566 30.7415 11.0849 23.2125 12.9875C15.0142 14.9729 4.64083 21.0117 0.959961 31.8484Z" fill="#006CAB"/>
<path d="M0.959961 31.8484C5.56104 22.3352 24.6346 10.8367 37.6013 15.8828C35.6772 12.6566 30.7415 11.0849 23.2125 12.9875C15.0142 14.9729 4.64083 21.0117 0.959961 31.8484Z" fill="#006CAB"/>
<path d="M56.365 19.7758H61.4814V22.245H53.2507V6.71799H56.365V19.7758Z" fill="#041815"/>
<path d="M68.9331 22.4452C67.7467 22.4452 66.6789 22.1856 65.7298 21.6666C64.7807 21.1327 64.0318 20.3838 63.4831 19.4199C62.9492 18.4559 62.6822 17.3437 62.6822 16.0831C62.6822 14.8226 62.9566 13.7103 63.5053 12.7464C64.0689 11.7824 64.8326 11.0409 65.7965 10.5219C66.7605 9.98799 67.8357 9.72105 69.0221 9.72105C70.2085 9.72105 71.2836 9.98799 72.2476 10.5219C73.2115 11.0409 73.9679 11.7824 74.5166 12.7464C75.0801 13.7103 75.3619 14.8226 75.3619 16.0831C75.3619 17.3437 75.0727 18.4559 74.4943 19.4199C73.9308 20.3838 73.1596 21.1327 72.1808 21.6666C71.2169 22.1856 70.1343 22.4452 68.9331 22.4452ZM68.9331 19.7313C69.4966 19.7313 70.0231 19.5978 70.5125 19.3309C71.0167 19.0491 71.4171 18.6339 71.7137 18.0852C72.0103 17.5364 72.1586 16.8691 72.1586 16.0831C72.1586 14.9115 71.8472 14.0143 71.2243 13.3915C70.6163 12.7538 69.8674 12.4349 68.9776 12.4349C68.0878 12.4349 67.3389 12.7538 66.7308 13.3915C66.1376 14.0143 65.841 14.9115 65.841 16.0831C65.841 17.2547 66.1302 18.1593 66.7086 18.797C67.3018 19.4199 68.0433 19.7313 68.9331 19.7313Z" fill="#041815"/>
<path d="M82.4735 9.72105C83.3929 9.72105 84.2012 9.90643 84.8982 10.2772C85.5952 10.6331 86.1439 11.1002 86.5443 11.6786V9.92126H89.6808V22.3339C89.6808 23.4758 89.451 24.4917 88.9913 25.3815C88.5315 26.2861 87.8419 26.998 86.9225 27.517C86.003 28.0509 84.8908 28.3178 83.5857 28.3178C81.8358 28.3178 80.3973 27.91 79.2702 27.0944C78.158 26.2787 77.5277 25.1665 77.3794 23.7576H80.4714C80.6346 24.3212 80.9831 24.7661 81.5169 25.0923C82.0657 25.4334 82.7256 25.604 83.4967 25.604C84.4014 25.604 85.1355 25.3296 85.699 24.7809C86.2625 24.247 86.5443 23.4314 86.5443 22.3339V20.4209C86.1439 20.9992 85.5878 21.4812 84.8759 21.8668C84.1789 22.2524 83.3781 22.4452 82.4735 22.4452C81.4354 22.4452 80.4863 22.1782 79.6261 21.6443C78.766 21.1105 78.0838 20.3616 77.5796 19.3976C77.0902 18.4188 76.8455 17.2992 76.8455 16.0386C76.8455 14.7929 77.0902 13.6881 77.5796 12.7241C78.0838 11.7602 78.7586 11.0187 79.6039 10.4996C80.464 9.98058 81.4206 9.72105 82.4735 9.72105ZM86.5443 16.0831C86.5443 15.3268 86.396 14.6817 86.0994 14.1478C85.8028 13.5991 85.4024 13.1839 84.8982 12.9021C84.394 12.6055 83.8527 12.4572 83.2743 12.4572C82.6959 12.4572 82.1621 12.5981 81.6727 12.8798C81.1833 13.1616 80.7829 13.5768 80.4714 14.1256C80.1748 14.6594 80.0265 15.2971 80.0265 16.0386C80.0265 16.7801 80.1748 17.4326 80.4714 17.9962C80.7829 18.5449 81.1833 18.9675 81.6727 19.2641C82.1769 19.5607 82.7108 19.709 83.2743 19.709C83.8527 19.709 84.394 19.5682 84.8982 19.2864C85.4024 18.9898 85.8028 18.5745 86.0994 18.0407C86.396 17.492 86.5443 16.8394 86.5443 16.0831Z" fill="#041815"/>
<path d="M98.1948 22.4452C97.0084 22.4452 95.9406 22.1856 94.9915 21.6666C94.0424 21.1327 93.2934 20.3838 92.7447 19.4199C92.2109 18.4559 91.9439 17.3437 91.9439 16.0831C91.9439 14.8226 92.2183 13.7103 92.767 12.7464C93.3305 11.7824 94.0943 11.0409 95.0582 10.5219C96.0222 9.98799 97.0973 9.72105 98.2837 9.72105C99.4701 9.72105 100.545 9.98799 101.509 10.5219C102.473 11.0409 103.23 11.7824 103.778 12.7464C104.342 13.7103 104.624 14.8226 104.624 16.0831C104.624 17.3437 104.334 18.4559 103.756 19.4199C103.192 20.3838 102.421 21.1327 101.443 21.6666C100.479 22.1856 99.396 22.4452 98.1948 22.4452ZM98.1948 19.7313C98.7583 19.7313 99.2848 19.5978 99.7741 19.3309C100.278 19.0491 100.679 18.6339 100.975 18.0852C101.272 17.5364 101.42 16.8691 101.42 16.0831C101.42 14.9115 101.109 14.0143 100.486 13.3915C99.878 12.7538 99.129 12.4349 98.2392 12.4349C97.3494 12.4349 96.6005 12.7538 95.9925 13.3915C95.3993 14.0143 95.1027 14.9115 95.1027 16.0831C95.1027 17.2547 95.3919 18.1593 95.9703 18.797C96.5635 19.4199 97.305 19.7313 98.1948 19.7313Z" fill="#041815"/>
<path d="M125.489 22.245H122.374L115.323 11.5896V22.245H112.209V6.69574H115.323L122.374 17.3733V6.69574H125.489V22.245Z" fill="#041815"/>
<path d="M127.766 16.0386C127.766 14.7929 128.01 13.6881 128.5 12.7241C129.004 11.7602 129.679 11.0187 130.524 10.4996C131.384 9.98058 132.341 9.72105 133.394 9.72105C134.313 9.72105 135.114 9.90643 135.796 10.2772C136.493 10.6479 137.049 11.1151 137.464 11.6786V9.92126H140.601V22.245H137.464V20.4431C137.064 21.0215 136.508 21.5035 135.796 21.889C135.099 22.2598 134.291 22.4452 133.371 22.4452C132.333 22.4452 131.384 22.1782 130.524 21.6443C129.679 21.1105 129.004 20.3616 128.5 19.3976C128.01 18.4188 127.766 17.2992 127.766 16.0386ZM137.464 16.0831C137.464 15.3268 137.316 14.6817 137.019 14.1478C136.723 13.5991 136.322 13.1839 135.818 12.9021C135.314 12.6055 134.773 12.4572 134.194 12.4572C133.616 12.4572 133.082 12.5981 132.593 12.8798C132.103 13.1616 131.703 13.5768 131.392 14.1256C131.095 14.6594 130.947 15.2971 130.947 16.0386C130.947 16.7801 131.095 17.4326 131.392 17.9962C131.703 18.5449 132.103 18.9675 132.593 19.2641C133.097 19.5607 133.631 19.709 134.194 19.709C134.773 19.709 135.314 19.5682 135.818 19.2864C136.322 18.9898 136.723 18.5745 137.019 18.0407C137.316 17.492 137.464 16.8394 137.464 16.0831Z" fill="#041815"/>
<path d="M158.947 9.7433C160.46 9.7433 161.676 10.2104 162.595 11.1447C163.53 12.0642 163.997 13.3544 163.997 15.0154V22.245H160.882V15.438C160.882 14.4741 160.638 13.74 160.148 13.2358C159.659 12.7167 158.992 12.4572 158.146 12.4572C157.301 12.4572 156.626 12.7167 156.122 13.2358C155.633 13.74 155.388 14.4741 155.388 15.438V22.245H152.274V15.438C152.274 14.4741 152.029 13.74 151.54 13.2358C151.05 12.7167 150.383 12.4572 149.537 12.4572C148.677 12.4572 147.995 12.7167 147.491 13.2358C147.002 13.74 146.757 14.4741 146.757 15.438V22.245H143.643V9.92126H146.757V11.4117C147.157 10.8926 147.669 10.4848 148.292 10.1882C148.929 9.8916 149.626 9.7433 150.383 9.7433C151.347 9.7433 152.207 9.95092 152.963 10.3662C153.72 10.7666 154.305 11.3449 154.721 12.1013C155.121 11.3894 155.699 10.8185 156.456 10.3884C157.227 9.95833 158.057 9.7433 158.947 9.7433Z" fill="#041815"/>
<path d="M178.408 15.8162C178.408 16.2611 178.378 16.6615 178.319 17.0174H169.31C169.384 17.9072 169.696 18.6042 170.244 19.1084C170.793 19.6126 171.468 19.8648 172.269 19.8648C173.425 19.8648 174.248 19.3679 174.738 18.3743H178.097C177.741 19.5607 177.059 20.5395 176.05 21.3107C175.042 22.067 173.803 22.4452 172.335 22.4452C171.149 22.4452 170.081 22.1856 169.132 21.6666C168.198 21.1327 167.464 20.3838 166.93 19.4199C166.411 18.4559 166.151 17.3437 166.151 16.0831C166.151 14.8077 166.411 13.6881 166.93 12.7241C167.449 11.7602 168.175 11.0187 169.11 10.4996C170.044 9.98058 171.119 9.72105 172.335 9.72105C173.507 9.72105 174.552 9.97316 175.472 10.4774C176.406 10.9816 177.125 11.7009 177.63 12.6351C178.149 13.5546 178.408 14.6149 178.408 15.8162ZM175.183 14.9264C175.168 14.1256 174.879 13.4879 174.315 13.0133C173.752 12.5239 173.062 12.2792 172.246 12.2792C171.475 12.2792 170.823 12.5165 170.289 12.9911C169.77 13.4508 169.451 14.0959 169.332 14.9264H175.183Z" fill="#041815"/>
<path d="M58.1113 33.4138L55.9795 37.5198V39.8555H54.9228V37.5198L52.7817 33.4138H53.9589L55.4511 36.5744L56.9434 33.4138H58.1113Z" fill="#414247"/>
<path d="M63.7417 39.9204C63.1423 39.9204 62.5893 39.7814 62.0826 39.5033C61.5821 39.2191 61.1836 38.8267 60.887 38.3262C60.5965 37.8195 60.4513 37.251 60.4513 36.6208C60.4513 35.9905 60.5965 35.4251 60.887 34.9246C61.1836 34.4241 61.5821 34.0348 62.0826 33.7567C62.5893 33.4725 63.1423 33.3304 63.7417 33.3304C64.3473 33.3304 64.9003 33.4725 65.4008 33.7567C65.9075 34.0348 66.3061 34.4241 66.5965 34.9246C66.8869 35.4251 67.0321 35.9905 67.0321 36.6208C67.0321 37.251 66.8869 37.8195 66.5965 38.3262C66.3061 38.8267 65.9075 39.2191 65.4008 39.5033C64.9003 39.7814 64.3473 39.9204 63.7417 39.9204ZM63.7417 39.0028C64.1681 39.0028 64.5481 38.907 64.8818 38.7155C65.2155 38.5178 65.475 38.2397 65.6603 37.8813C65.8519 37.5167 65.9477 37.0966 65.9477 36.6208C65.9477 36.145 65.8519 35.7279 65.6603 35.3695C65.475 35.0111 65.2155 34.7361 64.8818 34.5446C64.5481 34.353 64.1681 34.2572 63.7417 34.2572C63.3154 34.2572 62.9353 34.353 62.6017 34.5446C62.268 34.7361 62.0054 35.0111 61.8138 35.3695C61.6285 35.7279 61.5358 36.145 61.5358 36.6208C61.5358 37.0966 61.6285 37.5167 61.8138 37.8813C62.0054 38.2397 62.268 38.5178 62.6017 38.7155C62.9353 38.907 63.3154 39.0028 63.7417 39.0028Z" fill="#414247"/>
<path d="M70.973 33.4138V37.5198C70.973 38.008 71.0997 38.3756 71.353 38.6228C71.6125 38.87 71.9709 38.9936 72.4282 38.9936C72.8916 38.9936 73.25 38.87 73.5034 38.6228C73.7629 38.3756 73.8926 38.008 73.8926 37.5198V33.4138H74.9493V37.5013C74.9493 38.0265 74.835 38.4714 74.6063 38.836C74.3777 39.2006 74.0718 39.4724 73.6887 39.6516C73.3056 39.8308 72.8824 39.9204 72.4189 39.9204C71.9555 39.9204 71.5322 39.8308 71.1491 39.6516C70.7722 39.4724 70.4725 39.2006 70.25 38.836C70.0276 38.4714 69.9164 38.0265 69.9164 37.5013V33.4138H70.973Z" fill="#414247"/>
<path d="M81.5248 39.8555L80.0418 37.2788H79.2354V39.8555H78.1788V33.4138H80.4033C80.8976 33.4138 81.3147 33.5003 81.6546 33.6733C82.0006 33.8463 82.257 34.078 82.4239 34.3685C82.5969 34.6589 82.6834 34.9833 82.6834 35.3417C82.6834 35.7619 82.5598 36.145 82.3126 36.491C82.0716 36.8309 81.6978 37.0626 81.1911 37.1862L82.7853 39.8555H81.5248ZM79.2354 36.4354H80.4033C80.7987 36.4354 81.0953 36.3365 81.2931 36.1388C81.497 35.9411 81.5989 35.6754 81.5989 35.3417C81.5989 35.008 81.5001 34.7485 81.3023 34.5631C81.1046 34.3715 80.8049 34.2758 80.4033 34.2758H79.2354V36.4354Z" fill="#414247"/>
<path d="M92.2728 39.9204C91.8403 39.9204 91.451 39.8463 91.105 39.698C90.7589 39.5435 90.4871 39.3272 90.2893 39.0492C90.0916 38.7711 89.9927 38.4467 89.9927 38.076H91.1235C91.1482 38.354 91.2564 38.5826 91.4479 38.7618C91.6456 38.941 91.9206 39.0306 92.2728 39.0306C92.6374 39.0306 92.9216 38.9441 93.1256 38.7711C93.3295 38.5919 93.4314 38.3633 93.4314 38.0852C93.4314 37.8689 93.3665 37.6928 93.2368 37.5569C93.1132 37.421 92.9556 37.3159 92.7641 37.2418C92.5787 37.1676 92.3192 37.0873 91.9855 37.0008C91.5653 36.8896 91.2224 36.7783 90.9567 36.6671C90.6971 36.5497 90.4747 36.3705 90.2893 36.1295C90.1039 35.8885 90.0113 35.5672 90.0113 35.1656C90.0113 34.7948 90.1039 34.4704 90.2893 34.1924C90.4747 33.9143 90.7342 33.7011 91.0679 33.5528C91.4016 33.4045 91.7878 33.3304 92.2265 33.3304C92.8506 33.3304 93.3604 33.4879 93.7558 33.8031C94.1575 34.112 94.3799 34.5384 94.4232 35.0822H93.2553C93.2368 34.8473 93.1256 34.6465 92.9216 34.4797C92.7177 34.3128 92.4489 34.2294 92.1153 34.2294C91.8125 34.2294 91.5653 34.3067 91.3738 34.4611C91.1822 34.6156 91.0864 34.8381 91.0864 35.1285C91.0864 35.3262 91.1451 35.49 91.2625 35.6197C91.3861 35.7433 91.5406 35.8422 91.726 35.9163C91.9113 35.9905 92.1647 36.0708 92.486 36.1573C92.9124 36.2747 93.2584 36.3921 93.5241 36.5095C93.796 36.6269 94.0246 36.8092 94.21 37.0564C94.4015 37.2974 94.4973 37.6218 94.4973 38.0296C94.4973 38.3571 94.4077 38.6661 94.2285 38.9565C94.0555 39.2469 93.7991 39.4817 93.4592 39.6609C93.1256 39.8339 92.7301 39.9204 92.2728 39.9204Z" fill="#414247"/>
<path d="M98.6545 39.0028H100.833V39.8555H97.5979V33.4138H98.6545V39.0028Z" fill="#414247"/>
<path d="M106.508 39.9204C105.909 39.9204 105.356 39.7814 104.849 39.5033C104.349 39.2191 103.95 38.8267 103.653 38.3262C103.363 37.8195 103.218 37.251 103.218 36.6208C103.218 35.9905 103.363 35.4251 103.653 34.9246C103.95 34.4241 104.349 34.0348 104.849 33.7567C105.356 33.4725 105.909 33.3304 106.508 33.3304C107.114 33.3304 107.667 33.4725 108.167 33.7567C108.674 34.0348 109.073 34.4241 109.363 34.9246C109.653 35.4251 109.799 35.9905 109.799 36.6208C109.799 37.251 109.653 37.8195 109.363 38.3262C109.073 38.8267 108.674 39.2191 108.167 39.5033C107.667 39.7814 107.114 39.9204 106.508 39.9204ZM106.508 39.0028C106.935 39.0028 107.315 38.907 107.648 38.7155C107.982 38.5178 108.241 38.2397 108.427 37.8813C108.618 37.5167 108.714 37.0966 108.714 36.6208C108.714 36.145 108.618 35.7279 108.427 35.3695C108.241 35.0111 107.982 34.7361 107.648 34.5446C107.315 34.353 106.935 34.2572 106.508 34.2572C106.082 34.2572 105.702 34.353 105.368 34.5446C105.034 34.7361 104.772 35.0111 104.58 35.3695C104.395 35.7279 104.302 36.145 104.302 36.6208C104.302 37.0966 104.395 37.5167 104.58 37.8813C104.772 38.2397 105.034 38.5178 105.368 38.7155C105.702 38.907 106.082 39.0028 106.508 39.0028Z" fill="#414247"/>
<path d="M117.354 35.2675C117.187 34.9462 116.956 34.7052 116.659 34.5446C116.363 34.3777 116.02 34.2943 115.63 34.2943C115.204 34.2943 114.824 34.3901 114.49 34.5816C114.157 34.7732 113.894 35.0451 113.702 35.3973C113.517 35.7495 113.424 36.1573 113.424 36.6208C113.424 37.0842 113.517 37.4951 113.702 37.8535C113.894 38.2057 114.157 38.4776 114.49 38.6692C114.824 38.8607 115.204 38.9565 115.63 38.9565C116.205 38.9565 116.672 38.7958 117.03 38.4745C117.388 38.1532 117.608 37.7176 117.688 37.1676H115.269V36.3242H118.819V37.1491C118.751 37.6496 118.572 38.1099 118.281 38.5301C117.997 38.9503 117.623 39.2871 117.16 39.5404C116.702 39.7876 116.193 39.9112 115.63 39.9112C115.025 39.9112 114.472 39.7721 113.971 39.4941C113.471 39.2098 113.072 38.8175 112.776 38.3169C112.485 37.8164 112.34 37.251 112.34 36.6208C112.34 35.9905 112.485 35.4251 112.776 34.9246C113.072 34.4241 113.471 34.0348 113.971 33.7567C114.478 33.4725 115.031 33.3304 115.63 33.3304C116.316 33.3304 116.925 33.5003 117.456 33.8401C117.994 34.1738 118.383 34.6496 118.624 35.2675H117.354Z" fill="#414247"/>
<path d="M125.598 38.5394H122.901L122.438 39.8555H121.335L123.643 33.4045H124.866L127.174 39.8555H126.062L125.598 38.5394ZM125.302 37.6774L124.254 34.6836L123.198 37.6774H125.302Z" fill="#414247"/>
<path d="M135.324 39.8555H134.267L131.088 35.0451V39.8555H130.031V33.4045H131.088L134.267 38.2057V33.4045H135.324V39.8555Z" fill="#414247"/>
<path d="M147.971 33.4138V39.8555H146.914V37.0379H143.883V39.8555H142.826V33.4138H143.883V36.1759H146.914V33.4138H147.971Z" fill="#414247"/>
<path d="M152.272 34.2665V36.1573H154.496V37.0193H152.272V38.9936H154.774V39.8555H151.215V33.4045H154.774V34.2665H152.272Z" fill="#414247"/>
<path d="M161.276 39.8555L159.793 37.2788H158.986V39.8555H157.93V33.4138H160.154C160.649 33.4138 161.066 33.5003 161.405 33.6733C161.751 33.8463 162.008 34.078 162.175 34.3685C162.348 34.6589 162.434 34.9833 162.434 35.3417C162.434 35.7619 162.311 36.145 162.064 36.491C161.823 36.8309 161.449 37.0626 160.942 37.1862L162.536 39.8555H161.276ZM158.986 36.4354H160.154C160.55 36.4354 160.846 36.3365 161.044 36.1388C161.248 35.9411 161.35 35.6754 161.35 35.3417C161.35 35.008 161.251 34.7485 161.053 34.5631C160.856 34.3715 160.556 34.2758 160.154 34.2758H158.986V36.4354Z" fill="#414247"/>
<path d="M166.696 34.2665V36.1573H168.921V37.0193H166.696V38.9936H169.199V39.8555H165.64V33.4045H169.199V34.2665H166.696Z" fill="#414247"/>
</svg>
