<svg width="187" height="55" viewBox="0 0 187 55" fill="none" xmlns="http://www.w3.org/2000/svg">
<path d="M68.4438 23.7126H73.4139V26.1113H65.4185V11.028H68.4438V23.7126Z" fill="#041815"/>
<path d="M80.6527 26.3058C79.5002 26.3058 78.463 26.0537 77.541 25.5494C76.619 25.0308 75.8915 24.3033 75.3585 23.3669C74.8398 22.4305 74.5805 21.35 74.5805 20.1255C74.5805 18.901 74.847 17.8205 75.3801 16.8841C75.9275 15.9477 76.6694 15.2274 77.6058 14.7232C78.5422 14.2045 79.5867 13.9452 80.7392 13.9452C81.8917 13.9452 82.9361 14.2045 83.8725 14.7232C84.8089 15.2274 85.5437 15.9477 86.0767 16.8841C86.6241 17.8205 86.8978 18.901 86.8978 20.1255C86.8978 21.35 86.6169 22.4305 86.0551 23.3669C85.5076 24.3033 84.7585 25.0308 83.8077 25.5494C82.8713 26.0537 81.8196 26.3058 80.6527 26.3058ZM80.6527 23.6694C81.2002 23.6694 81.7116 23.5398 82.187 23.2805C82.6768 23.0067 83.0658 22.6034 83.3539 22.0703C83.642 21.5373 83.7861 20.889 83.7861 20.1255C83.7861 18.9874 83.4836 18.1158 82.8785 17.5108C82.2878 16.8913 81.5603 16.5816 80.696 16.5816C79.8316 16.5816 79.1041 16.8913 78.5134 17.5108C77.9372 18.1158 77.649 18.9874 77.649 20.1255C77.649 21.2636 77.93 22.1424 78.4918 22.7618C79.0681 23.3669 79.7884 23.6694 80.6527 23.6694Z" fill="#041815"/>
<path d="M93.8063 13.9452C94.6994 13.9452 95.4846 14.1253 96.1617 14.4855C96.8388 14.8312 97.3718 15.285 97.7608 15.8468V14.1397H100.808V26.1977C100.808 27.307 100.584 28.2938 100.138 29.1582C99.6912 30.037 99.0213 30.7285 98.1281 31.2327C97.2349 31.7513 96.1545 32.0106 94.8867 32.0106C93.1868 32.0106 91.7894 31.6145 90.6945 30.8221C89.614 30.0298 89.0018 28.9493 88.8577 27.5807H91.8614C92.0199 28.1282 92.3584 28.5603 92.8771 28.8773C93.4101 29.2086 94.0512 29.3743 94.8003 29.3743C95.6791 29.3743 96.3922 29.1078 96.9396 28.5748C97.487 28.0561 97.7608 27.2638 97.7608 26.1977V24.3393C97.3718 24.9012 96.8316 25.3694 96.1401 25.7439C95.463 26.1185 94.685 26.3058 93.8063 26.3058C92.7978 26.3058 91.8758 26.0465 91.0403 25.5278C90.2047 25.0092 89.542 24.2817 89.0522 23.3453C88.5768 22.3945 88.3391 21.3068 88.3391 20.0823C88.3391 18.8722 88.5768 17.7989 89.0522 16.8625C89.542 15.9261 90.1975 15.2058 91.0186 14.7015C91.8542 14.1973 92.7834 13.9452 93.8063 13.9452ZM97.7608 20.1255C97.7608 19.3908 97.6167 18.7641 97.3286 18.2455C97.0405 17.7125 96.6515 17.3091 96.1617 17.0354C95.6719 16.7472 95.146 16.6032 94.5842 16.6032C94.0223 16.6032 93.5037 16.74 93.0283 17.0137C92.5529 17.2875 92.1639 17.6908 91.8614 18.2239C91.5733 18.7425 91.4292 19.362 91.4292 20.0823C91.4292 20.8026 91.5733 21.4365 91.8614 21.9839C92.1639 22.5169 92.5529 22.9275 93.0283 23.2156C93.5181 23.5038 94.0368 23.6478 94.5842 23.6478C95.146 23.6478 95.6719 23.511 96.1617 23.2372C96.6515 22.9491 97.0405 22.5457 97.3286 22.0271C97.6167 21.4941 97.7608 20.8602 97.7608 20.1255Z" fill="#041815"/>
<path d="M109.078 26.3058C107.926 26.3058 106.889 26.0537 105.967 25.5494C105.045 25.0308 104.317 24.3033 103.784 23.3669C103.265 22.4305 103.006 21.35 103.006 20.1255C103.006 18.901 103.273 17.8205 103.806 16.8841C104.353 15.9477 105.095 15.2274 106.031 14.7232C106.968 14.2045 108.012 13.9452 109.165 13.9452C110.317 13.9452 111.362 14.2045 112.298 14.7232C113.235 15.2274 113.969 15.9477 114.502 16.8841C115.05 17.8205 115.323 18.901 115.323 20.1255C115.323 21.35 115.043 22.4305 114.481 23.3669C113.933 24.3033 113.184 25.0308 112.233 25.5494C111.297 26.0537 110.245 26.3058 109.078 26.3058ZM109.078 23.6694C109.626 23.6694 110.137 23.5398 110.613 23.2805C111.102 23.0067 111.491 22.6034 111.779 22.0703C112.068 21.5373 112.212 20.889 112.212 20.1255C112.212 18.9874 111.909 18.1158 111.304 17.5108C110.713 16.8913 109.986 16.5816 109.122 16.5816C108.257 16.5816 107.53 16.8913 106.939 17.5108C106.363 18.1158 106.075 18.9874 106.075 20.1255C106.075 21.2636 106.356 22.1424 106.917 22.7618C107.494 23.3669 108.214 23.6694 109.078 23.6694Z" fill="#041815"/>
<path d="M135.592 26.1113H132.567L125.717 15.7604V26.1113H122.692V11.0063H125.717L132.567 21.3788V11.0063H135.592V26.1113Z" fill="#041815"/>
<path d="M137.804 20.0823C137.804 18.8722 138.042 17.7989 138.517 16.8625C139.007 15.9261 139.663 15.2058 140.484 14.7015C141.319 14.1973 142.249 13.9452 143.271 13.9452C144.165 13.9452 144.943 14.1253 145.605 14.4855C146.282 14.8456 146.823 15.2994 147.226 15.8468V14.1397H150.273V26.1113H147.226V24.3609C146.837 24.9228 146.297 25.391 145.605 25.7655C144.928 26.1257 144.143 26.3058 143.25 26.3058C142.241 26.3058 141.319 26.0465 140.484 25.5278C139.663 25.0092 139.007 24.2817 138.517 23.3453C138.042 22.3945 137.804 21.3068 137.804 20.0823ZM147.226 20.1255C147.226 19.3908 147.082 18.7641 146.794 18.2455C146.506 17.7125 146.117 17.3091 145.627 17.0354C145.137 16.7472 144.611 16.6032 144.049 16.6032C143.488 16.6032 142.969 16.74 142.493 17.0137C142.018 17.2875 141.629 17.6908 141.327 18.2239C141.038 18.7425 140.894 19.362 140.894 20.0823C140.894 20.8026 141.038 21.4365 141.327 21.9839C141.629 22.5169 142.018 22.9275 142.493 23.2156C142.983 23.5038 143.502 23.6478 144.049 23.6478C144.611 23.6478 145.137 23.511 145.627 23.2372C146.117 22.9491 146.506 22.5457 146.794 22.0271C147.082 21.4941 147.226 20.8602 147.226 20.1255Z" fill="#041815"/>
<path d="M168.095 13.9668C169.564 13.9668 170.746 14.4206 171.639 15.3282C172.546 16.2214 173 17.4747 173 19.0882V26.1113H169.975V19.4988C169.975 18.5624 169.737 17.8493 169.262 17.3595C168.786 16.8553 168.138 16.6032 167.317 16.6032C166.496 16.6032 165.84 16.8553 165.35 17.3595C164.875 17.8493 164.637 18.5624 164.637 19.4988V26.1113H161.612V19.4988C161.612 18.5624 161.374 17.8493 160.899 17.3595C160.423 16.8553 159.775 16.6032 158.954 16.6032C158.118 16.6032 157.456 16.8553 156.966 17.3595C156.491 17.8493 156.253 18.5624 156.253 19.4988V26.1113H153.228V14.1397H156.253V15.5875C156.642 15.0833 157.139 14.6871 157.744 14.399C158.363 14.1109 159.04 13.9668 159.775 13.9668C160.712 13.9668 161.547 14.1685 162.282 14.5719C163.017 14.9609 163.586 15.5227 163.989 16.2574C164.378 15.5659 164.94 15.0113 165.675 14.5935C166.424 14.1757 167.23 13.9668 168.095 13.9668Z" fill="#041815"/>
<path d="M187 19.8662C187 20.2984 186.971 20.6873 186.913 21.0331H178.162C178.234 21.8975 178.536 22.5746 179.069 23.0644C179.602 23.5542 180.258 23.7991 181.036 23.7991C182.159 23.7991 182.959 23.3165 183.434 22.3513H186.697C186.352 23.5038 185.689 24.4546 184.709 25.2037C183.73 25.9384 182.527 26.3058 181.1 26.3058C179.948 26.3058 178.911 26.0537 177.989 25.5494C177.081 25.0308 176.368 24.3033 175.849 23.3669C175.345 22.4305 175.093 21.35 175.093 20.1255C175.093 18.8866 175.345 17.7989 175.849 16.8625C176.354 15.9261 177.059 15.2058 177.967 14.7015C178.875 14.1973 179.919 13.9452 181.1 13.9452C182.239 13.9452 183.254 14.1901 184.147 14.6799C185.055 15.1698 185.754 15.8685 186.243 16.776C186.748 17.6692 187 18.6993 187 19.8662ZM183.866 19.0018C183.852 18.2239 183.571 17.6044 183.024 17.1434C182.476 16.668 181.806 16.4303 181.014 16.4303C180.265 16.4303 179.631 16.6608 179.112 17.1218C178.608 17.5684 178.298 18.1951 178.183 19.0018H183.866Z" fill="#041815"/>
<path d="M70.1401 36.961L68.0692 40.9497V43.2187H67.0428V40.9497L64.9629 36.961H66.1064L67.556 40.0313L69.0056 36.961H70.1401Z" fill="#414247"/>
<path d="M75.6097 43.2817C75.0275 43.2817 74.4902 43.1467 73.998 42.8765C73.5118 42.6004 73.1246 42.2193 72.8365 41.733C72.5544 41.2408 72.4133 40.6886 72.4133 40.0763C72.4133 39.4641 72.5544 38.9148 72.8365 38.4286C73.1246 37.9424 73.5118 37.5642 73.998 37.2941C74.4902 37.018 75.0275 36.8799 75.6097 36.8799C76.198 36.8799 76.7352 37.018 77.2214 37.2941C77.7136 37.5642 78.1008 37.9424 78.3829 38.4286C78.665 38.9148 78.8061 39.4641 78.8061 40.0763C78.8061 40.6886 78.665 41.2408 78.3829 41.733C78.1008 42.2193 77.7136 42.6004 77.2214 42.8765C76.7352 43.1467 76.198 43.2817 75.6097 43.2817ZM75.6097 42.3903C76.0239 42.3903 76.3931 42.2973 76.7172 42.1112C77.0413 41.9191 77.2934 41.649 77.4735 41.3009C77.6596 40.9467 77.7526 40.5385 77.7526 40.0763C77.7526 39.6141 77.6596 39.209 77.4735 38.8608C77.2934 38.5127 77.0413 38.2455 76.7172 38.0595C76.3931 37.8734 76.0239 37.7803 75.6097 37.7803C75.1955 37.7803 74.8264 37.8734 74.5022 38.0595C74.1781 38.2455 73.923 38.5127 73.7369 38.8608C73.5568 39.209 73.4668 39.6141 73.4668 40.0763C73.4668 40.5385 73.5568 40.9467 73.7369 41.3009C73.923 41.649 74.1781 41.9191 74.5022 42.1112C74.8264 42.2973 75.1955 42.3903 75.6097 42.3903Z" fill="#414247"/>
<path d="M82.6344 36.961V40.9497C82.6344 41.4239 82.7574 41.7811 83.0035 42.0212C83.2556 42.2613 83.6038 42.3813 84.048 42.3813C84.4982 42.3813 84.8463 42.2613 85.0924 42.0212C85.3445 41.7811 85.4706 41.4239 85.4706 40.9497V36.961H86.497V40.9317C86.497 41.4419 86.386 41.8741 86.1639 42.2283C85.9418 42.5824 85.6447 42.8465 85.2725 43.0206C84.9004 43.1947 84.4892 43.2817 84.039 43.2817C83.5888 43.2817 83.1776 43.1947 82.8054 43.0206C82.4393 42.8465 82.1482 42.5824 81.9321 42.2283C81.716 41.8741 81.6079 41.4419 81.6079 40.9317V36.961H82.6344Z" fill="#414247"/>
<path d="M92.8847 43.2187L91.4441 40.7156H90.6607V43.2187H89.6343V36.961H91.7952C92.2754 36.961 92.6806 37.045 93.0107 37.2131C93.3469 37.3812 93.596 37.6063 93.7581 37.8884C93.9261 38.1705 94.0102 38.4856 94.0102 38.8338C94.0102 39.242 93.8901 39.6141 93.65 39.9503C93.4159 40.2804 93.0527 40.5055 92.5605 40.6256L94.1092 43.2187H92.8847ZM90.6607 39.8963H91.7952C92.1794 39.8963 92.4675 39.8002 92.6596 39.6081C92.8577 39.416 92.9567 39.1579 92.9567 38.8338C92.9567 38.5097 92.8607 38.2575 92.6686 38.0775C92.4765 37.8914 92.1854 37.7983 91.7952 37.7983H90.6607V39.8963Z" fill="#414247"/>
<path d="M103.326 43.2817C102.905 43.2817 102.527 43.2097 102.191 43.0656C101.855 42.9156 101.591 42.7055 101.399 42.4354C101.207 42.1652 101.111 41.8501 101.111 41.4899H102.209C102.233 41.7601 102.338 41.9822 102.524 42.1562C102.716 42.3303 102.983 42.4173 103.326 42.4173C103.68 42.4173 103.956 42.3333 104.154 42.1652C104.352 41.9912 104.451 41.7691 104.451 41.4989C104.451 41.2889 104.388 41.1178 104.262 40.9857C104.142 40.8537 103.989 40.7516 103.803 40.6796C103.623 40.6076 103.371 40.5295 103.046 40.4455C102.638 40.3374 102.305 40.2294 102.047 40.1213C101.795 40.0073 101.579 39.8332 101.399 39.5991C101.219 39.365 101.129 39.0529 101.129 38.6627C101.129 38.3026 101.219 37.9874 101.399 37.7173C101.579 37.4472 101.831 37.2401 102.155 37.096C102.479 36.952 102.854 36.8799 103.281 36.8799C103.887 36.8799 104.382 37.033 104.766 37.3391C105.156 37.6393 105.372 38.0535 105.415 38.5817H104.28C104.262 38.3536 104.154 38.1585 103.956 37.9964C103.758 37.8344 103.497 37.7533 103.173 37.7533C102.878 37.7533 102.638 37.8284 102.452 37.9784C102.266 38.1285 102.173 38.3446 102.173 38.6267C102.173 38.8188 102.23 38.9779 102.344 39.1039C102.464 39.224 102.614 39.32 102.794 39.392C102.974 39.4641 103.221 39.5421 103.533 39.6261C103.947 39.7402 104.283 39.8542 104.541 39.9683C104.805 40.0823 105.027 40.2594 105.207 40.4995C105.394 40.7336 105.487 41.0487 105.487 41.4449C105.487 41.7631 105.4 42.0632 105.225 42.3453C105.057 42.6274 104.808 42.8555 104.478 43.0296C104.154 43.1977 103.77 43.2817 103.326 43.2817Z" fill="#414247"/>
<path d="M109.525 42.3903H111.641V43.2187H108.498V36.961H109.525V42.3903Z" fill="#414247"/>
<path d="M117.154 43.2817C116.572 43.2817 116.035 43.1467 115.543 42.8765C115.056 42.6004 114.669 42.2193 114.381 41.733C114.099 41.2408 113.958 40.6886 113.958 40.0763C113.958 39.4641 114.099 38.9148 114.381 38.4286C114.669 37.9424 115.056 37.5642 115.543 37.2941C116.035 37.018 116.572 36.8799 117.154 36.8799C117.743 36.8799 118.28 37.018 118.766 37.2941C119.258 37.5642 119.645 37.9424 119.927 38.4286C120.21 38.9148 120.351 39.4641 120.351 40.0763C120.351 40.6886 120.21 41.2408 119.927 41.733C119.645 42.2193 119.258 42.6004 118.766 42.8765C118.28 43.1467 117.743 43.2817 117.154 43.2817ZM117.154 42.3903C117.568 42.3903 117.938 42.2973 118.262 42.1112C118.586 41.9191 118.838 41.649 119.018 41.3009C119.204 40.9467 119.297 40.5385 119.297 40.0763C119.297 39.6141 119.204 39.209 119.018 38.8608C118.838 38.5127 118.586 38.2455 118.262 38.0595C117.938 37.8734 117.568 37.7803 117.154 37.7803C116.74 37.7803 116.371 37.8734 116.047 38.0595C115.723 38.2455 115.468 38.5127 115.281 38.8608C115.101 39.209 115.011 39.6141 115.011 40.0763C115.011 40.5385 115.101 40.9467 115.281 41.3009C115.468 41.649 115.723 41.9191 116.047 42.1112C116.371 42.2973 116.74 42.3903 117.154 42.3903Z" fill="#414247"/>
<path d="M127.69 38.7618C127.528 38.4496 127.303 38.2155 127.015 38.0595C126.727 37.8974 126.394 37.8164 126.016 37.8164C125.602 37.8164 125.232 37.9094 124.908 38.0955C124.584 38.2816 124.329 38.5457 124.143 38.8878C123.963 39.23 123.873 39.6261 123.873 40.0763C123.873 40.5265 123.963 40.9257 124.143 41.2738C124.329 41.616 124.584 41.8801 124.908 42.0662C125.232 42.2523 125.602 42.3453 126.016 42.3453C126.574 42.3453 127.027 42.1892 127.375 41.8771C127.723 41.565 127.937 41.1418 128.015 40.6076H125.665V39.7882H129.113V40.5896C129.047 41.0758 128.873 41.523 128.591 41.9311C128.315 42.3393 127.952 42.6665 127.501 42.9126C127.057 43.1527 126.562 43.2727 126.016 43.2727C125.427 43.2727 124.89 43.1377 124.404 42.8675C123.918 42.5914 123.531 42.2103 123.243 41.724C122.96 41.2378 122.819 40.6886 122.819 40.0763C122.819 39.4641 122.96 38.9148 123.243 38.4286C123.531 37.9424 123.918 37.5642 124.404 37.2941C124.896 37.018 125.433 36.8799 126.016 36.8799C126.682 36.8799 127.273 37.045 127.789 37.3752C128.312 37.6993 128.69 38.1615 128.924 38.7618H127.69Z" fill="#414247"/>
<path d="M135.699 41.9401H133.079L132.629 43.2187H131.557L133.799 36.952H134.988L137.229 43.2187H136.149L135.699 41.9401ZM135.411 41.1028L134.393 38.1945L133.367 41.1028H135.411Z" fill="#414247"/>
<path d="M145.146 43.2187H144.12L141.032 38.5457V43.2187H140.005V36.952H141.032L144.12 41.616V36.952H145.146V43.2187Z" fill="#414247"/>
<path d="M157.432 36.961V43.2187H156.405V40.4815H153.461V43.2187H152.435V36.961H153.461V39.6441H156.405V36.961H157.432Z" fill="#414247"/>
<path d="M161.61 37.7893V39.6261H163.771V40.4635H161.61V42.3813H164.041V43.2187H160.584V36.952H164.041V37.7893H161.61Z" fill="#414247"/>
<path d="M170.357 43.2187L168.916 40.7156H168.133V43.2187H167.106V36.961H169.267C169.748 36.961 170.153 37.045 170.483 37.2131C170.819 37.3812 171.068 37.6063 171.23 37.8884C171.398 38.1705 171.482 38.4856 171.482 38.8338C171.482 39.242 171.362 39.6141 171.122 39.9503C170.888 40.2804 170.525 40.5055 170.033 40.6256L171.581 43.2187H170.357ZM168.133 39.8963H169.267C169.652 39.8963 169.94 39.8002 170.132 39.6081C170.33 39.416 170.429 39.1579 170.429 38.8338C170.429 38.5097 170.333 38.2575 170.141 38.0775C169.949 37.8914 169.658 37.7983 169.267 37.7983H168.133V39.8963Z" fill="#414247"/>
<path d="M175.623 37.7893V39.6261H177.784V40.4635H175.623V42.3813H178.054V43.2187H174.596V36.952H178.054V37.7893H175.623Z" fill="#414247"/>
<g clip-path="url(#clip0_324_2449)">
<path d="M26.0141 51.9947L52.0063 26.0025L27.9979 1.99402L2.00564 27.9863L26.0141 51.9947Z" stroke="#1D1D1B" stroke-width="4" stroke-miterlimit="10"/>
<path d="M21.2207 13.0203V41.7944L26.472 47.0456L30.5004 43.0173V13.0203H21.2207Z" fill="#009F4E"/>
<path d="M44.7435 17.4083H35.4639V38.0537L44.7435 28.7741V17.4083Z" fill="#2FB562"/>
<path d="M6.97754 0.14386V27.5512L16.2572 36.8308V0.14386H6.97754Z" fill="#007A41"/>
</g>
<defs>
<clipPath id="clip0_324_2449">
<rect width="54.0234" height="54.0234" fill="white"/>
</clipPath>
</defs>
</svg>
