<svg width="136" height="39" viewBox="0 0 136 39" fill="none" xmlns="http://www.w3.org/2000/svg">
<g clip-path="url(#clip0_324_2460)">
<path d="M2.75586 5.26217C1.89258 5.26217 1.22852 4.99573 0.730469 4.49616C0.232422 3.99658 0 3.3971 0 2.63108C0 1.89838 0.265625 1.29889 0.763672 0.766012C1.26172 0.266439 1.92578 0 2.75586 0C3.55273 0 4.2168 0.266439 4.71484 0.766012C5.21289 1.26559 5.47852 1.89838 5.47852 2.63108C5.47852 3.3971 5.21289 3.99658 4.71484 4.49616C4.2168 4.99573 3.55273 5.26217 2.75586 5.26217ZM0.298828 29.6413V9.82494H5.21289V29.6413H0.298828Z" fill="#041815"/>
<path d="M15.8047 29.6413H10.9238V9.82491H14.7422L15.373 12.456C16.3027 11.5235 17.332 10.7574 18.4277 10.2579C19.5234 9.725 20.7187 9.45856 22.0469 9.45856C24.1719 9.45856 25.832 10.058 26.9941 11.2237C28.1562 12.4227 28.7539 14.0879 28.7539 16.2527V29.6413H23.8066V16.8189C23.8066 15.7532 23.541 14.9206 23.0098 14.2545C22.4785 13.5884 21.6484 13.2886 20.5859 13.2886C19.7891 13.2886 18.959 13.4884 18.1289 13.9214C17.2988 14.3544 16.5352 14.9206 15.8379 15.6533V29.6413H15.8047Z" fill="#041815"/>
<path d="M66.4062 29.6413V9.82491H70.1914L70.8223 13.5551C71.2871 12.4227 72.0508 11.4568 73.0801 10.6575C74.1094 9.85822 75.3711 9.45856 76.8984 9.45856C77.5625 9.45856 78.1602 9.52517 78.6582 9.65839C79.1562 9.79161 79.5879 9.95813 79.9199 10.1247L79.0898 14.1212C78.791 13.9547 78.4258 13.8215 77.9609 13.6883C77.5293 13.5551 76.9648 13.4884 76.334 13.4884C74.9062 13.4884 73.7109 13.988 72.748 14.9539C71.7852 15.9197 71.2871 17.485 71.2871 19.5832V29.6413H66.4062Z" fill="#041815"/>
<path d="M82.1113 11.5568C83.3398 10.8907 84.5684 10.3578 85.8301 9.99148C87.0918 9.62512 88.4531 9.42529 89.9473 9.42529C91.1094 9.42529 92.1719 9.55851 93.1016 9.82495C94.0312 10.0914 94.8613 10.5244 95.5586 11.0905C96.2559 11.69 96.7871 12.4227 97.1523 13.3553C97.5176 14.2878 97.7168 15.4202 97.7168 16.7524V29.6414H93.832L93.334 27.5431H93.2012C91.7734 29.2084 89.7812 30.041 87.1582 30.041C85.0664 30.041 83.4395 29.5081 82.2773 28.3758C81.1152 27.2767 80.5176 25.8446 80.5176 24.0794C80.5176 22.9804 80.75 22.0145 81.2148 21.1819C81.6797 20.3826 82.3437 19.7165 83.1406 19.1836C83.9707 18.6507 84.9336 18.2511 86.0625 17.9846C87.1914 17.7182 88.4199 17.585 89.7812 17.585H92.7031V16.2195C92.7031 15.1204 92.3711 14.3544 91.7402 13.8881C91.1094 13.4219 90.2461 13.1887 89.1504 13.1887C88.3867 13.1887 87.5566 13.322 86.6602 13.5551C85.7969 13.8215 84.834 14.2212 83.7715 14.854L82.1113 11.5568ZM92.8027 20.7823L90.5449 20.8822C88.7188 20.9488 87.4238 21.2485 86.7266 21.8147C85.9961 22.3809 85.6309 23.0803 85.6309 23.8796C85.6309 24.9121 85.9297 25.6115 86.5606 25.9778C87.1582 26.3442 87.8887 26.5107 88.6855 26.5107C89.4824 26.5107 90.2461 26.3109 91.0098 25.9112C91.7402 25.5115 92.3379 24.9454 92.8359 24.2127V20.7823H92.8027Z" fill="#041815"/>
<path d="M114.352 13.4219H108.906V23.3467C108.906 24.2793 109.139 24.9454 109.604 25.2784C110.068 25.6115 110.666 25.8113 111.363 25.8113C111.928 25.8113 112.492 25.7447 113.123 25.6448C113.721 25.5449 114.252 25.3783 114.65 25.1785L115.414 28.6755C114.883 28.9086 114.186 29.1085 113.256 29.3083C112.359 29.5081 111.396 29.608 110.367 29.608C108.109 29.608 106.516 29.1418 105.52 28.2425C104.523 27.31 104.025 25.9445 104.025 24.1127V13.4219H101.037V9.82495H104.025V3.63025H108.906V9.82495H114.352V13.4219Z" fill="#041815"/>
<path d="M136 20.8489H122.553V21.0154C122.553 22.8139 123.117 24.1794 124.246 25.0786C125.375 25.9778 126.836 26.4108 128.695 26.4108C129.791 26.4108 130.754 26.3109 131.584 26.111C132.414 25.9112 133.244 25.6448 134.008 25.3117L134.971 28.7754C134.174 29.1418 133.211 29.4415 132.082 29.708C130.986 29.9744 129.691 30.0743 128.197 30.0743C126.736 30.0743 125.342 29.8745 124.047 29.4748C122.752 29.0752 121.623 28.4757 120.66 27.6431C119.697 26.8104 118.934 25.7447 118.336 24.4791C117.771 23.2135 117.473 21.6815 117.473 19.883C117.473 18.3177 117.705 16.9189 118.17 15.62C118.635 14.3544 119.299 13.2554 120.162 12.3228C121.025 11.3903 122.055 10.6909 123.283 10.1913C124.512 9.69173 125.84 9.42529 127.334 9.42529C129.957 9.42529 132.082 10.2246 133.609 11.8565C135.17 13.4552 135.934 15.7199 135.934 18.5841V20.8489H136ZM130.986 17.4185C130.986 16.819 130.92 16.2861 130.787 15.7199C130.654 15.187 130.422 14.6875 130.123 14.2878C129.824 13.8548 129.426 13.5551 128.928 13.322C128.43 13.0888 127.865 12.9556 127.201 12.9556C125.939 12.9556 124.91 13.3886 124.113 14.2212C123.316 15.0538 122.818 16.1529 122.652 17.5184L130.986 17.4185Z" fill="#041815"/>
<path d="M69.0626 38.667C63.4513 39.3997 59.0021 38.8335 55.5157 37.7011C55.4493 37.6678 55.3829 37.6678 55.3165 37.6345C54.1876 37.2682 53.1583 36.8019 52.2286 36.3356C37.1212 35.2699 37.586 22.6473 37.586 22.6473C38.0509 25.5116 39.6778 27.9761 41.9688 29.5748C43.1642 30.4074 44.5255 31.0069 46.0196 31.3066C46.6505 31.4398 47.3146 31.5064 48.0118 31.5064C48.3439 31.5064 48.6427 31.4731 48.9747 31.4398C51.0997 31.24 53.0587 30.4074 54.6192 29.1418C54.6192 29.1418 54.6192 29.1418 54.6524 29.1418C55.4493 28.4757 56.6114 28.7754 57.0099 29.7413C57.4415 30.807 58.1056 31.7729 58.8692 32.6388C59.3341 33.1717 59.8321 33.6379 60.3634 34.1042C64.0821 37.2016 69.0626 38.667 69.0626 38.667Z" fill="url(#paint0_linear_324_2460)"/>
<path d="M45.0234 15.5867L53.8555 20.6824C54.1543 20.8489 54.1543 21.2485 53.8555 21.4151L45.0234 26.5107C44.7246 26.6772 44.3926 26.4774 44.3926 26.1444V15.9864C44.3926 15.6533 44.7578 15.4535 45.0234 15.5867Z" fill="url(#paint1_linear_324_2460)"/>
<path d="M63.9492 20.8822C63.9492 21.1153 63.9492 21.3151 63.9492 21.5483C63.916 22.1811 63.8496 22.7805 63.75 23.38V23.4133C63.3848 25.1452 62.3223 27.31 59.2344 26.1443C58.3379 25.0453 58.3047 23.6132 58.3711 22.7805C58.4043 22.5474 58.4375 22.3143 58.4707 22.0811C58.4707 22.0478 58.4707 22.0478 58.4707 22.0478C58.5039 21.6482 58.5371 21.2818 58.5371 20.8822C58.5371 17.4851 56.9102 14.4543 54.4199 12.4893C54.4199 12.4893 54.3867 12.456 54.3535 12.4227C53.457 11.6234 42.4004 2.19814 34.0664 13.0222C36.7891 8.12641 42.002 4.82922 47.9785 4.82922C50.4688 4.82922 52.8594 5.39541 54.9512 6.46116C60.2969 9.09225 63.9492 14.5876 63.9492 20.8822Z" fill="url(#paint2_linear_324_2460)"/>
<path d="M52.2285 36.3356C51.1992 36.6354 50.1367 36.8019 49.0742 36.8685C48.709 36.9018 48.377 36.9018 48.0117 36.9018C41.7031 36.9018 36.2246 33.205 33.6348 27.8429C32.6055 25.7447 32.041 23.38 32.041 20.8822C32.041 18.0513 32.7715 15.3869 34.0664 13.0888C42.4336 2.26476 53.457 11.69 54.3535 12.4894C52.5937 11.1239 50.3691 10.3245 47.9785 10.3245C42.168 10.3245 37.4199 15.0871 37.4199 20.9155C37.4199 21.515 37.4863 22.0812 37.5527 22.6473C37.5859 22.6473 37.1211 35.2699 52.2285 36.3356Z" fill="url(#paint3_linear_324_2460)"/>
</g>
<defs>
<linearGradient id="paint0_linear_324_2460" x1="74.3008" y1="39.2988" x2="44.237" y2="29.6773" gradientUnits="userSpaceOnUse">
<stop stop-color="#FFB400"/>
<stop offset="1" stop-color="#DA1C5C"/>
</linearGradient>
<linearGradient id="paint1_linear_324_2460" x1="49.2297" y1="26.6201" x2="49.2297" y2="15.5448" gradientUnits="userSpaceOnUse">
<stop stop-color="#F7941E"/>
<stop offset="1" stop-color="#DA1C5C"/>
</linearGradient>
<linearGradient id="paint2_linear_324_2460" x1="40.6716" y1="5.35657" x2="63.5107" y2="27.9312" gradientUnits="userSpaceOnUse">
<stop stop-color="#FFB400"/>
<stop offset="1" stop-color="#DA1C5C"/>
</linearGradient>
<linearGradient id="paint3_linear_324_2460" x1="41.6227" y1="8.99774" x2="46.3693" y2="34.1197" gradientUnits="userSpaceOnUse">
<stop stop-color="#DA1C5C"/>
<stop offset="1" stop-color="#FFB400"/>
</linearGradient>
<clipPath id="clip0_324_2460">
<rect width="136" height="39" fill="white"/>
</clipPath>
</defs>
</svg>
