<svg width="178" height="38" viewBox="0 0 178 38" fill="none" xmlns="http://www.w3.org/2000/svg">
<path d="M70.4271 3.59589C74.6642 3.59589 76.7096 5.95783 76.7096 8.82079C76.7096 10.8964 75.6138 13.0437 72.6187 13.831L77.0018 21.0599H73.5684L69.4774 14.1173H67.2859V21.0599H64.3638V3.59589H70.4271ZM70.4271 5.95783H67.2128V11.7553H70.4271C72.6917 11.7553 73.7145 10.5386 73.7145 8.82079C73.7145 7.03144 72.6917 5.95783 70.4271 5.95783Z" fill="#121314"/>
<path d="M92.7807 5.88625H85.9138V10.968H92.0502V13.2584H85.9138V18.5549H92.7807V20.8452H82.9917V3.59589H92.7807V5.88625Z" fill="#121314"/>
<path d="M111.117 3.59589H114.186L107.538 20.9884H104.177L97.4565 3.59589H100.598L105.858 18.0538L111.117 3.59589Z" fill="#121314"/>
<path d="M119.153 3.59589H122.075V20.9884H119.153V3.59589Z" fill="#121314"/>
<path d="M140.703 3.59589H143.771L137.124 20.9884H133.763L127.042 3.59589H130.184L135.444 18.0538L140.703 3.59589Z" fill="#121314"/>
<path d="M159.405 17.4097H152.027L150.785 20.9884H147.644L153.999 3.59589H157.36L163.715 20.9884H160.647L159.405 17.4097ZM155.752 7.03144L152.83 15.1193H158.601L155.752 7.03144Z" fill="#121314"/>
<path d="M171.969 3.59589V18.698H177.96V20.9884H169.047V3.59589H171.969Z" fill="#121314"/>
<path d="M69.7696 35.7326C69.4044 35.8757 68.7469 36.0905 67.8703 36.0905C65.8248 36.0905 64.3638 34.8737 64.3638 32.5118C64.3638 30.293 65.8979 28.7899 68.0894 28.7899C68.9661 28.7899 69.5505 29.0046 69.7696 29.0762L69.5505 29.792C69.1852 29.6488 68.6739 29.5057 68.0894 29.5057C66.4092 29.5057 65.3135 30.5793 65.3135 32.3686C65.3135 34.0864 66.3362 35.16 68.0894 35.16C68.6739 35.16 69.2583 35.0169 69.6235 34.8737L69.7696 35.7326Z" fill="#555555"/>
<path d="M78.2436 28.933V31.8676H81.6771V28.933H82.6268V35.9473H81.6771V32.6549H78.2436V35.9473H77.2939V28.933H78.2436Z" fill="#555555"/>
<path d="M91.5392 28.933V33.0843C91.5392 34.6589 92.2697 35.3031 93.2194 35.3031C94.3152 35.3031 94.9727 34.5874 94.9727 33.0843V28.933H95.9224V33.0127C95.9224 35.16 94.7535 36.0189 93.2194 36.0189C91.7584 36.0189 90.6626 35.2315 90.6626 33.0127V28.8615H91.5392V28.933Z" fill="#555555"/>
<path d="M103.885 29.0762C104.323 29.0046 105.054 28.933 105.638 28.933C106.661 28.933 107.245 29.0762 107.684 29.5056C108.049 29.7919 108.268 30.293 108.268 30.8655C108.268 31.796 107.684 32.4402 106.953 32.6549C107.538 32.8696 107.83 33.3706 107.976 34.0864C108.195 35.0884 108.414 35.7326 108.56 36.0189H107.611C107.465 35.8042 107.319 35.2316 107.099 34.3727C106.88 33.3706 106.515 33.0128 105.638 33.0128H104.762V36.0189H103.812V29.0762H103.885ZM104.762 32.2254H105.711C106.734 32.2254 107.319 31.7244 107.319 30.8655C107.319 29.9351 106.661 29.5772 105.638 29.5772C105.2 29.5772 104.908 29.6488 104.689 29.6488V32.2254H104.762Z" fill="#555555"/>
<path d="M120.979 35.7326C120.614 35.8757 119.956 36.0905 119.08 36.0905C117.034 36.0905 115.573 34.8737 115.573 32.5118C115.573 30.293 117.107 28.7899 119.299 28.7899C120.176 28.7899 120.76 29.0046 120.979 29.0762L120.76 29.792C120.395 29.6488 119.883 29.5057 119.299 29.5057C117.619 29.5057 116.523 30.5793 116.523 32.3686C116.523 34.0864 117.546 35.16 119.299 35.16C119.883 35.16 120.468 35.0169 120.833 34.8737L120.979 35.7326Z" fill="#555555"/>
<path d="M129.453 28.933V31.8676H132.887V28.933H133.836V35.9473H132.887V32.6549H129.453V35.9473H128.503V28.933H129.453Z" fill="#555555"/>
<path d="M33.1376 23.996C33.9354 23.5751 34.549 23.034 35.1627 22.3726C35.715 21.7112 36.2059 20.9296 36.5741 20.0278C36.9423 19.1259 37.1264 18.1639 37.1264 17.0817C37.1264 15.9994 36.9423 14.9773 36.5741 14.0153C36.2059 13.0534 35.715 12.2718 35.04 11.6104C34.3649 10.949 33.6285 10.4079 32.708 10.0472C31.7876 9.68642 30.7443 9.50604 29.6398 9.50604H23.3191C23.135 9.50604 22.9509 9.50604 22.7668 9.50604C22.7054 9.50604 22.5827 9.50604 22.5213 9.50604H9.81855C9.26626 9.50604 8.8367 9.68642 8.4685 10.0472C8.10031 10.4079 7.91621 10.8288 7.91621 11.3699C7.91621 12.392 8.77533 13.2337 9.81855 13.2337H15.5256H22.4599H25.8964C26.9397 13.2337 27.7988 14.0755 27.7988 15.0976C27.7988 15.6387 27.6147 16.0596 27.2465 16.4203C26.8783 16.7811 26.4487 16.9614 25.8964 16.9614H14.5437H13.8073H1.90234C1.35005 16.9614 0.920489 17.1418 0.552294 17.5025C0.184098 17.8633 0 18.3443 0 18.8854C0 19.9075 0.859123 20.7492 1.90234 20.7492H13.6232H14.4824H16.3233C17.3666 20.7492 18.2257 21.591 18.2257 22.6131C18.2257 23.1542 18.0416 23.5751 17.6734 23.9358C17.3052 24.2966 16.8756 24.4769 16.3233 24.4769H14.3596H10.6777C10.1254 24.4769 9.69582 24.7174 9.32762 25.0181C8.95943 25.3788 8.77533 25.7997 8.77533 26.3408C8.77533 27.3629 9.63445 28.2046 10.6777 28.2046H16.0779H19.3303C20.3735 28.2046 21.2326 29.0464 21.2326 30.0685C21.2326 30.6096 21.0485 31.0305 20.6803 31.3912C20.3121 31.752 19.8826 31.9323 19.3303 31.9323H19.2689H19.0234C18.5939 31.9925 18.2257 32.1728 17.9189 32.4734C17.5507 32.8342 17.3666 33.2551 17.3666 33.7962C17.3666 34.8183 18.2257 35.66 19.2689 35.66H24.1782C26.8783 37.0429 29.8852 37.7644 33.0762 37.7644C33.5672 37.7644 34.1195 37.7042 34.6104 37.7042C36.3286 37.5239 37.3105 35.66 36.4514 34.217L32.2171 27.0022C31.6035 25.9199 32.033 24.5972 33.1376 23.996Z" fill="#4000C9"/>
<path d="M52.1 18.3443C51.7932 8.42384 43.5088 0.30709 33.3834 0.00646952C28.6582 -0.113779 24.3012 1.44945 20.8647 4.09491H29.5787C31.3583 4.09491 33.0766 4.45565 34.6721 5.11702C36.2676 5.77838 37.6177 6.68024 38.7836 7.88273C39.9496 9.08521 40.87 10.4079 41.5451 12.0313C42.2201 13.5945 42.5269 15.278 42.5269 17.1418C42.5269 19.4266 42.1587 21.4107 41.361 23.0941C41.0541 23.8156 40.6246 24.4169 40.195 25.0181C39.0904 26.5212 38.9063 28.5053 39.8268 30.1888C41.4837 33.0747 45.5952 33.4956 47.743 30.9103C50.6272 27.4231 52.2841 23.0941 52.1 18.3443Z" fill="#4000C9"/>
</svg>
