<svg width="267" height="52" viewBox="0 0 267 52" fill="none" xmlns="http://www.w3.org/2000/svg">
<path d="M76.8979 45.6885H75.041V44.9922H79.5286V45.6885H77.6717V51.1046H76.8979V45.6885Z" fill="#414247"/>
<path d="M85.5598 45.1469C85.9467 45.0696 86.4883 44.9922 87.0299 44.9922C87.881 44.9922 88.4226 45.1469 88.8094 45.4564C89.1189 45.6885 89.2736 46.1528 89.2736 46.617C89.2736 47.3907 88.8094 47.9323 88.1131 48.1644C88.5773 48.3192 88.8868 48.7834 88.9642 49.4024C89.1963 50.2535 89.2736 50.7951 89.4284 51.0272H88.6547C88.5773 50.8725 88.4226 50.3309 88.2678 49.5571C88.1131 48.706 87.8036 48.3966 87.0299 48.3966H86.2561V51.0272H85.4824V45.1469H85.5598ZM86.3335 47.9323H87.1072C87.9583 47.9323 88.4999 47.4681 88.4999 46.7717C88.4999 45.998 87.9583 45.6885 87.1072 45.6112C86.7204 45.6112 86.4883 45.6112 86.3335 45.6885V47.9323Z" fill="#414247"/>
<path d="M96.553 45.0713V51.1063H95.7793V45.0713H96.553Z" fill="#414247"/>
<path d="M104.287 49.172L103.668 51.1063H102.895L104.984 45.0713H105.912L108.001 51.1063H107.15L106.531 49.172H104.287ZM106.222 48.6304L105.603 46.9282C105.448 46.5414 105.37 46.1545 105.293 45.845C105.216 46.2319 105.138 46.5414 104.984 46.9282L104.365 48.7078H106.222V48.6304Z" fill="#414247"/>
<path d="M114.193 45.0713H114.967V50.4873H117.52V51.1063H114.193V45.0713Z" fill="#414247"/>
<path d="M132.063 49.172L131.444 51.1063H130.67L132.759 45.0713H133.687L135.776 51.1063H134.925L134.306 49.172H132.063ZM133.997 48.6304L133.378 46.9282C133.223 46.5414 133.146 46.1545 133.068 45.845C132.991 46.2319 132.914 46.5414 132.759 46.9282L132.14 48.7078H133.997V48.6304Z" fill="#414247"/>
<path d="M142.433 45.6885H140.576V44.9922H145.064V45.6885H143.207V51.1046H142.433V45.6885Z" fill="#414247"/>
<path d="M152.57 45.6885H150.713V44.9922H155.2V45.6885H153.344V51.1046H152.57V45.6885Z" fill="#414247"/>
<path d="M166.185 48.0109C166.185 50.0999 164.947 51.1831 163.399 51.1831C161.775 51.1831 160.691 49.9452 160.691 48.0883C160.691 46.154 161.852 44.916 163.477 44.916C165.102 44.9934 166.185 46.2313 166.185 48.0109ZM161.542 48.0883C161.542 49.4036 162.239 50.5642 163.477 50.5642C164.715 50.5642 165.411 49.4036 165.411 48.0883C165.411 46.8503 164.792 45.6124 163.477 45.6124C162.161 45.6124 161.542 46.7729 161.542 48.0883Z" fill="#414247"/>
<path d="M172.607 45.1469C172.994 45.0696 173.535 44.9922 174.077 44.9922C174.928 44.9922 175.469 45.1469 175.856 45.4564C176.166 45.6885 176.321 46.1528 176.321 46.617C176.321 47.3907 175.856 47.9323 175.16 48.1644C175.624 48.3192 175.934 48.7834 176.011 49.4024C176.243 50.2535 176.321 50.7951 176.475 51.0272H175.702C175.624 50.8725 175.469 50.3309 175.315 49.5571C175.16 48.706 174.85 48.3966 174.077 48.3966H173.303V51.0272H172.529V45.1469H172.607ZM173.38 47.9323H174.154C175.005 47.9323 175.547 47.4681 175.547 46.7717C175.547 45.998 175.005 45.6885 174.154 45.6112C173.767 45.6112 173.535 45.6112 173.38 45.6885V47.9323Z" fill="#414247"/>
<path d="M182.824 51.1063V45.0713H183.675L185.61 48.1662C186.074 48.8625 186.383 49.4815 186.693 50.1005C186.615 49.3267 186.615 48.553 186.615 47.6246V45.0713H187.389V51.1063H186.615L184.681 48.0114C184.294 47.3151 183.83 46.6187 183.521 45.9997C183.598 46.7735 183.598 47.4698 183.598 48.4756V51.0289H182.824V51.1063Z" fill="#414247"/>
<path d="M197.212 48.2428H194.891V50.4092H197.522V51.0282H194.117V44.9932H197.367V45.6121H194.891V47.5464H197.212V48.2428Z" fill="#414247"/>
<path d="M205.257 51.1063V48.553L203.322 45.0713H204.173L205.024 46.7735C205.257 47.2377 205.411 47.6246 205.643 48.0114C205.798 47.6246 206.03 47.2377 206.262 46.7735L207.113 45.0713H207.965L205.953 48.553V51.1063H205.257Z" fill="#414247"/>
<path d="M213.925 50.1771C214.312 50.4092 214.776 50.5639 215.317 50.5639C216.091 50.5639 216.555 50.1771 216.555 49.5581C216.555 49.0165 216.246 48.707 215.395 48.3202C214.389 47.9333 213.77 47.4691 213.77 46.618C213.77 45.6895 214.544 44.9932 215.704 44.9932C216.323 44.9932 216.787 45.1479 217.02 45.3027L216.787 45.9216C216.555 45.8443 216.169 45.6121 215.627 45.6121C214.776 45.6121 214.466 46.0764 214.466 46.5406C214.466 47.0822 214.853 47.3917 215.704 47.7012C216.71 48.088 217.252 48.5523 217.252 49.4807C217.252 50.4092 216.555 51.1829 215.163 51.1829C214.544 51.1829 213.925 51.0282 213.615 50.7961L213.925 50.1771Z" fill="#414247"/>
<path d="M75.041 35.8607V35.3191H75.7374C76.5111 35.3191 77.0527 35.087 77.4395 34.5454C77.6717 34.2359 77.749 33.5396 77.749 32.5337V20.4637C77.749 19.3031 77.5943 18.5294 77.3622 18.2973C76.9753 17.9104 76.4337 17.6783 75.7374 17.6783H75.041V17.1367H82.6235C85.4088 17.1367 87.5753 17.4462 88.968 18.0652C90.438 18.6842 91.5986 19.7674 92.4497 21.2374C93.3008 22.7075 93.765 24.4097 93.765 26.344C93.765 28.9746 92.9913 31.141 91.3665 32.8432C89.5869 34.7775 86.8789 35.7834 83.2424 35.7834H75.041V35.8607ZM80.3797 34.5454C81.5403 34.7775 82.5461 34.9323 83.3198 34.9323C85.4862 34.9323 87.1884 34.1585 88.6585 32.6885C90.0512 31.2184 90.7475 29.1294 90.7475 26.5761C90.7475 24.0228 90.0512 21.9338 88.6585 20.4637C87.2658 18.9936 85.4088 18.2199 83.2424 18.2199C82.3913 18.2199 81.4629 18.3747 80.3797 18.6068V34.5454Z" fill="#041815"/>
<path d="M100.188 22.8627V32.9985C100.188 33.7722 100.266 34.3138 100.343 34.5459C100.42 34.778 100.653 35.0101 100.885 35.1649C101.117 35.3196 101.504 35.3196 102.123 35.3196V35.7838H96.0102V35.3196C96.6292 35.3196 97.016 35.2422 97.2482 35.1649C97.4803 35.0101 97.635 34.8554 97.7898 34.5459C97.9445 34.2364 97.9445 33.7722 97.9445 32.9211V28.0467C97.9445 26.654 97.8671 25.8029 97.7898 25.416C97.7124 25.1065 97.635 24.9518 97.4803 24.797C97.3255 24.7197 97.1708 24.6423 96.9387 24.6423C96.7066 24.6423 96.3971 24.7197 96.0102 24.8744L95.8555 24.4102L99.6467 22.8627H100.188ZM99.0277 16.2861C99.4146 16.2861 99.7241 16.4409 100.034 16.673C100.343 16.9825 100.42 17.292 100.42 17.6788C100.42 18.0657 100.266 18.3752 100.034 18.6847C99.7241 18.9941 99.4146 19.0715 99.0277 19.0715C98.6408 19.0715 98.3314 18.9168 98.0219 18.6847C97.7124 18.3752 97.635 18.0657 97.635 17.6788C97.635 17.292 97.7898 16.9825 98.0219 16.673C98.3314 16.4409 98.6408 16.2861 99.0277 16.2861Z" fill="#041815"/>
<path d="M108.007 16.2861V33.0758C108.007 33.8495 108.084 34.3912 108.162 34.6233C108.239 34.8554 108.471 35.0875 108.703 35.2422C108.936 35.397 109.4 35.4743 110.019 35.4743V35.9386H103.829V35.4743C104.371 35.4743 104.835 35.397 104.99 35.3196C105.222 35.1649 105.376 35.0101 105.454 34.7006C105.609 34.3911 105.609 33.9269 105.609 33.0758V21.6248C105.609 20.2321 105.609 19.3036 105.531 18.9941C105.454 18.6847 105.376 18.4525 105.222 18.2978C105.067 18.1431 104.912 18.1431 104.68 18.1431C104.448 18.1431 104.139 18.2204 103.752 18.3752L103.52 17.9109L107.311 16.3635H108.007V16.2861Z" fill="#041815"/>
<path d="M115.894 16.2861V33.0758C115.894 33.8495 115.971 34.3912 116.049 34.6233C116.126 34.8554 116.358 35.0875 116.59 35.2422C116.822 35.397 117.287 35.4743 117.905 35.4743V35.9386H111.716V35.4743C112.257 35.4743 112.722 35.397 112.876 35.3196C113.108 35.1649 113.263 35.0101 113.341 34.7006C113.495 34.3911 113.495 33.9269 113.495 33.0758V21.6248C113.495 20.2321 113.495 19.3036 113.418 18.9941C113.341 18.6847 113.263 18.4525 113.108 18.2978C112.954 18.1431 112.799 18.1431 112.567 18.1431C112.335 18.1431 112.025 18.2204 111.638 18.3752L111.406 17.9109L115.197 16.3635H115.894V16.2861Z" fill="#041815"/>
<path d="M125.565 22.8623C127.5 22.8623 129.047 23.5586 130.208 25.0287C131.214 26.2667 131.678 27.6594 131.678 29.2842C131.678 30.4447 131.368 31.528 130.827 32.6885C130.285 33.8491 129.511 34.7002 128.583 35.3192C127.655 35.9381 126.571 36.1703 125.411 36.1703C123.476 36.1703 122.006 35.3965 120.846 33.9265C119.917 32.6112 119.453 31.2185 119.453 29.5937C119.453 28.4331 119.763 27.2725 120.304 26.1119C120.846 24.9513 121.62 24.1003 122.548 23.5586C123.554 23.1718 124.482 22.8623 125.565 22.8623ZM125.101 23.7908C124.637 23.7908 124.095 23.9455 123.631 24.255C123.167 24.5645 122.78 25.0287 122.471 25.8024C122.161 26.4988 122.006 27.4272 122.006 28.5878C122.006 30.4447 122.393 31.9922 123.09 33.3849C123.786 34.7002 124.792 35.3965 125.952 35.3965C126.881 35.3965 127.577 35.0097 128.196 34.3133C128.738 33.5396 129.047 32.3017 129.047 30.5221C129.047 28.2783 128.583 26.4988 127.577 25.2608C126.958 24.255 126.184 23.7908 125.101 23.7908Z" fill="#041815"/>
<path d="M137.169 25.5703C138.639 23.7908 140.032 22.8623 141.425 22.8623C142.121 22.8623 142.74 23.017 143.204 23.4039C143.668 23.7134 144.133 24.3324 144.365 25.1061C144.597 25.6477 144.674 26.4988 144.674 27.6594V33.0754C144.674 33.8491 144.752 34.3907 144.829 34.7002C144.906 34.9323 145.061 35.0871 145.293 35.2418C145.525 35.3966 145.912 35.3966 146.531 35.3966V35.8608H140.264V35.3966H140.496C141.115 35.3966 141.502 35.3192 141.734 35.1644C141.966 35.0097 142.121 34.7002 142.198 34.3907C142.198 34.236 142.276 33.8491 142.276 33.0754V27.8915C142.276 26.7309 142.121 25.8798 141.812 25.4156C141.502 24.874 141.038 24.6418 140.264 24.6418C139.181 24.6418 138.098 25.2608 137.014 26.4214V33.0754C137.014 33.9265 137.092 34.4681 137.169 34.7002C137.324 34.9323 137.479 35.1644 137.711 35.3192C137.943 35.4739 138.407 35.4739 139.104 35.4739V35.9382H132.836V35.4739H133.146C133.765 35.4739 134.229 35.3192 134.461 35.0097C134.693 34.7002 134.771 34.0812 134.771 33.1528V28.4331C134.771 26.8856 134.771 25.9572 134.693 25.6477C134.616 25.3382 134.539 25.1061 134.384 24.9513C134.229 24.7966 134.074 24.7966 133.842 24.7966C133.61 24.7966 133.301 24.874 132.914 25.0287L132.682 24.5645L136.473 23.017H137.092V25.5703H137.169Z" fill="#041815"/>
<path d="M168.2 23.867H174.003V24.4086C173.229 24.486 172.61 24.6407 172.223 24.9502C171.836 25.2597 171.217 26.1108 170.444 27.5809C169.67 29.0509 168.741 30.4436 167.736 31.6816C168.587 32.61 169.283 33.3064 169.902 33.6932C170.521 34.0801 171.217 34.2348 171.836 34.2348C172.455 34.2348 172.997 34.0801 173.461 33.6932C173.925 33.3838 174.235 32.8422 174.39 32.1458L174.931 32.5327C174.622 33.848 174.08 34.7765 173.306 35.3954C172.533 36.0144 171.682 36.3239 170.676 36.3239C169.902 36.3239 169.128 36.0918 168.355 35.7049C167.581 35.3181 166.73 34.6217 165.801 33.6159C164.641 34.6217 163.635 35.3181 162.706 35.7049C161.778 36.0918 160.849 36.3239 159.766 36.3239C158.219 36.3239 157.058 35.937 156.13 35.0859C155.201 34.3122 154.814 33.3064 154.814 32.2232C154.814 31.14 155.201 29.9794 156.052 28.8962C156.826 27.813 158.374 26.6524 160.54 25.4918C160.076 24.5634 159.844 23.7896 159.689 23.1707C159.534 22.5517 159.457 22.0101 159.457 21.3911C159.457 19.8437 159.998 18.6057 161.159 17.7546C162.087 17.1357 163.093 16.8262 164.254 16.8262C165.337 16.8262 166.265 17.1357 166.962 17.832C167.658 18.451 167.968 19.3021 167.968 20.2305C167.968 21.2364 167.658 22.0875 166.962 22.7838C166.265 23.5575 165.105 24.3312 163.403 25.1823C164.563 27.2714 165.801 29.1283 167.039 30.9079C168.664 28.9736 169.438 27.3487 169.438 26.0334C169.438 25.6466 169.283 25.2597 169.051 24.8728C168.819 24.6407 168.587 24.486 168.2 24.4086V23.867ZM165.105 32.8422C163.867 31.2173 163.016 29.9794 162.552 29.2057C162.087 28.432 161.546 27.5035 161.004 26.3429C159.921 26.9619 159.07 27.6582 158.528 28.432C157.987 29.2057 157.677 30.0568 157.677 30.9079C157.677 31.9137 157.987 32.7648 158.606 33.5385C159.225 34.3122 160.076 34.6217 161.159 34.6217C161.701 34.6217 162.32 34.5443 162.861 34.3122C163.403 34.0801 164.176 33.6159 165.105 32.8422ZM162.939 24.1765C164.099 23.6349 164.95 23.0159 165.492 22.3196C166.033 21.6232 166.343 20.8495 166.343 19.9984C166.343 19.3021 166.111 18.7605 165.724 18.3736C165.337 17.9094 164.795 17.7546 164.176 17.7546C163.403 17.7546 162.784 18.0641 162.397 18.6057C162.01 19.1473 161.778 19.6889 161.778 20.2305C161.778 20.6948 161.855 21.159 162.01 21.778C162.165 22.3196 162.474 23.0933 162.939 24.1765Z" fill="#041815"/>
<path d="M195.819 16.7514V23.2507H195.277C195.123 22.0127 194.813 21.0069 194.349 20.3105C193.885 19.5368 193.343 18.9952 192.492 18.531C191.718 18.0667 190.867 17.912 190.016 17.912C189.088 17.912 188.237 18.2215 187.618 18.7631C186.999 19.3821 186.689 20.001 186.689 20.7748C186.689 21.3164 186.921 21.858 187.308 22.3222C187.85 23.0185 189.242 23.947 191.409 25.1076C193.188 26.036 194.349 26.7324 194.968 27.274C195.587 27.7382 196.128 28.3572 196.438 29.0536C196.747 29.7499 196.98 30.4462 196.98 31.22C196.98 32.6127 196.438 33.8506 195.355 34.8565C194.272 35.8623 192.879 36.4039 191.099 36.4039C190.558 36.4039 190.016 36.3265 189.552 36.2491C189.242 36.1718 188.701 36.017 187.772 35.7075C186.844 35.398 186.302 35.2433 186.07 35.2433C185.838 35.2433 185.683 35.3207 185.529 35.4754C185.374 35.6302 185.296 35.8623 185.219 36.3265H184.677V29.9046H185.219C185.451 31.22 185.761 32.2258 186.147 32.9222C186.534 33.6185 187.153 34.1601 188.004 34.547C188.856 35.0112 189.784 35.2433 190.712 35.2433C191.873 35.2433 192.801 34.9338 193.42 34.3148C194.117 33.6959 194.426 32.9995 194.426 32.1484C194.426 31.6842 194.272 31.22 194.039 30.7557C193.807 30.2915 193.42 29.8273 192.879 29.4404C192.492 29.1309 191.564 28.5893 189.939 27.6609C188.314 26.7324 187.231 26.036 186.534 25.4944C185.838 24.9528 185.374 24.4112 184.987 23.7149C184.6 23.0959 184.445 22.3996 184.445 21.6259C184.445 20.3105 184.987 19.15 185.993 18.1441C186.999 17.1383 188.314 16.6741 189.939 16.6741C190.945 16.6741 191.95 16.9062 193.111 17.3704C193.653 17.6025 193.962 17.6799 194.194 17.6799C194.426 17.6799 194.658 17.6025 194.813 17.4478C194.968 17.293 195.123 16.9835 195.2 16.5967H195.819V16.7514Z" fill="#041815"/>
<path d="M206.575 34.0815C205.26 35.0873 204.486 35.6289 204.099 35.7836C203.635 36.0158 203.094 36.0931 202.475 36.0931C201.623 36.0931 200.85 35.7836 200.308 35.1647C199.766 34.5457 199.457 33.772 199.457 32.8435C199.457 32.2245 199.612 31.6829 199.844 31.2187C200.231 30.5997 200.85 29.9807 201.778 29.4391C202.707 28.8975 204.254 28.2012 206.421 27.4275V27.0406C206.421 25.8027 206.188 24.9516 205.802 24.41C205.415 23.9457 204.796 23.7136 204.022 23.7136C203.48 23.7136 203.016 23.8684 202.629 24.1779C202.242 24.4873 202.088 24.8742 202.088 25.2611V26.0348C202.088 26.4216 202.01 26.8085 201.778 27.0406C201.546 27.2727 201.314 27.3501 200.927 27.3501C200.618 27.3501 200.308 27.1953 200.076 26.9632C199.844 26.7311 199.767 26.4216 199.767 25.9574C199.767 25.1837 200.153 24.41 201.004 23.791C201.778 23.0946 202.939 22.7852 204.409 22.7852C205.492 22.7852 206.421 22.9399 207.194 23.3268C207.736 23.6362 208.123 24.0231 208.432 24.6421C208.587 25.0289 208.664 25.88 208.664 27.0406V31.2961C208.664 32.534 208.664 33.2304 208.742 33.5398C208.819 33.8493 208.896 34.0041 208.974 34.0815C209.051 34.1588 209.206 34.2362 209.361 34.2362C209.515 34.2362 209.67 34.2362 209.747 34.1588C209.902 34.0041 210.289 33.6946 210.831 33.153V33.9267C209.825 35.3194 208.819 36.0158 207.891 36.0158C207.426 36.0158 207.117 35.861 206.807 35.5515C206.73 35.3194 206.653 34.8552 206.575 34.0815ZM206.575 33.153V28.3559C205.183 28.8975 204.254 29.2844 203.867 29.5165C203.171 29.9034 202.629 30.3676 202.32 30.7545C202.01 31.2187 201.856 31.6829 201.856 32.2245C201.856 32.9209 202.088 33.4625 202.475 33.8493C202.861 34.3136 203.326 34.4683 203.867 34.4683C204.564 34.5457 205.492 34.0814 206.575 33.153Z" fill="#041815"/>
<path d="M215.704 25.5705C216.633 24.6421 217.174 24.1005 217.329 23.9457C217.716 23.5589 218.18 23.3268 218.645 23.0946C219.109 22.9399 219.573 22.7852 220.037 22.7852C220.811 22.7852 221.507 23.0173 222.049 23.4815C222.59 23.9457 222.977 24.6421 223.209 25.4932C224.138 24.41 224.989 23.6362 225.608 23.3268C226.227 23.0173 226.923 22.7852 227.62 22.7852C228.316 22.7852 228.858 22.9399 229.399 23.3268C229.941 23.6362 230.328 24.2552 230.637 25.0289C230.869 25.5705 230.947 26.4216 230.947 27.5048V32.9209C230.947 33.6946 231.024 34.2362 231.101 34.5457C231.179 34.7778 231.333 34.9325 231.643 35.0873C231.875 35.242 232.262 35.3194 232.881 35.3194V35.7836H226.614V35.3194H226.846C227.388 35.3194 227.774 35.242 228.084 35.0099C228.316 34.8552 228.471 34.6231 228.548 34.3136C228.548 34.1588 228.625 33.6946 228.625 32.9982V27.5822C228.625 26.5764 228.471 25.8027 228.239 25.4158C227.852 24.7968 227.31 24.5647 226.536 24.5647C226.072 24.5647 225.531 24.7195 225.066 24.9516C224.602 25.1837 223.983 25.6479 223.287 26.3443V26.499V27.118V33.153C223.287 34.0041 223.364 34.5457 223.442 34.7778C223.519 35.0099 223.751 35.1647 223.983 35.3194C224.215 35.4741 224.68 35.5515 225.376 35.5515V36.0158H218.954V35.5515C219.65 35.5515 220.115 35.4741 220.424 35.3194C220.656 35.1647 220.888 34.9325 220.966 34.5457C221.043 34.3909 221.043 33.9267 221.043 33.153V27.737C221.043 26.7311 220.888 25.9574 220.579 25.4932C220.192 24.8742 219.573 24.6421 218.877 24.6421C218.412 24.6421 217.871 24.7968 217.407 25.0289C216.633 25.4158 216.091 25.88 215.627 26.4216V33.2304C215.627 34.0815 215.704 34.6231 215.782 34.8552C215.859 35.0873 216.091 35.3194 216.323 35.3968C216.555 35.5515 217.02 35.5515 217.716 35.5515V36.0158H211.449V35.5515C211.991 35.5515 212.455 35.4742 212.687 35.3968C212.919 35.242 213.074 35.0873 213.228 34.7778C213.383 34.4683 213.383 34.0041 213.383 33.2304V28.4333C213.383 27.0406 213.306 26.1122 213.228 25.7253C213.151 25.4158 213.074 25.1837 212.919 25.1063C212.764 25.0289 212.609 24.9516 212.377 24.9516C212.145 24.9516 211.836 25.0289 211.449 25.1837L211.217 24.7195L215.008 23.172H215.627V25.5705H215.704Z" fill="#041815"/>
<path d="M245.028 23.2493V30.9091C245.028 32.3791 245.028 33.2302 245.105 33.6171C245.183 33.9266 245.26 34.1587 245.415 34.3134C245.569 34.4682 245.724 34.4682 245.956 34.4682C246.266 34.4682 246.575 34.3908 246.885 34.2361L247.039 34.7003L243.248 36.2477H242.629V33.5397C241.546 34.7003 240.695 35.474 240.153 35.7835C239.612 36.093 238.993 36.2477 238.374 36.2477C237.677 36.2477 237.058 36.0156 236.517 35.6288C235.975 35.2419 235.666 34.7003 235.434 34.0813C235.202 33.4623 235.124 32.5339 235.124 31.3733V25.7252C235.124 25.1062 235.047 24.7193 234.969 24.4872C234.815 24.2551 234.66 24.1003 234.428 23.9456C234.196 23.7909 233.732 23.7909 233.035 23.7909V23.2493H237.445V31.6828C237.445 32.8434 237.677 33.6171 238.064 34.0039C238.451 34.3908 238.993 34.5455 239.534 34.5455C239.921 34.5455 240.385 34.3908 240.85 34.1587C241.314 33.9266 241.933 33.4623 242.629 32.766V25.5704C242.629 24.8741 242.475 24.3325 242.242 24.1003C242.01 23.8682 241.469 23.7135 240.618 23.7135V23.1719H245.028V23.2493Z" fill="#041815"/>
<path d="M250.21 28.045C250.21 29.902 250.675 31.372 251.603 32.4552C252.532 33.5384 253.615 34.08 254.853 34.08C255.704 34.08 256.4 33.8479 257.019 33.3837C257.638 32.9195 258.18 32.1457 258.567 31.0625L259.031 31.372C258.876 32.61 258.257 33.7705 257.329 34.7764C256.4 35.7822 255.24 36.3238 253.847 36.3238C252.299 36.3238 251.062 35.7048 249.978 34.5443C248.895 33.3837 248.354 31.7589 248.354 29.7472C248.354 27.5808 248.895 25.8786 249.978 24.718C251.062 23.4801 252.454 22.9385 254.156 22.9385C255.549 22.9385 256.71 23.4027 257.638 24.3312C258.567 25.2596 259.031 26.4976 259.031 28.045H250.21ZM250.21 27.1939H256.091C256.013 26.4202 255.936 25.8012 255.781 25.4918C255.549 24.9501 255.24 24.5633 254.775 24.2538C254.311 23.9443 253.847 23.7896 253.383 23.7896C252.609 23.7896 251.913 24.0991 251.371 24.6407C250.675 25.337 250.288 26.1881 250.21 27.1939Z" fill="#041815"/>
<path d="M264.988 16.2861V33.0758C264.988 33.8495 265.065 34.3912 265.142 34.6233C265.22 34.8554 265.452 35.0875 265.684 35.2422C265.916 35.397 266.38 35.4743 266.999 35.4743V35.9386H260.809V35.4743C261.351 35.4743 261.815 35.397 261.97 35.3196C262.202 35.1649 262.357 35.0101 262.434 34.7006C262.589 34.3911 262.589 33.9269 262.589 33.0758V21.6248C262.589 20.2321 262.589 19.3036 262.512 18.9941C262.434 18.6847 262.357 18.4525 262.202 18.2978C262.047 18.1431 261.893 18.1431 261.661 18.1431C261.428 18.1431 261.119 18.2204 260.732 18.3752L260.5 17.9109L264.291 16.3635H264.988V16.2861Z" fill="#041815"/>
<path d="M81.3086 0.0397249C71.7918 -0.347135 64.132 2.12877 58.0196 5.84262L57.8649 9.94333L57.3233 6.22948C42.6226 15.5915 37.3613 32.2264 37.3613 32.2264C44.4022 20.3885 69.4707 3.05723 76.9757 2.51563C62.7393 7.85429 45.7949 23.6382 38.9861 33.0002C44.8664 30.06 51.1335 26.3462 56.4722 22.8644L52.4488 21.3944L57.1685 22.4002C60.4182 20.2338 64.6736 17.2163 67.459 15.1273L61.8108 12.8835L68.7743 13.8893C71.3276 11.8776 74.1903 9.4791 76.0473 7.69954L71.0181 6.46159L76.4341 7.08057C79.9159 3.59883 81.7728 0.968188 81.3086 0.0397249Z" fill="#041815"/>
<path d="M44.0155 24.4891C44.0155 24.4891 35.2725 32.2263 32.5645 43.5999C36.7425 34.3153 42.7002 25.5723 56.0855 14.7402C52.1395 17.0614 47.1104 21.6263 44.0155 24.4891Z" fill="#041815"/>
<path d="M41.7063 10.8717C40.8552 10.717 39.5399 10.8717 39.3852 12.7287H37.9151C37.7603 12.4965 37.6056 12.2644 37.6056 12.2644C37.6056 12.2644 37.5282 9.63379 41.1647 9.63379C42.7895 9.78853 43.718 10.8717 43.4085 12.2644C43.099 13.6571 41.3968 13.8119 40.7005 13.3476C40.0815 12.8834 40.0041 11.2586 41.3968 11.1039C42.2479 11.0265 42.3253 11.9549 42.0932 12.1871C42.5574 12.0323 42.6348 11.0265 41.7063 10.8717Z" fill="#041815"/>
<path d="M24.218 9.55664C27.8545 9.55664 27.7771 12.1873 27.7771 12.1873C27.7771 12.1873 27.6997 12.4194 27.4676 12.6515H25.9975C25.8428 10.872 24.4501 10.7172 23.6764 10.7946C22.7479 10.9493 22.8253 11.9552 23.1348 12.1099C22.9027 11.8778 22.98 10.9493 23.8311 11.0267C25.2238 11.1815 25.2238 12.7289 24.5275 13.2705C23.9085 13.7347 22.1289 13.6574 21.8195 12.1873C21.6647 10.7946 22.5932 9.71138 24.218 9.55664Z" fill="#041815"/>
<path d="M39.225 10.0967H26.2266V12.6499H39.225V10.0967Z" fill="#041815"/>
<path d="M24.5273 14.4291C24.5273 15.0481 25.0689 15.5897 25.6879 15.5897H39.847C40.466 15.5897 41.0076 15.0481 41.0076 14.4291C41.0076 13.8102 40.5433 13.2686 39.847 13.2686H25.6106C24.9916 13.3459 24.5273 13.8102 24.5273 14.4291Z" fill="#041815"/>
<path d="M26.0723 8.6267C26.0723 9.09093 26.4591 9.55516 27.0007 9.55516H38.4518C38.916 9.55516 39.3802 9.16831 39.3802 8.6267C39.3802 8.16247 38.9934 7.69824 38.4518 7.69824H27.0007C26.5365 7.77561 26.0723 8.16247 26.0723 8.6267Z" fill="#041815"/>
<path d="M42.1624 16.209V19.536L41.2339 21.3929V19.536C41.2339 18.6075 40.5376 17.9112 39.6865 17.9112C38.8354 17.9112 38.1391 18.6075 38.1391 19.536V27.4279L36.5142 30.5228V19.536C36.5142 18.6075 35.8179 17.9112 34.9668 17.9112C34.1157 17.9112 33.4194 18.6075 33.4194 19.536V37.641L31.7946 40.8906V19.536C31.7946 18.6075 31.0982 17.9112 30.2471 17.9112C29.396 17.9112 28.6997 18.6075 28.6997 19.536V37.641C28.1581 36.4804 27.6938 35.3972 27.1522 34.314V19.536C27.1522 18.6075 26.4559 17.9112 25.6048 17.9112C24.7537 17.9112 24.0574 18.6075 24.0574 19.536V29.0527C23.7479 28.5111 23.4384 28.0469 23.1289 27.66V16.209H42.1624Z" fill="#041815"/>
<path d="M59.0248 28.7446C58.4058 30.292 56.8584 30.4468 56.8584 30.4468C56.8584 30.4468 55.7752 29.2862 56.3942 27.7387C57.0131 26.1913 59.0248 24.876 59.0248 24.876C59.0248 24.876 59.6438 27.1971 59.0248 28.7446Z" fill="#041815"/>
<path d="M59.0186 32.9985C57.4711 33.6948 56.3105 32.689 56.3105 32.689C56.3105 32.689 56.3879 31.1416 57.858 30.4452C59.4054 29.7489 61.7266 30.2131 61.7266 30.2131C61.7266 30.2131 60.566 32.3795 59.0186 32.9985Z" fill="#041815"/>
<path d="M53.4501 30.9098C54.1465 32.4573 55.6939 32.4573 55.6939 32.4573C55.6939 32.4573 56.6997 31.2193 56.0034 29.7493C55.307 28.2018 53.218 26.9639 53.218 26.9639C53.218 26.9639 52.7538 29.3624 53.4501 30.9098Z" fill="#041815"/>
<path d="M57.0147 36.7131C55.4672 37.2547 54.3066 36.0941 54.3066 36.0941C54.3066 36.0941 54.5388 34.5467 56.0862 34.0051C57.6336 33.4635 59.9548 34.1598 59.9548 34.1598C59.9548 34.1598 58.5621 36.1715 57.0147 36.7131Z" fill="#041815"/>
<path d="M51.6748 34.0055C52.2164 35.553 53.7639 35.7851 53.7639 35.7851C53.7639 35.7851 54.8471 34.7019 54.3829 33.0771C53.8413 31.5296 51.907 30.0596 51.907 30.0596C51.907 30.0596 51.1332 32.4581 51.6748 34.0055Z" fill="#041815"/>
<path d="M54.5369 39.9646C52.9121 40.3515 51.9062 39.1136 51.9062 39.1136C51.9062 39.1136 52.2931 37.5661 53.8405 37.1793C55.4654 36.7924 57.7091 37.7209 57.7091 37.7209C57.7091 37.7209 56.0843 39.5778 54.5369 39.9646Z" fill="#041815"/>
<path d="M49.4302 36.8698C49.8171 38.4946 51.3645 38.8041 51.3645 38.8041C51.3645 38.8041 52.6025 37.7983 52.2156 36.1734C51.8288 34.5486 49.9718 32.9238 49.9718 32.9238C49.9718 32.9238 49.0434 35.245 49.4302 36.8698Z" fill="#041815"/>
<path d="M51.4427 43.0617C49.8179 43.2164 48.9668 41.8237 48.9668 41.8237C48.9668 41.8237 49.5084 40.3537 51.2106 40.1989C52.8354 40.0442 54.9244 41.2821 54.9244 41.2821C54.9244 41.2821 53.0675 42.9069 51.4427 43.0617Z" fill="#041815"/>
<path d="M46.8779 39.1914C47.0326 40.8162 48.5027 41.4352 48.5027 41.4352C48.5027 41.4352 49.818 40.5841 49.7406 38.9593C49.5859 37.3345 48.0385 35.4775 48.0385 35.4775C48.0385 35.4775 46.7231 37.5666 46.8779 39.1914Z" fill="#041815"/>
<path d="M48.2684 45.688C46.6436 45.688 45.9473 44.2179 45.9473 44.2179C45.9473 44.2179 46.6436 42.8252 48.3458 42.8252C49.9706 42.8252 51.9823 44.2953 51.9823 44.2953C51.9823 44.2953 49.8932 45.688 48.2684 45.688Z" fill="#041815"/>
<path d="M44.168 41.354C44.168 42.9788 45.5607 43.7526 45.5607 43.7526C45.5607 43.7526 46.9534 43.0562 47.0307 41.4314C47.0307 39.8066 45.7154 37.7949 45.7154 37.7949C45.7154 37.7949 44.168 39.7292 44.168 41.354Z" fill="#041815"/>
<path d="M44.632 47.7788C43.0072 47.5467 42.543 45.9993 42.543 45.9993C42.543 45.9993 43.4714 44.684 45.0962 44.9934C46.7211 45.2256 48.5006 46.9277 48.5006 46.9277C48.5006 46.9277 46.3342 48.0883 44.632 47.7788Z" fill="#041815"/>
<path d="M41.1501 42.9813C40.918 44.6061 42.1559 45.5346 42.1559 45.5346C42.1559 45.5346 43.626 45.0703 43.9355 43.4455C44.1676 41.8207 43.0844 39.6543 43.0844 39.6543C43.0844 39.6543 41.3822 41.3565 41.1501 42.9813Z" fill="#041815"/>
<path d="M40.8405 49.5557C39.2157 49.0915 38.9062 47.5441 38.9062 47.5441C38.9062 47.5441 39.9895 46.3835 41.5369 46.7704C43.1617 47.2346 44.7091 49.0915 44.7091 49.0915C44.7091 49.0915 42.388 49.9426 40.8405 49.5557Z" fill="#041815"/>
<path d="M37.8229 44.3724C37.3587 45.9972 38.5966 47.0031 38.5966 47.0031C38.5966 47.0031 40.1441 46.6936 40.6083 45.0688C41.0725 43.444 40.2214 41.2002 40.2214 41.2002C40.2214 41.2002 38.2871 42.7476 37.8229 44.3724Z" fill="#041815"/>
<path d="M3.39424 28.7455C4.01322 30.293 5.56065 30.4477 5.56065 30.4477C5.56065 30.4477 6.64386 29.2871 6.02488 27.7397C5.40591 26.1923 3.39424 24.877 3.39424 24.877C3.39424 24.877 2.77527 27.1981 3.39424 28.7455Z" fill="#041815"/>
<path d="M3.3877 32.9995C4.93514 33.6958 6.09572 32.69 6.09572 32.69C6.09572 32.69 6.01835 31.1425 4.54828 30.4462C3.00084 29.7499 0.679688 30.2141 0.679688 30.2141C0.679688 30.2141 1.84027 32.3805 3.3877 32.9995Z" fill="#041815"/>
<path d="M8.95509 30.9108C8.25874 32.4583 6.71131 32.4583 6.71131 32.4583C6.71131 32.4583 5.70547 31.2203 6.40182 29.7502C7.09817 28.2028 9.18721 26.9648 9.18721 26.9648C9.18721 26.9648 9.57407 29.3634 8.95509 30.9108Z" fill="#041815"/>
<path d="M5.40498 36.7141C6.95241 37.2557 8.11299 36.0951 8.11299 36.0951C8.11299 36.0951 7.88088 34.5477 6.33344 34.006C4.786 33.4644 2.46484 34.1608 2.46484 34.1608C2.46484 34.1608 3.85754 36.1725 5.40498 36.7141Z" fill="#041815"/>
<path d="M10.7436 34.0065C10.202 35.554 8.65455 35.7861 8.65455 35.7861C8.65455 35.7861 7.57135 34.7029 8.03558 33.0781C8.57718 31.5306 10.5115 30.0605 10.5115 30.0605C10.5115 30.0605 11.2852 32.4591 10.7436 34.0065Z" fill="#041815"/>
<path d="M7.87537 39.9646C9.50018 40.3515 10.506 39.1136 10.506 39.1136C10.506 39.1136 10.1192 37.5661 8.57172 37.1793C6.94691 36.7924 4.70312 37.7209 4.70312 37.7209C4.70312 37.7209 6.25056 39.5778 7.87537 39.9646Z" fill="#041815"/>
<path d="M12.9833 36.8698C12.5965 38.4946 11.049 38.8041 11.049 38.8041C11.049 38.8041 9.81107 37.7983 10.1979 36.1734C10.5848 34.5486 12.4417 32.9238 12.4417 32.9238C12.4417 32.9238 13.3702 35.245 12.9833 36.8698Z" fill="#041815"/>
<path d="M10.9759 43.0627C12.6007 43.2174 13.4518 41.8247 13.4518 41.8247C13.4518 41.8247 12.9102 40.3547 11.208 40.1999C9.58318 40.0452 7.49414 41.2831 7.49414 41.2831C7.49414 41.2831 9.35107 42.9079 10.9759 43.0627Z" fill="#041815"/>
<path d="M15.5379 39.1924C15.3832 40.8172 13.9131 41.4362 13.9131 41.4362C13.9131 41.4362 12.5978 40.5851 12.6752 38.9603C12.8299 37.3354 14.3773 35.4785 14.3773 35.4785C14.3773 35.4785 15.6927 37.5676 15.5379 39.1924Z" fill="#041815"/>
<path d="M14.1435 45.6909C15.7683 45.6909 16.4647 44.2208 16.4647 44.2208C16.4647 44.2208 15.7683 42.8281 14.0662 42.8281C12.4414 42.8281 10.4297 44.2982 10.4297 44.2982C10.4297 44.2982 12.4414 45.6909 14.1435 45.6909Z" fill="#041815"/>
<path d="M18.2456 41.357C18.2456 42.9818 16.8529 43.7555 16.8529 43.7555C16.8529 43.7555 15.4602 43.0591 15.3828 41.4343C15.3828 39.8095 16.6981 37.7979 16.6981 37.7979C16.6981 37.7979 18.2456 39.7322 18.2456 41.357Z" fill="#041815"/>
<path d="M17.7084 47.7808C19.3332 47.5487 19.7975 46.0012 19.7975 46.0012C19.7975 46.0012 18.869 44.6859 17.2442 44.9954C15.6194 45.2275 13.8398 46.9297 13.8398 46.9297C13.8398 46.9297 16.0836 48.0903 17.7084 47.7808Z" fill="#041815"/>
<path d="M21.2653 42.9832C21.4974 44.6081 20.2594 45.5365 20.2594 45.5365C20.2594 45.5365 18.7894 45.0723 18.4799 43.4475C18.2478 41.8227 19.331 39.6562 19.331 39.6562C19.331 39.6562 20.9558 41.3584 21.2653 42.9832Z" fill="#041815"/>
<path d="M21.5737 49.5577C23.1985 49.0935 23.508 47.546 23.508 47.546C23.508 47.546 22.4248 46.3855 20.8773 46.7723C19.2525 47.2365 17.7051 49.0935 17.7051 49.0935C17.7051 49.0935 20.0262 49.9446 21.5737 49.5577Z" fill="#041815"/>
<path d="M24.5919 44.3734C25.0561 45.9982 23.8182 47.0041 23.8182 47.0041C23.8182 47.0041 22.2708 46.6946 21.8065 45.0698C21.3423 43.445 22.1934 41.2012 22.1934 41.2012C22.1934 41.2012 24.1277 42.7486 24.5919 44.3734Z" fill="#041815"/>
<path d="M23.2045 31.2961C16.7053 24.8742 6.33743 18.1428 2.70095 17.9107C9.81916 20.6187 18.098 27.5048 23.2045 33.0756C23.514 33.4625 23.8235 33.772 24.133 34.0815C25.0614 35.0873 25.8351 36.0931 26.4541 36.9442C25.6804 36.5574 24.9067 36.1705 24.133 35.7063C23.8235 35.5515 23.514 35.3968 23.2045 35.1647C20.5739 33.6946 17.8658 32.0698 15.4673 30.5223L18.0206 29.5939L15.0805 30.2129C13.0688 28.8202 10.3608 26.9632 8.65858 25.6479L12.2177 24.2552L7.88487 24.8742C6.26006 23.5589 4.4805 22.0888 3.31992 21.0056L6.49217 20.2319L3.08781 20.6187C0.921395 18.4523 -0.316555 16.8275 0.0703043 16.2085C6.02794 15.9764 10.825 17.5239 14.6162 19.845L14.6936 22.3983L15.0805 20.0771C18.7169 22.3983 21.3476 25.3384 23.3592 28.1238C23.6687 28.588 23.9782 29.0523 24.2877 29.5165C25.9899 32.1471 26.9184 34.4683 27.3826 35.6289C27.5373 36.0157 27.6147 36.3252 27.6147 36.3252C27.5373 36.1705 27.46 36.0157 27.3826 35.9384C26.6089 34.7004 25.5257 33.4625 24.2877 32.1472C23.9008 31.9924 23.5914 31.6829 23.2045 31.2961Z" fill="#041815"/>
<path d="M30.476 43.5992C30.0118 42.516 29.4702 41.3554 28.8512 40.2722C28.387 39.4211 27.8454 38.4926 27.3038 37.6415C26.4527 36.3262 25.4469 34.9335 24.2089 33.5408C23.8994 33.154 23.59 32.8445 23.2805 32.4576C21.2688 30.2138 18.8703 27.97 15.7754 25.4941C18.2513 26.9642 21.3462 29.7496 23.2805 31.5292L23.3578 31.6065C23.3578 31.6065 23.6673 31.916 24.2089 32.4576C24.9826 33.2313 26.1432 34.5467 27.3038 36.3262C27.8454 37.1773 28.387 38.1058 28.8512 39.1116C29.4702 40.5043 30.0892 41.9743 30.476 43.5992Z" fill="#041815"/>
</svg>
