<svg width="140" height="72" viewBox="0 0 140 72" fill="none" xmlns="http://www.w3.org/2000/svg">
<g clip-path="url(#clip0_985_501)">
<path d="M22.4447 0.0291861C21.9173 0.146022 21.2141 0.671783 20.3057 1.63568C19.3974 2.59957 18.5184 3.65109 17.698 4.81945C16.8775 5.98781 16.1743 7.06854 15.6176 8.12006C15.0609 9.17158 14.9144 9.78497 15.1195 10.0186C15.3832 10.3399 15.6762 10.5152 15.9399 10.5444C16.2036 10.5736 16.438 10.5152 16.6431 10.3691C16.8482 10.2231 16.9947 10.1063 17.1412 9.98943C17.2877 9.87259 17.3463 9.87259 17.3463 9.98943C16.145 13.4069 15.0609 16.503 14.0646 19.2779C13.0684 22.0527 11.955 25.2073 10.7536 28.7708C9.55229 32.3051 8.35095 35.9562 7.14961 39.6657C5.97757 43.3752 4.83484 46.9971 3.8093 50.5606C2.75447 54.0949 1.90474 57.2495 1.23082 59.9951C0.556894 62.7408 0.175982 64.9606 0.0294767 66.684C-0.117028 68.3781 0.146681 69.2544 0.820603 69.2544C1.20152 69.2544 1.49453 69.1667 1.64103 68.9915C2.63726 64.318 4.04371 58.856 5.86037 52.5761C7.41332 47.26 9.43509 40.7756 11.955 33.2105C14.4749 25.6162 17.5808 17.0288 21.3313 7.38984C22.4447 4.52736 23.0307 2.57036 23.1186 1.48963C23.2065 0.379693 22.9721 -0.0876496 22.4447 0.0291861Z" fill="#363840"/>
<path d="M54.0902 39.5193C54.0902 39.5193 54.0609 39.5192 54.0316 39.5485C53.9437 39.6069 53.8265 39.7529 53.6214 39.9866C53.387 40.2787 53.0647 40.6876 52.7131 41.1842C52.3615 41.6807 51.9513 42.2065 51.4824 42.7614C51.0136 43.3164 50.5448 43.8422 50.0467 44.3387C48.1714 46.2665 46.765 47.3765 45.8567 47.6685C44.9483 47.9606 44.333 47.727 44.04 46.9383C43.747 46.1497 43.6298 44.9229 43.747 43.3164C43.8642 41.7099 44.0107 39.9574 44.2451 38.1172C44.4795 36.2771 44.6553 34.4369 44.8311 32.6259C45.0069 30.815 44.9483 29.2961 44.6553 28.0986C44.3623 26.901 43.8349 26.1124 42.9852 25.7618C42.1647 25.4113 40.8755 25.7618 39.1467 26.8426C37.418 27.9233 35.1325 29.8511 32.2903 32.6552C29.4481 35.4592 25.9027 39.3732 21.6541 44.4556C21.5369 42.5862 21.4783 40.9505 21.449 39.5777C21.4197 38.2048 21.2439 37.2117 20.9215 36.5984C20.5992 35.985 20.0132 35.8681 19.1928 36.2186C18.3724 36.5691 17.1124 37.5623 15.4716 39.1395C15.706 38.3801 15.9111 37.6207 16.1455 36.9197C16.3799 36.1894 16.5264 35.576 16.585 35.0211C16.6729 34.4661 16.6143 34.0572 16.4092 33.7359C16.2041 33.4438 15.8525 33.2977 15.2958 33.3562C15.0613 33.4146 14.7976 33.7067 14.5046 34.2616C14.2116 34.8166 13.8893 35.4884 13.5963 36.2771C13.3033 37.0657 13.0103 37.942 12.7173 38.8767C12.4243 39.8113 12.2485 40.6876 12.1313 41.5055C12.014 42.3233 12.0433 42.9951 12.1606 43.5209C12.3071 44.0466 12.6001 44.3095 13.0396 44.3095C13.4791 44.3095 14.153 43.9006 15.032 43.0827C15.9111 42.2649 17.2589 40.9797 19.0756 39.198C18.9584 40.5708 18.8705 41.7391 18.8412 42.6738C18.8119 43.6085 18.7826 44.3679 18.8119 44.9813C18.8412 45.5947 18.9291 46.0913 19.1049 46.471C19.2807 46.8507 19.5151 47.172 19.8374 47.3765C20.1011 47.6101 20.4234 47.6978 20.7457 47.6978C21.1853 47.6978 22.0057 47.0844 23.2363 45.8868C24.4377 44.6892 25.8441 43.2288 27.4557 41.5055C29.0672 39.8113 30.7374 38.0004 32.4954 36.1602C34.2535 34.2909 35.865 32.6844 37.3301 31.3408C38.7951 29.9971 39.9965 29.0917 40.9341 28.6243C41.8717 28.157 42.3405 28.4491 42.3405 29.5006C42.3405 30.4353 42.1647 32.3923 41.8424 35.3424C41.2271 40.0158 41.0806 43.5209 41.4029 45.8284C41.6959 48.1359 42.2819 49.6547 43.1024 50.3558C43.9228 51.086 44.919 51.1444 46.0911 50.5602C47.2631 49.976 48.4058 49.129 49.5486 48.0483C50.369 47.2596 51.1601 46.4418 51.8634 45.5655C52.1564 45.215 52.4201 44.8645 52.6838 44.514C53.6214 43.258 54.2953 42.2357 54.6763 41.447C54.8521 41.1257 54.94 40.8044 54.9986 40.4539C55.0572 40.1034 54.7642 39.7821 54.0902 39.5193Z" fill="#363840"/>
<path d="M69.385 39.5193C69.2678 39.49 68.9748 39.7237 68.5353 40.2495C68.4181 40.3955 68.2716 40.5708 68.1251 40.7752C67.4512 41.6807 66.7479 42.6738 65.9861 43.7838C65.2243 44.8937 64.4332 45.8576 63.6713 46.7046C62.9095 47.5517 62.3528 47.873 62.0012 47.6393C61.6496 47.4057 61.5324 46.9675 61.591 46.2665C61.6496 45.5947 61.8254 44.7769 62.1184 43.8422C62.4114 42.9075 62.7923 41.9144 63.2025 40.8629C63.6127 39.8113 64.0229 38.8474 64.4332 37.9712C64.8434 37.0949 65.3122 36.0726 65.8689 34.9042C65.8689 34.6706 65.6638 34.4077 65.2829 34.0864C64.902 33.7651 64.5797 33.5898 64.2867 33.5898C64.0522 33.5898 63.8178 33.6775 63.5834 33.8819C63.3197 34.0864 63.0853 34.2909 62.8509 34.5245C62.5872 34.7874 62.3528 34.9919 62.0891 35.1963C61.8547 35.4008 61.6496 35.4884 61.4738 35.4884C61.1808 35.4884 60.9463 35.3716 60.7412 35.1671C60.5068 34.9335 60.1552 34.8458 59.6571 34.8458C58.8953 34.8458 58.0748 35.1671 57.2251 35.7805C56.3754 36.4231 55.5843 37.2117 54.881 38.1756C54.5587 38.5846 54.2657 39.0227 54.002 39.4608C53.6504 40.045 53.3281 40.6584 53.0058 41.301C52.4784 42.4401 52.1268 43.4625 51.9216 44.4264C51.863 44.7769 51.8044 45.1274 51.8044 45.4487C51.7751 45.9744 51.863 46.4418 52.0095 46.8215C52.2733 47.4641 52.8007 47.7562 53.6211 47.7562C54.1192 47.7562 54.6466 47.5809 55.2034 47.2304C55.7601 46.8799 56.2875 46.4418 56.8149 45.9452C57.3423 45.4487 57.8404 44.9229 58.3093 44.3679C58.7781 43.813 59.1883 43.3456 59.5106 42.9659C59.3348 44.5724 59.2469 45.8576 59.1883 46.8799C59.1297 47.9022 59.4813 48.7785 60.2724 49.5671C60.9463 50.2389 61.6496 50.4434 62.4114 50.2389C63.1732 50.0053 63.9643 49.5671 64.7262 48.8369C65.488 48.1359 66.2205 47.2596 66.9237 46.2373C67.0409 46.0913 67.1288 45.916 67.2167 45.77C67.7735 44.9229 68.2423 44.0758 68.5939 43.258C69.0334 42.2941 69.3264 41.447 69.5022 40.6876C69.7366 40.045 69.678 39.6361 69.385 39.5193ZM59.5106 38.7306C59.0418 39.5193 58.4558 40.3663 57.7232 41.301C56.9907 42.2065 56.3168 42.9951 55.6136 43.6961C54.9396 44.3971 54.588 44.6016 54.588 44.3095C54.588 43.9298 54.7931 43.3748 55.2034 42.6154C55.6136 41.8852 56.0824 41.1257 56.6098 40.3955C57.1372 39.6653 57.6646 38.9935 58.2214 38.4093C58.7781 37.8251 59.1883 37.533 59.452 37.533C59.9501 37.533 59.9794 37.942 59.5106 38.7306Z" fill="#363840"/>
<path d="M77.3846 33.9984C76.74 34.0569 76.2419 34.3782 75.861 34.9916C75.5972 35.5465 75.3628 35.8094 75.1577 35.8094C74.9526 35.8094 74.7475 35.751 74.5424 35.6049C74.308 35.4589 74.015 35.3421 73.6341 35.2252C73.2532 35.1084 72.6965 35.2544 71.9639 35.6341C71.2607 35.9554 70.6161 36.5688 70.0301 37.4451C69.4733 38.2922 68.9752 39.2268 68.565 40.2492C68.565 40.2784 68.5357 40.3076 68.5357 40.3368C68.1255 41.3883 67.8032 42.3814 67.5981 43.3453C67.3637 44.3092 67.2758 45.0394 67.2758 45.536C67.2758 45.6236 67.2758 45.7404 67.3051 45.8573C67.3344 46.1201 67.393 46.4122 67.4809 46.7335C67.6274 47.2009 67.8618 47.5514 68.2134 47.8143C68.565 48.0479 69.0338 48.1064 69.5906 47.9311C70.1473 47.7559 70.8212 47.2301 71.6709 46.3538C72.169 45.8573 72.5207 45.5068 72.6965 45.2731C72.9016 45.0394 72.9309 45.1855 72.8137 45.6528C72.6965 46.1202 72.4327 46.9964 71.9932 48.2524C71.5537 49.5084 70.9677 51.3486 70.2645 53.7729C69.2682 56.9567 68.5943 59.1181 68.1841 60.2573C67.8032 61.3672 67.5688 61.8638 67.5102 61.6885C67.4516 61.5133 67.5102 60.9291 67.7153 59.8776C67.9204 58.826 68.0669 57.7161 68.1548 56.5477C68.272 55.3794 68.3013 54.2694 68.2427 53.2763C68.1841 52.2832 67.9204 51.7867 67.4223 51.7867C67.1586 51.7867 66.8656 52.254 66.6019 53.1887C66.3381 54.1234 66.0744 55.2918 65.8107 56.6938C65.5763 58.0958 65.3419 59.6147 65.1368 61.2796C64.9317 62.9153 64.7852 64.4926 64.6973 65.953C64.5801 67.4135 64.5215 68.6694 64.5215 69.6918C64.5215 70.7433 64.6094 71.3567 64.7559 71.5027C65.0782 71.9408 65.4884 72.0869 65.9865 71.97C66.4846 71.824 66.8949 71.4443 67.2172 70.8601C67.3344 70.6849 67.686 69.7502 68.2427 68.0268C68.8287 66.3035 69.532 64.1713 70.3524 61.6301C71.1728 59.0889 72.0518 56.3725 72.9895 53.4516C73.9271 50.5307 74.7768 47.7851 75.5679 45.1563C76.3298 42.5567 76.9744 40.3076 77.5018 38.4382C78.0292 36.5688 78.2929 35.4297 78.2929 35.05C78.3222 34.2905 77.9999 33.94 77.3846 33.9984ZM73.0188 39.1392C72.7551 39.9279 72.3741 40.7457 71.9053 41.5636C71.4365 42.3814 70.997 43.024 70.5868 43.4621C70.1766 43.9003 70.0594 43.7834 70.2938 43.1408C70.411 42.7611 70.5868 42.2646 70.8212 41.6512C71.0556 41.0378 71.3193 40.4828 71.6123 39.9279C71.876 39.3729 72.1397 38.9055 72.3448 38.5258C72.5792 38.1461 72.7258 37.9416 72.843 37.9416C73.2532 37.9416 73.3118 38.3506 73.0188 39.1392Z" fill="#363840"/>
<path d="M88.2549 39.5207C88.1963 39.5207 88.0205 39.7836 87.6689 40.3094C87.3466 40.8351 86.7019 41.653 85.7643 42.7337C85.0318 43.5516 84.4165 44.1942 83.8597 44.6615C83.303 45.1288 82.8342 45.4794 82.424 45.6838C82.0138 45.9175 81.6622 46.0343 81.3399 46.0635C81.0468 46.0927 80.7831 46.0927 80.5487 46.0927C80.3143 45.8299 80.2264 45.5086 80.2557 45.1873C80.285 44.866 80.4315 44.4278 80.7245 43.8729C80.9882 43.3179 81.4864 42.6461 82.2189 41.8282C83.3323 40.5723 84.0648 39.4915 84.5044 38.5568C84.9146 37.6514 85.1197 36.9211 85.1197 36.337C85.1197 35.7528 84.9732 35.3439 84.6509 35.1102C84.3579 34.8765 84.0355 34.7305 83.7132 34.7305C82.9514 34.7305 82.1017 35.2854 81.1934 36.3662C80.285 37.4761 79.5232 38.7321 78.9079 40.1633C78.2926 41.5946 77.9409 43.0258 77.7944 44.457C77.6479 45.8883 77.9409 46.969 78.6735 47.67C79.2302 48.2834 79.9334 48.4879 80.7831 48.3418C81.6329 48.1666 82.4826 47.8161 83.3616 47.2319C84.2113 46.6477 85.0318 45.9467 85.8522 45.0996C86.6433 44.2526 87.3172 43.4055 87.8447 42.5877C88.3721 41.7698 88.6944 41.0688 88.7823 40.4846C88.8702 39.8712 88.6944 39.5792 88.2549 39.5207Z" fill="#363840"/>
<path d="M105.454 37.5046C105.278 37.2417 105.014 37.0373 104.721 36.8912C105.219 36.5992 105.454 36.1318 105.454 35.5476C105.454 35.0803 105.278 34.6714 104.956 34.3501C104.633 33.9996 104.223 33.8535 103.754 33.8535H101.205V40.1919H103.989C104.487 40.1919 104.897 40.0166 105.249 39.6661C105.6 39.3156 105.776 38.9067 105.776 38.4101C105.717 38.0888 105.63 37.7675 105.454 37.5046ZM101.82 34.4669H103.754C104.047 34.4669 104.311 34.5837 104.516 34.7882C104.721 34.9927 104.838 35.2555 104.838 35.5768C104.838 35.8689 104.721 36.1318 104.516 36.3655C104.311 36.5699 104.047 36.6868 103.754 36.6868H101.82V34.4669ZM104.75 39.2572C104.516 39.4908 104.252 39.6077 103.959 39.6077H101.82V37.271H103.959C104.282 37.271 104.545 37.3878 104.75 37.6215C104.985 37.8551 105.073 38.118 105.073 38.4393C105.073 38.7606 104.985 39.0235 104.75 39.2572Z" fill="#363840"/>
<path d="M108.912 39.6077V37.3002H111.725V36.716H108.912V34.4669H111.93V33.8535H108.268V40.1919H111.989V39.6077H108.912Z" fill="#363840"/>
<path d="M117.086 33.8535H116.442L114.01 40.1919H114.684L115.27 38.6438L115.504 38.0596L116.793 34.6714L118.083 38.0596L118.317 38.6438L118.903 40.1919H119.577L117.086 33.8535Z" fill="#363840"/>
<path d="M125.612 33.8535V38.0304C125.612 38.5269 125.465 38.9359 125.143 39.228C124.85 39.52 124.411 39.6661 123.883 39.6661C123.356 39.6661 122.916 39.52 122.623 39.228C122.33 38.9359 122.184 38.5269 122.184 38.0304V33.8535H121.539V38.0304C121.539 38.7314 121.744 39.2572 122.184 39.6661C122.623 40.075 123.18 40.2795 123.883 40.2795C124.586 40.2795 125.143 40.075 125.583 39.6661C126.022 39.2572 126.227 38.7022 126.227 38.0304V33.8535H125.612Z" fill="#363840"/>
<path d="M128.514 33.8535V34.4669H130.477V40.1919H131.121V34.4669H133.085V33.8535H128.514Z" fill="#363840"/>
<path d="M139.266 33.8534L137.391 36.9496L135.486 33.8534H134.783L137.069 37.563V40.1626H137.713V37.563L139.999 33.8242H139.266V33.8534Z" fill="#363840"/>
<path d="M102.905 43.6973H102.553L101.205 47.2023H101.586L101.908 46.3261L102.026 46.0048L102.729 44.1354L103.432 46.0048L103.549 46.3261L103.871 47.2023H104.252L102.905 43.6973Z" fill="#363840"/>
<path d="M107.739 46.7348C107.534 46.8517 107.27 46.9393 107.006 46.9393C106.567 46.9393 106.215 46.7932 105.922 46.5011C105.629 46.2091 105.512 45.8586 105.512 45.4496C105.512 45.0407 105.658 44.6902 105.922 44.3981C106.215 44.106 106.567 43.96 107.006 43.96C107.27 43.96 107.504 44.0184 107.739 44.1644C107.944 44.2813 108.12 44.4565 108.237 44.6902L108.559 44.5149C108.413 44.2521 108.207 44.0476 107.944 43.8723C107.68 43.7263 107.387 43.6387 107.035 43.6387C106.508 43.6387 106.068 43.8139 105.717 44.1644C105.365 44.5149 105.189 44.9531 105.189 45.4496C105.189 45.9462 105.365 46.3843 105.717 46.7348C106.068 47.0853 106.508 47.2606 107.035 47.2606C107.358 47.2606 107.651 47.173 107.944 47.0269C108.207 46.8809 108.413 46.6472 108.559 46.3843L108.237 46.2091C108.12 46.4427 107.944 46.618 107.739 46.7348Z" fill="#363840"/>
<path d="M111.227 43.6973H110.875L109.527 47.2023H109.908L110.231 46.3261L110.348 46.0048L111.051 44.1354L111.754 46.0048L111.871 46.3261L112.194 47.2023H112.575L111.227 43.6973Z" fill="#363840"/>
<path d="M116.383 44.1938C116.061 43.8433 115.68 43.6973 115.182 43.6973H113.834V47.2023H115.182C115.651 47.2023 116.061 47.0271 116.383 46.7058C116.705 46.3845 116.852 45.9464 116.852 45.4498C116.852 44.9532 116.705 44.5443 116.383 44.1938ZM116.149 46.4721C115.914 46.735 115.592 46.881 115.211 46.881H114.215V44.0478H115.211C115.592 44.0478 115.914 44.1938 116.149 44.4567C116.383 44.7196 116.53 45.0701 116.53 45.479C116.53 45.8587 116.383 46.18 116.149 46.4721Z" fill="#363840"/>
<path d="M118.609 46.8811V45.5959H120.162V45.2746H118.609V44.0479H120.309V43.7266H118.258V47.2316H120.309V46.9103H118.609V46.8811Z" fill="#363840"/>
<path d="M124.528 43.6973L123.356 45.6543L122.184 43.6973H121.744V47.2023H122.096V44.223L123.326 46.2676H123.385L124.616 44.223V47.2023H124.967V43.6973H124.528Z" fill="#363840"/>
<path d="M128.69 43.6973L127.635 45.4206L126.58 43.6973H126.17L127.43 45.7711V47.2315H127.781V45.8003L129.041 43.7265H128.69V43.6973Z" fill="#363840"/>
<path d="M95.5802 32.8887H95.0527V48.3986H95.5802V32.8887Z" fill="#363840"/>
</g>
<defs>
<clipPath id="clip0_985_501">
<rect width="140" height="72" fill="white"/>
</clipPath>
</defs>
</svg>
