<svg width="184" height="44" viewBox="0 0 184 44" fill="none" xmlns="http://www.w3.org/2000/svg">
<g clip-path="url(#clip0_985_409)">
<path d="M72.5292 41.4651V39.422L70.9668 36.5977H71.6879L72.3489 37.9197C72.5292 38.2802 72.7094 38.5807 72.8296 38.9412C72.9498 38.6408 73.1301 38.2802 73.3104 37.9197L74.0315 36.5977H74.7526L73.1301 39.3619V41.4651H72.5292Z" fill="#666666"/>
<path d="M78.4191 39.9628L77.9383 41.4651H77.2773L78.8998 36.5977H79.681L81.3636 41.4651H80.7026L80.1617 39.9628H78.4191ZM80.0415 39.482L79.5608 38.0999C79.4406 37.7995 79.3805 37.499 79.3204 37.1986C79.2604 37.499 79.1402 37.7995 79.0801 38.0999L78.5994 39.482H80.0415Z" fill="#666666"/>
<path d="M88.2125 41.3449C87.9721 41.4651 87.4914 41.5852 86.9505 41.5852C85.5684 41.5852 84.5469 40.744 84.5469 39.1215C84.5469 37.6192 85.5684 36.5977 87.0707 36.5977C87.6716 36.5977 88.0322 36.7178 88.2125 36.838L88.0322 37.3788C87.7918 37.2587 87.4313 37.1986 87.0707 37.1986C85.929 37.1986 85.1478 37.9197 85.1478 39.1816C85.1478 40.3834 85.8088 41.1045 87.0106 41.1045C87.3712 41.1045 87.7918 41.0444 88.0322 40.9242L88.2125 41.3449Z" fill="#666666"/>
<path d="M92.5404 36.5977V38.6408H94.8839V36.5977H95.5449V41.4651H94.8839V39.1816H92.5404V41.4651H91.9395V36.5977H92.5404Z" fill="#666666"/>
<path d="M100.412 37.1385H98.9102V36.5977H102.516V37.1385H101.013V41.4651H100.352V37.1385H100.412Z" fill="#666666"/>
<path d="M113.752 41.3449C113.511 41.4651 113.03 41.5852 112.49 41.5852C111.107 41.5852 110.086 40.744 110.086 39.1215C110.086 37.6192 111.107 36.5977 112.61 36.5977C113.211 36.5977 113.571 36.7178 113.752 36.838L113.571 37.2587C113.331 37.1385 112.97 37.0784 112.61 37.0784C111.468 37.0784 110.687 37.7995 110.687 39.0614C110.687 40.2632 111.348 40.9843 112.55 40.9843C112.91 40.9843 113.331 40.9242 113.571 40.8041L113.752 41.3449Z" fill="#666666"/>
<path d="M118.019 36.5977V38.6408H120.362V36.5977H121.023V41.4651H120.362V39.1816H118.019V41.4651H117.418V36.5977H118.019Z" fill="#666666"/>
<path d="M125.771 39.9628L125.29 41.4651H124.629L126.251 36.5977H127.033L128.715 41.4651H127.994L127.453 39.9628H125.771ZM127.393 39.482L126.912 38.0999C126.792 37.7995 126.732 37.499 126.672 37.1986C126.612 37.499 126.492 37.7995 126.432 38.0999L125.951 39.482H127.393Z" fill="#666666"/>
<path d="M132.26 36.6573C132.56 36.5972 133.041 36.5371 133.462 36.5371C134.123 36.5371 134.543 36.6573 134.844 36.9577C135.084 37.1981 135.204 37.4986 135.204 37.8591C135.204 38.5201 134.784 38.9408 134.303 39.121C134.663 39.2412 134.904 39.6018 135.024 40.0825C135.204 40.7435 135.324 41.2242 135.385 41.4045H134.724C134.663 41.2843 134.543 40.8637 134.423 40.2628C134.303 39.6018 134.002 39.3614 133.462 39.3013H132.861V41.4646H132.26V36.6573ZM132.921 38.8807H133.582C134.243 38.8807 134.663 38.5201 134.663 37.9793C134.663 37.3784 134.183 37.0779 133.522 37.0779C133.221 37.0779 132.981 37.0779 132.921 37.138V38.8807Z" fill="#666666"/>
<path d="M140.012 37.1385H138.51V36.5977H142.115V37.1385H140.613V41.4651H140.012V37.1385Z" fill="#666666"/>
<path d="M148.063 39.1816H146.201V40.9242H148.304V41.4651H145.6V36.5977H148.244V37.1385H146.261V38.7009H148.123V39.1816H148.063Z" fill="#666666"/>
<path d="M152.029 36.6573C152.33 36.5972 152.81 36.5371 153.231 36.5371C153.892 36.5371 154.313 36.6573 154.613 36.9577C154.854 37.1981 154.974 37.4986 154.974 37.8591C154.974 38.5201 154.553 38.9408 154.072 39.121C154.433 39.2412 154.673 39.6018 154.794 40.0825C154.974 40.7435 155.094 41.2242 155.154 41.4045H154.493C154.433 41.2843 154.313 40.8637 154.193 40.2628C154.072 39.6018 153.772 39.3614 153.231 39.3013H152.63V41.4646H152.029V36.6573ZM152.63 38.8807H153.291C153.952 38.8807 154.373 38.5201 154.373 37.9793C154.373 37.3784 153.892 37.0779 153.231 37.0779C152.931 37.0779 152.69 37.0779 152.63 37.138V38.8807Z" fill="#666666"/>
<path d="M158.701 40.683C159.001 40.8632 159.422 40.9834 159.842 40.9834C160.503 40.9834 160.864 40.6229 160.864 40.1421C160.864 39.6614 160.624 39.421 159.963 39.1807C159.181 38.8802 158.701 38.4596 158.701 37.7986C158.701 37.0174 159.302 36.4766 160.263 36.4766C160.744 36.4766 161.104 36.5967 161.345 36.7169L161.164 37.2578C160.984 37.1977 160.684 37.0174 160.263 37.0174C159.602 37.0174 159.362 37.438 159.362 37.7385C159.362 38.2192 159.662 38.3995 160.323 38.6999C161.164 39.0004 161.585 39.421 161.585 40.1421C161.585 40.8632 161.044 41.5242 159.903 41.5242C159.422 41.5242 158.941 41.4041 158.641 41.2238L158.701 40.683Z" fill="#666666"/>
<path d="M76.3757 24.1561H67.9629V22.1731L75.7748 10.9961H78.9596V21.8726H81.1229V24.1561H78.9596V27.7015H76.3757V24.1561ZM76.4959 21.8726V13.6401L71.0276 21.8726H76.4959Z" fill="#051A2D"/>
<path d="M89.4153 10.3359C92.7804 10.3359 94.6432 12.319 94.6432 14.7226C94.6432 16.7657 93.3813 18.0877 92.0593 18.5685V18.6886C93.8019 19.2295 94.9437 20.6717 94.9437 23.0152C94.9437 25.7193 93.0207 27.7625 89.4754 27.7625C86.2905 27.7625 83.7667 26.0799 83.6465 22.7749H86.2304C86.3506 24.3372 87.4923 25.5391 89.5354 25.5391C91.5185 25.5391 92.4799 24.3372 92.4799 22.7749C92.4799 20.5515 91.0377 19.7703 88.2735 19.7703H87.6726V17.607H88.2735C90.6772 17.607 92.1194 16.8859 92.1194 15.0832C92.1194 13.641 91.1579 12.6194 89.3552 12.6194C87.4923 12.6194 86.6511 13.7611 86.4708 14.9029H83.8869C84.0671 12.0185 86.3506 10.3359 89.4153 10.3359Z" fill="#051A2D"/>
<path d="M111.769 27.7017H105.279V11.5371H111.469C114.894 11.5371 116.697 13.3999 116.697 15.6834C116.697 17.6063 115.495 18.8082 113.932 19.4091C115.675 19.7095 117.057 21.4522 117.057 23.3751C117.057 25.8389 115.074 27.7017 111.769 27.7017ZM111.228 13.7004H107.923V18.3274H111.228C112.971 18.3274 113.993 17.4862 113.993 16.044C113.993 14.5417 112.911 13.7004 111.228 13.7004ZM111.409 20.4907H107.923V25.5384H111.529C113.332 25.5384 114.413 24.637 114.413 23.0747C114.413 21.4522 113.211 20.4907 111.409 20.4907Z" fill="#051A2D"/>
<path d="M129.436 13.7004H123.187V18.4476H128.775V20.6109H123.187V25.5384H129.436V27.7017H120.482V11.5371H129.436V13.7004Z" fill="#051A2D"/>
<path d="M135.927 11.5371V25.5384H141.396V27.7017H133.283V11.5371H135.927Z" fill="#051A2D"/>
<path d="M151.551 27.8826C146.984 27.8826 143.318 24.4574 143.318 19.5899C143.318 14.7826 147.044 11.3574 151.551 11.3574C156.178 11.3574 159.783 14.7826 159.783 19.5899C159.783 24.4574 156.118 27.8826 151.551 27.8826ZM151.551 25.539C154.736 25.539 157.079 23.1954 157.079 19.5899C157.079 15.9845 154.736 13.6409 151.551 13.6409C148.366 13.6409 146.022 15.9244 146.022 19.5899C146.022 23.2555 148.306 25.539 151.551 25.539Z" fill="#051A2D"/>
<path d="M161.645 11.5371H164.469L167.834 24.6971L171.439 11.5371H174.444L177.809 24.637L181.174 11.5371H183.999L179.191 27.7017H176.187L172.822 15.5031L169.216 27.7017H166.211L161.645 11.5371Z" fill="#051A2D"/>
<path d="M51.6786 0.721097L51.0777 0L50.5369 0.540823L50.1764 0.901372L29.4448 23.1352C29.3847 22.9549 29.3246 22.7747 29.2645 22.5944C28.7237 21.2724 28.1829 20.1306 27.7022 19.2293C26.921 17.8472 26.3201 17.1261 26.26 17.066L25.659 16.3449L11.5976 31.3677L10.0353 32.9301L1.62247 41.5833L1.3821 41.8236L0 43.2658H54.3227L54.563 42.7851C66.4011 19.049 51.8589 0.901372 51.6786 0.721097ZM26.6806 41.5232H4.02613L11.3573 33.9517L12.7995 32.4494L25.4788 18.8687C26.1398 19.8903 27.2815 21.8132 28.1228 24.3971C28.1829 24.5774 28.243 24.6976 28.243 24.8779C28.7838 26.8008 29.0843 28.7838 29.1444 30.7668C29.2044 32.3893 29.0242 34.0118 28.6636 35.6342C28.4833 36.5356 28.243 37.3769 27.9425 38.2782C27.6421 39.42 27.2214 40.5016 26.6806 41.5232ZM53.241 41.5232H28.6035C29.0843 40.4415 29.5049 39.3599 29.8054 38.2782C30.5265 35.8746 30.887 33.531 30.887 31.1274C30.887 30.9471 30.887 30.7668 30.887 30.5865V30.5265C30.887 30.3462 30.887 30.226 30.887 30.0457C30.887 29.8654 30.887 29.6251 30.8269 29.4448C30.8269 29.3246 30.8269 29.1443 30.7668 29.0242V28.9641C30.7668 28.7838 30.7668 28.6636 30.7067 28.4833C30.7067 28.3031 30.6466 28.1228 30.6466 28.0026V27.9425C30.6466 27.7622 30.5865 27.582 30.5865 27.4017C30.5865 27.4017 30.5865 27.3416 30.5865 27.2815C30.5265 27.0411 30.5265 26.8008 30.4664 26.5604C30.3462 26.0196 30.226 25.5389 30.1058 25.0581L50.9576 2.64402C50.9576 2.64402 50.9576 2.70411 51.0176 2.70411C51.258 3.06466 51.6186 3.5454 51.9791 4.2064C55.224 9.61463 61.8341 23.9164 53.241 41.5232Z" fill="#051A2D"/>
<path d="M53.241 41.5234H28.6035C29.0842 40.4417 29.5049 39.3601 29.8053 38.2784C47.7126 38.1582 58.9497 19.6501 51.9791 4.14648C55.224 9.61481 61.8341 23.9166 53.241 41.5234Z" fill="#0096FF"/>
<path d="M29.8047 38.3393C30.5258 35.9356 30.8863 33.5921 30.8863 31.1884C30.8863 31.0082 30.8863 30.8279 30.8863 30.6476C44.4069 28.4843 53.1202 15.5046 51.017 2.70508C51.2573 3.06563 51.6179 3.54636 51.9784 4.20736C58.8889 19.6509 47.6518 38.159 29.8047 38.3393Z" fill="#00AAFF"/>
<path d="M30.8261 30.5871V30.527C30.8261 30.3467 30.8261 30.2265 30.8261 30.0462C30.8261 29.866 30.8261 29.6256 30.766 29.4453C30.766 29.3251 30.766 29.1449 30.7059 29.0247V28.9646C30.7059 28.7843 30.7059 28.6641 30.6458 28.4839C30.6458 28.3036 30.5857 28.1233 30.5857 28.0031V27.943C30.5857 27.7628 30.5257 27.5825 30.5257 27.4022C30.5257 27.4022 30.5257 27.3421 30.5257 27.282C30.4656 27.0417 30.4656 26.8013 30.4055 26.5609C30.2853 26.0201 30.1651 25.5394 30.0449 25.0586L50.9567 2.64453C50.9567 2.64453 50.9567 2.70462 51.0168 2.70462C53.0599 15.444 44.3467 28.4238 30.8261 30.5871Z" fill="#00BEFF"/>
</g>
<defs>
<clipPath id="clip0_985_409">
<rect width="184" height="43.2658" fill="white"/>
</clipPath>
</defs>
</svg>
