<svg width="167" height="32" viewBox="0 0 167 32" fill="none" xmlns="http://www.w3.org/2000/svg">
<g clip-path="url(#clip0_985_449)">
<path d="M2.97362 0H0V31.0945H2.97362V0Z" fill="#041815"/>
<path d="M21.2183 0H26.9453V31.0945H21.2183V26.1752H9.28711V17.8417H19.8967V12.8123H9.28711V4.91932H21.2183V0Z" fill="#041815"/>
<path d="M37.739 25.845H33.2969V5.06641H37.7757C44.4204 5.06641 48.165 8.99452 48.165 15.5291C48.165 22.0638 44.3837 25.845 37.739 25.845Z" fill="#041815"/>
<path d="M68.9075 31.0941H40.1992C49.0099 30.2498 54.5901 24.3025 54.5901 15.4918C54.5901 7.0849 49.5606 1.2845 41.5208 -0.0371094H70.119C62.9236 1.50477 57.784 7.56214 57.784 15.6754C57.784 23.3847 62.3362 29.1851 68.9075 31.0941Z" fill="#041815"/>
<path d="M91.5215 0V31.0945H78.7459C83.4083 29.7362 87.006 26.4689 88.5846 21.5863H81.3157C79.8106 24.67 77.1306 26.1385 73.7532 26.1385C68.2465 26.1385 64.3184 22.0635 64.3184 15.7125C64.3184 9.28798 68.2465 5.28644 73.7532 5.28644C77.1306 5.28644 79.8473 6.7916 81.3157 9.80194H88.5846C86.8224 4.55221 82.7475 1.10134 77.4977 0H91.5215Z" fill="#041815"/>
<path d="M100.59 0.806493H97.7264V3.15602H100.296V3.92696H97.7264V6.34991H100.59V7.12085H96.8086V0.0722656H100.59V0.806493Z" fill="#041815"/>
<path d="M107.895 3.59656C107.895 5.76253 106.463 7.08414 104.187 7.08414H101.984V0.0722656H104.187C106.463 0.0722656 107.895 1.43059 107.895 3.59656ZM104.187 6.34991C106.023 6.34991 106.977 5.32199 106.977 3.59656C106.977 1.87112 106.023 0.806493 104.187 0.806493H102.902V6.3132H104.187V6.34991Z" fill="#041815"/>
<path d="M109.107 0.146484H110.099L112.668 5.91017L115.238 0.146484H116.229V7.12164H115.312V1.90863L112.999 7.12164H112.338L110.025 1.90863V7.12164H109.107V0.146484Z" fill="#041815"/>
<path d="M120.964 7.15832C118.981 7.15832 117.439 5.68986 117.439 3.5606C117.439 1.43135 118.981 -0.0371094 120.964 -0.0371094C122.946 -0.0371094 124.488 1.43135 124.488 3.5606C124.488 5.68986 122.946 7.15832 120.964 7.15832ZM120.964 6.38738C122.432 6.38738 123.534 5.32275 123.534 3.59732C123.534 1.87188 122.432 0.807252 120.964 0.807252C119.495 0.807252 118.394 1.87188 118.394 3.59732C118.357 5.28604 119.495 6.38738 120.964 6.38738Z" fill="#041815"/>
<path d="M131.208 0.0722656V7.08414H130.29L126.619 1.50401V7.08414H125.701V0.0722656H126.619L130.29 5.65239V0.0722656H131.208Z" fill="#041815"/>
<path d="M132.346 0.0722656H137.081V0.806493H135.172V7.08414H134.255V0.806493H132.346V0.0722656Z" fill="#041815"/>
<path d="M141.413 7.15832C139.431 7.15832 137.889 5.68986 137.889 3.5606C137.889 1.43135 139.431 -0.0371094 141.413 -0.0371094C143.395 -0.0371094 144.937 1.43135 144.937 3.5606C144.937 5.68986 143.395 7.15832 141.413 7.15832ZM141.413 6.38738C142.881 6.38738 143.983 5.32275 143.983 3.59732C143.983 1.87188 142.881 0.807252 141.413 0.807252C139.945 0.807252 138.843 1.87188 138.843 3.59732C138.806 5.28604 139.908 6.38738 141.413 6.38738Z" fill="#041815"/>
<path d="M151.655 0.0722656V7.08414H150.737L147.066 1.50401V7.08414H146.148V0.0722656H147.066L150.737 5.65239V0.0722656H151.655Z" fill="#041815"/>
<path d="M102.719 15.5653C102.719 17.7313 101.287 19.0529 99.0113 19.0529H96.8086V12.041H99.0113C101.324 12.041 102.719 13.3993 102.719 15.5653ZM99.0113 18.3187C100.847 18.3187 101.801 17.2907 101.801 15.5653C101.801 13.8399 100.847 12.7752 99.0113 12.7752H97.7264V18.2819H99.0113V18.3187Z" fill="#041815"/>
<path d="M107.711 12.7752H104.847V15.1248H107.417V15.8957H104.847V18.3187H107.711V19.0896H103.93V12.041H107.711V12.7752Z" fill="#041815"/>
<path d="M113.953 12.041H114.908L112.264 19.0529H111.2L108.557 12.041H109.548L111.751 18.0984L113.953 12.041Z" fill="#041815"/>
<path d="M119.68 12.7752H116.816V15.1248H119.386V15.8957H116.816V18.3187H119.68V19.0896H115.898V12.041H119.68V12.7752Z" fill="#041815"/>
<path d="M121.992 12.041V18.3187H124.452V19.0529H121.074V12.041H121.992Z" fill="#041815"/>
<path d="M128.6 19.1271C126.618 19.1271 125.076 17.6586 125.076 15.5294C125.076 13.4368 126.618 11.9316 128.6 11.9316C130.583 11.9316 132.125 13.4001 132.125 15.5294C132.125 17.6586 130.583 19.1271 128.6 19.1271ZM128.6 18.3194C130.069 18.3194 131.17 17.2548 131.17 15.5294C131.17 13.8039 130.069 12.7393 128.6 12.7393C127.132 12.7393 126.031 13.8039 126.031 15.5294C126.031 17.2548 127.132 18.3194 128.6 18.3194Z" fill="#041815"/>
<path d="M135.612 16.116H134.254V19.0529H133.336V12.041H135.612C137.264 12.041 138.035 12.9588 138.035 14.0969C138.035 15.1615 137.337 16.116 135.612 16.116ZM135.612 15.3818C136.677 15.3818 137.117 14.9045 137.117 14.0969C137.117 13.2892 136.677 12.812 135.612 12.812H134.254V15.3818H135.612Z" fill="#041815"/>
<path d="M139.174 12.0781H140.165L142.735 17.8418L145.305 12.0781H146.296V19.0533H145.378V13.877L143.065 19.09H142.404L140.092 13.877V19.09H139.174V12.0781Z" fill="#041815"/>
<path d="M151.619 12.7752H148.756V15.1248H151.325V15.8957H148.756V18.3187H151.619V19.0896H147.838V12.041H151.619V12.7752Z" fill="#041815"/>
<path d="M158.52 12.041V19.0529H157.603L153.931 13.4728V19.0529H153.014V12.041H153.931L157.603 17.6211V12.041H158.52Z" fill="#041815"/>
<path d="M159.658 12.041H164.394V12.7752H162.485V19.0529H161.567V12.7752H159.658V12.041Z" fill="#041815"/>
<path d="M100.332 23.9355C101.837 23.9355 103.049 24.7065 103.599 26.0648H102.498C102.131 25.2204 101.36 24.7432 100.332 24.7432C98.8635 24.7432 97.7622 25.8078 97.7622 27.5333C97.7622 29.2587 98.8635 30.3233 100.332 30.3233C101.36 30.3233 102.094 29.8461 102.498 29.0017H103.599C103.085 30.36 101.874 31.0943 100.332 31.0943C98.3863 31.0943 96.8444 29.6258 96.8444 27.5333C96.8077 25.404 98.3496 23.9355 100.332 23.9355Z" fill="#041815"/>
<path d="M108.114 31.0939C106.132 31.0939 104.59 29.6254 104.59 27.4962C104.59 25.4036 106.132 23.8984 108.114 23.8984C110.097 23.8984 111.638 25.3669 111.638 27.4962C111.638 29.6254 110.097 31.0939 108.114 31.0939ZM108.114 30.3229C109.583 30.3229 110.684 29.2583 110.684 27.5329C110.684 25.8074 109.583 24.7428 108.114 24.7428C106.646 24.7428 105.544 25.8074 105.544 27.5329C105.544 29.2216 106.646 30.3229 108.114 30.3229Z" fill="#041815"/>
<path d="M115.127 24.0078C116.779 24.0078 117.55 24.9256 117.55 26.0636C117.55 26.9447 117.073 27.8258 115.862 28.0828L117.624 31.0197H116.522L114.834 28.1562H113.732V31.0197H112.814V24.0078H115.127ZM115.127 24.7788H113.769V27.422H115.127C116.155 27.422 116.632 26.8713 116.632 26.0636C116.596 25.2927 116.155 24.7788 115.127 24.7788Z" fill="#041815"/>
<path d="M121.257 28.1195H119.898V31.0564H118.98V24.0078H121.257C122.909 24.0078 123.68 24.9256 123.68 26.0636C123.68 27.1283 122.982 28.1195 121.257 28.1195ZM121.257 27.3485C122.321 27.3485 122.762 26.8713 122.762 26.0636C122.762 25.256 122.321 24.7788 121.257 24.7788H119.898V27.3485H121.257Z" fill="#041815"/>
<path d="M127.975 31.0939C125.993 31.0939 124.451 29.6254 124.451 27.4962C124.451 25.4036 125.993 23.8984 127.975 23.8984C129.958 23.8984 131.5 25.3669 131.5 27.4962C131.5 29.6254 129.958 31.0939 127.975 31.0939ZM127.975 30.3229C129.444 30.3229 130.545 29.2583 130.545 27.5329C130.545 25.8074 129.444 24.7428 127.975 24.7428C126.507 24.7428 125.406 25.8074 125.406 27.5329C125.406 29.2216 126.507 30.3229 127.975 30.3229Z" fill="#041815"/>
<path d="M134.987 24.0078C136.639 24.0078 137.41 24.9256 137.41 26.0636C137.41 26.9447 136.932 27.8258 135.721 28.0828L137.483 31.0197H136.382L134.693 28.1562H133.592V31.0197H132.674V24.0078H134.987ZM134.987 24.7788H133.628V27.422H134.987C136.015 27.422 136.492 26.8713 136.492 26.0636C136.492 25.2927 136.015 24.7788 134.987 24.7788Z" fill="#041815"/>
<path d="M142.991 29.4782H139.944L139.394 31.0201H138.402L140.935 24.0449H142L144.533 31.0201H143.542L142.991 29.4782ZM141.449 25.183L140.164 28.744H142.698L141.449 25.183Z" fill="#041815"/>
<path d="M145.193 24.0078H149.929V24.742H148.02V31.0197H147.102V24.742H145.193V24.0078Z" fill="#041815"/>
<path d="M151.066 24.0078H151.984V31.0197H151.066V24.0078Z" fill="#041815"/>
<path d="M156.722 31.0939C154.739 31.0939 153.197 29.6254 153.197 27.4962C153.197 25.4036 154.739 23.8984 156.722 23.8984C158.704 23.8984 160.246 25.3669 160.246 27.4962C160.246 29.6254 158.704 31.0939 156.722 31.0939ZM156.722 30.3229C158.19 30.3229 159.291 29.2583 159.291 27.5329C159.291 25.8074 158.19 24.7428 156.722 24.7428C155.253 24.7428 154.152 25.8074 154.152 27.5329C154.152 29.2216 155.253 30.3229 156.722 30.3229Z" fill="#041815"/>
<path d="M166.999 24.0078V31.0197H166.081L162.41 25.4396V31.0197H161.492V24.0078H162.41L166.081 29.5879V24.0078H166.999Z" fill="#041815"/>
</g>
<defs>
<clipPath id="clip0_985_449">
<rect width="167" height="31.0945" fill="white"/>
</clipPath>
</defs>
</svg>
