<svg width="129" height="32" viewBox="0 0 129 32" fill="none" xmlns="http://www.w3.org/2000/svg">
<g clip-path="url(#clip0_985_540)">
<path d="M50.9084 17.0714L41.2762 17.1071L39.3854 21.5714L35.7109 21.6071L44.2729 2.28571L47.8047 2.25L56.6164 21.5L52.8705 21.5357L50.9084 17.0714ZM49.7311 14.2857L46.0209 5.85714L42.4535 14.3214L49.7311 14.2857Z" fill="#041815"/>
<path d="M76.737 2.92829C77.9856 3.46401 78.9488 4.24972 79.591 5.28544C80.2688 6.32115 80.5898 7.53544 80.5898 8.92829C80.5898 10.3211 80.2688 11.5354 79.6266 12.5711C78.9845 13.6069 78.0213 14.4283 76.8083 14.964C75.5954 15.4997 74.1327 15.8211 72.456 15.8211L68.1037 15.8569L68.1393 21.4283L64.5719 21.464L64.4648 2.17829L72.3846 2.14258C74.0614 2.14258 75.524 2.39258 76.737 2.92829ZM75.8094 11.8211C76.6299 11.1426 77.0224 10.214 77.0224 8.96401C77.0224 7.74972 76.5943 6.78544 75.8094 6.14258C74.9889 5.49972 73.8116 5.17829 72.2419 5.17829L68.068 5.21401L68.1037 12.8569L72.2776 12.8212C73.8473 12.8212 75.0246 12.4997 75.8094 11.8211Z" fill="#041815"/>
<path d="M101.96 2.8203C103.208 3.35602 104.171 4.14173 104.814 5.17745C105.491 6.21316 105.813 7.42745 105.813 8.8203C105.813 10.2132 105.491 11.4274 104.849 12.4632C104.207 13.4989 103.244 14.3203 102.031 14.856C100.782 15.4274 99.3554 15.7132 97.6786 15.7132L93.3263 15.7489L93.362 21.3203L89.7945 21.356L89.6875 2.0703L97.6073 2.03459C99.2483 1.99888 100.711 2.24888 101.96 2.8203ZM101.032 11.6774C101.853 10.9989 102.245 10.0703 102.245 8.8203C102.245 7.60602 101.817 6.64173 101.032 5.99888C100.212 5.35602 99.0343 5.03459 97.4646 5.03459L93.2907 5.0703L93.3263 12.7132L97.5003 12.6774C99.0343 12.6774 100.212 12.356 101.032 11.6774Z" fill="#041815"/>
<path d="M116.907 20.8209C115.516 20.3923 114.41 19.8566 113.625 19.1423L114.838 16.3566C115.623 16.9637 116.586 17.4994 117.763 17.8566C118.905 18.2494 120.082 18.428 121.224 18.428C122.651 18.428 123.721 18.178 124.434 17.7137C125.148 17.2494 125.505 16.6423 125.469 15.8923C125.469 15.3566 125.255 14.8923 124.863 14.5352C124.47 14.178 123.971 13.8923 123.364 13.7137C122.758 13.4994 121.937 13.2852 120.867 13.0352C119.404 12.678 118.191 12.3566 117.299 11.9994C116.372 11.6423 115.623 11.1066 114.945 10.3566C114.303 9.60659 113.946 8.60658 113.946 7.35658C113.946 6.28516 114.231 5.32087 114.802 4.42801C115.373 3.53516 116.229 2.85658 117.407 2.32087C118.584 1.78516 120.011 1.53516 121.688 1.53516C122.865 1.53516 124.006 1.67801 125.148 1.96373C126.29 2.24944 127.288 2.67801 128.109 3.21373L127.003 6.07087C126.147 5.57087 125.291 5.21373 124.363 4.96373C123.436 4.71373 122.544 4.57087 121.688 4.60658C120.261 4.60658 119.226 4.85658 118.548 5.35658C117.87 5.82087 117.514 6.46373 117.514 7.24944C117.514 7.78516 117.728 8.24944 118.12 8.60658C118.512 8.96373 119.012 9.21373 119.618 9.42801C120.225 9.6423 121.045 9.85658 122.116 10.1066C123.543 10.428 124.72 10.7852 125.647 11.1066C126.575 11.4637 127.36 11.9994 128.002 12.7494C128.644 13.4637 129.001 14.4637 129.001 15.7137C129.001 16.7852 128.715 17.7494 128.145 18.6066C127.574 19.4637 126.682 20.178 125.54 20.678C124.363 21.2137 122.936 21.4637 121.259 21.4637C119.725 21.4637 118.298 21.2494 116.907 20.8209Z" fill="#041815"/>
<path d="M38.7798 28.7843H37.4599V30.0343H38.9582V30.3915H37.0318L36.9961 26.9629H38.8512V27.32H37.4242V28.3915H38.7442L38.7798 28.7843Z" fill="#041815"/>
<path d="M42.4193 30.3569L41.9555 29.6069C41.7771 29.3211 41.6701 29.1426 41.5631 28.9283C41.456 29.1426 41.349 29.3211 41.2063 29.6069L40.8139 30.3569H40.3145L41.349 28.6069L40.3145 26.9283H40.8139L41.2777 27.714C41.4204 27.9283 41.4917 28.1069 41.5987 28.2854C41.7058 28.0711 41.7771 27.9283 41.9198 27.714L42.3836 26.8926H42.883L41.8485 28.5711L42.9187 30.3211L42.4193 30.3569Z" fill="#041815"/>
<path d="M44.4512 26.964C44.6652 26.9283 44.9506 26.8926 45.3074 26.8926C45.7355 26.8926 46.0565 26.9997 46.2706 27.1783C46.449 27.3569 46.556 27.6069 46.5917 27.8926C46.5917 28.214 46.5203 28.464 46.3419 28.6426C46.0922 28.8926 45.7355 29.0354 45.3074 29.0354C45.1647 29.0354 45.0576 29.0354 44.9506 28.9997V30.3926H44.5225L44.4512 26.964ZM44.9149 28.6069C45.022 28.6426 45.129 28.6426 45.2717 28.6426C45.8068 28.6426 46.1279 28.3569 46.1279 27.8926C46.1279 27.4283 45.8068 27.214 45.3074 27.214C45.129 27.214 44.9506 27.214 44.8793 27.2497L44.9149 28.6069Z" fill="#041815"/>
<path d="M49.981 28.714H48.661V29.964H50.1594V30.3211H48.2329L48.1973 26.8926H50.0524V27.2497H48.6254V28.3211H49.9453L49.981 28.714Z" fill="#041815"/>
<path d="M51.7305 26.9269C51.9445 26.8912 52.2656 26.8555 52.5867 26.8555C53.0504 26.8555 53.3715 26.9269 53.5856 27.1412C53.7639 27.284 53.871 27.534 53.871 27.784C53.871 28.2483 53.5856 28.534 53.2288 28.6769C53.4785 28.784 53.6569 28.9983 53.7283 29.3555C53.8353 29.8198 53.9423 30.1769 54.0137 30.284H53.5499C53.4785 30.1769 53.4072 29.8912 53.3358 29.4626C53.2288 28.9983 53.0504 28.8198 52.6223 28.784H52.1942V30.284H51.7661L51.7305 26.9269ZM52.1586 28.4983H52.6223C53.0861 28.4983 53.4072 28.2483 53.4072 27.8555C53.4072 27.4269 53.0861 27.2126 52.6223 27.2126C52.4083 27.2126 52.2656 27.2126 52.1942 27.2483L52.1586 28.4983Z" fill="#041815"/>
<path d="M56.1889 27.2483H55.1543V26.8555H57.6872V27.2483H56.6526V30.3198H56.1889V27.2483Z" fill="#041815"/>
<path d="M59.0074 29.7494C59.2215 29.8923 59.5069 29.9637 59.7923 29.9637C60.256 29.9637 60.5058 29.7137 60.5058 29.3566C60.5058 29.0352 60.3274 28.8566 59.8636 28.678C59.2928 28.4637 58.9361 28.178 58.9361 27.7137C58.9361 27.178 59.3642 26.7852 60.042 26.7852C60.3987 26.7852 60.6485 26.8566 60.7911 26.9637L60.6841 27.3209C60.5771 27.2494 60.3631 27.1423 60.042 27.178C59.5782 27.178 59.3998 27.4637 59.3998 27.7137C59.3998 28.0352 59.6139 28.178 60.0777 28.3566C60.6485 28.5709 60.9695 28.8566 60.9695 29.3566C60.9695 29.8923 60.5771 30.3566 59.7923 30.3566C59.4712 30.3566 59.1144 30.2494 58.9004 30.1423L59.0074 29.7494Z" fill="#041815"/>
<path d="M65.1083 26.8203L65.144 30.2489H64.6802L64.6445 26.8203H65.1083Z" fill="#041815"/>
<path d="M66.9263 30.2489L66.8906 26.8203H67.3901L68.496 28.5703C68.7457 28.9632 68.9598 29.3203 69.1025 29.6775C69.0668 29.2132 69.0311 28.7846 69.0311 28.2489V26.8203H69.4592L69.4949 30.2489H69.0311L67.9252 28.4989C67.6755 28.106 67.4614 27.7132 67.283 27.356C67.3187 27.7846 67.3187 28.2132 67.3187 28.7846V30.2489H66.9263Z" fill="#041815"/>
<path d="M73.3492 29.6772C73.5633 29.82 73.8487 29.8915 74.1341 29.8915C74.5978 29.8915 74.8476 29.6415 74.8476 29.2843C74.8476 28.9629 74.6692 28.7843 74.2054 28.6057C73.6346 28.3915 73.2779 28.1057 73.2779 27.6415C73.2779 27.1057 73.706 26.7129 74.3838 26.7129C74.7405 26.7129 74.9903 26.7843 75.133 26.8915L75.0259 27.2486C74.9189 27.1772 74.7049 27.07 74.3838 27.1057C73.92 27.1057 73.7416 27.3915 73.7416 27.6415C73.7416 27.9629 73.9557 28.1057 74.4195 28.2843C74.9903 28.4986 75.3113 28.7843 75.3113 29.2843C75.3113 29.82 74.9189 30.2843 74.1341 30.2843C73.813 30.2843 73.4562 30.1772 73.2422 30.07L73.3492 29.6772Z" fill="#041815"/>
<path d="M79.8067 28.6786C79.771 28.2143 79.7354 27.6071 79.7354 27.1786C79.6283 27.5714 79.4856 28 79.3073 28.5L78.7008 30.1786H78.3797L77.8089 28.5357C77.6306 28.0357 77.5235 27.6071 77.4165 27.2143C77.4165 27.6429 77.3808 28.2143 77.3452 28.75L77.2738 30.2143H76.8457L77.0598 26.7857H77.6306L78.237 28.4286C78.3797 28.8571 78.4867 29.2143 78.5938 29.5714C78.7008 29.2143 78.8078 28.8571 78.9505 28.4286L79.557 26.75H80.1278L80.3775 30.1786H79.9494L79.8067 28.6786Z" fill="#041815"/>
<path d="M82.5529 29.07L82.1962 30.1415H81.7324L82.874 26.7129H83.4091L84.5864 30.1415H84.1226L83.7659 29.07H82.5529ZM83.6945 28.7129L83.3378 27.7129C83.2664 27.4986 83.1951 27.2843 83.1594 27.07C83.1237 27.2843 83.0524 27.4986 82.981 27.6772L82.66 28.6772L83.6945 28.7129Z" fill="#041815"/>
<path d="M86.1211 26.7492C86.3351 26.7135 86.6562 26.6777 86.9773 26.6777C87.4411 26.6777 87.7621 26.7492 87.9762 26.9634C88.1546 27.1063 88.2616 27.3563 88.2616 27.6063C88.2616 28.0706 87.9762 28.3563 87.6194 28.4992C87.8692 28.6063 88.0475 28.8206 88.1189 29.1777C88.2259 29.642 88.3329 29.9992 88.4043 30.1063H87.9405C87.8692 29.9992 87.7978 29.7134 87.7265 29.2849C87.6194 28.8206 87.4411 28.642 87.013 28.6063H86.5849V30.1063H86.1568L86.1211 26.7492ZM86.5849 28.3206H87.0486C87.5124 28.3206 87.8335 28.0706 87.8335 27.6777C87.8335 27.2492 87.5124 27.0349 87.0486 27.0349C86.8346 27.0349 86.6919 27.0349 86.6205 27.0706L86.5849 28.3206Z" fill="#041815"/>
<path d="M90.5795 27.0354H89.5449V26.6426H92.0778V27.0354H91.0433V30.1069H90.5795V27.0354Z" fill="#041815"/>
<path d="M95.5387 29.5346C95.7527 29.6775 96.0381 29.7489 96.3235 29.7489C96.7873 29.7489 97.037 29.4989 97.037 29.1417C97.037 28.8203 96.8586 28.6417 96.3949 28.4632C95.8241 28.2489 95.4673 27.9632 95.4673 27.4989C95.4673 26.9632 95.8954 26.5703 96.5732 26.5703C96.93 26.5703 97.1797 26.6417 97.3224 26.7489L97.2154 27.106C97.1084 27.0346 96.8943 26.9275 96.5732 26.9632C96.1095 26.9632 95.9311 27.2489 95.9311 27.4989C95.9311 27.8203 96.1451 27.9632 96.6089 28.1417C97.1797 28.356 97.5008 28.6417 97.5008 29.1417C97.5008 29.6775 97.1084 30.1417 96.3235 30.1417C96.0024 30.1417 95.6457 30.0346 95.4316 29.9275L95.5387 29.5346Z" fill="#041815"/>
<path d="M102.067 28.2852C102.067 29.4637 101.354 30.1066 100.497 30.1066C99.5699 30.1066 98.9634 29.3923 98.9277 28.3566C98.9277 27.2494 99.6056 26.5352 100.497 26.5352C101.425 26.5709 102.031 27.2852 102.067 28.2852ZM99.3915 28.3566C99.3915 29.1066 99.7839 29.7494 100.497 29.7494C101.211 29.7494 101.603 29.1066 101.603 28.3209C101.603 27.6423 101.247 26.928 100.497 26.928C99.7483 26.928 99.3915 27.6066 99.3915 28.3566Z" fill="#041815"/>
<path d="M103.637 26.6055H104.1V29.6769H105.563V30.034H103.637V26.6055Z" fill="#041815"/>
<path d="M107.311 26.5709V28.6066C107.311 29.3566 107.668 29.7137 108.131 29.678C108.631 29.678 108.952 29.3209 108.952 28.5709V26.5352H109.416V28.5352C109.416 29.6066 108.881 30.0352 108.131 30.0352C107.418 30.0352 106.883 29.6423 106.883 28.5709V26.5352L107.311 26.5709Z" fill="#041815"/>
<path d="M111.841 26.928H110.807V26.5352H113.34V26.928H112.305V29.9994H111.841V26.928Z" fill="#041815"/>
<path d="M115.194 26.5352L115.23 29.9637H114.766L114.73 26.5352H115.194Z" fill="#041815"/>
<path d="M119.94 28.2129C119.94 29.3915 119.227 30.0343 118.37 30.0343C117.443 30.0343 116.836 29.32 116.801 28.2843C116.801 27.1772 117.479 26.4629 118.37 26.4629C119.298 26.4629 119.94 27.1772 119.94 28.2129ZM117.265 28.2486C117.265 28.9986 117.657 29.6415 118.37 29.6415C119.084 29.6415 119.476 28.9986 119.476 28.2129C119.476 27.5343 119.12 26.82 118.37 26.82C117.621 26.82 117.265 27.4986 117.265 28.2486Z" fill="#041815"/>
<path d="M121.545 29.9637L121.51 26.5352H122.009L123.115 28.2852C123.365 28.678 123.579 29.0352 123.722 29.3923C123.686 28.928 123.65 28.4994 123.65 27.9637V26.5352H124.078L124.114 29.9637H123.65L122.544 28.2137C122.295 27.8209 122.081 27.428 121.902 27.0709C121.938 27.4994 121.938 27.928 121.938 28.4994V29.9637H121.545Z" fill="#041815"/>
<path d="M125.863 29.392C126.077 29.5349 126.362 29.6063 126.648 29.6063C127.112 29.6063 127.361 29.3563 127.361 28.9992C127.361 28.6777 127.183 28.4992 126.719 28.3206C126.148 28.1063 125.792 27.8206 125.792 27.3563C125.792 26.8206 126.22 26.4277 126.897 26.4277C127.254 26.4277 127.504 26.4992 127.647 26.6063L127.54 26.9634C127.433 26.892 127.219 26.7849 126.897 26.8206C126.434 26.8206 126.255 27.1063 126.255 27.3563C126.255 27.6777 126.469 27.8206 126.933 27.9992C127.504 28.2134 127.825 28.4992 127.825 28.9992C127.825 29.5349 127.433 29.9992 126.648 29.9992C126.327 29.9992 125.97 29.892 125.756 29.7849L125.863 29.392Z" fill="#041815"/>
<path d="M10.2753 0H0.0722656V3.10714H8.20612L10.2753 0Z" fill="#041815"/>
<path d="M16.9098 20.25C16.4461 19.25 15.8039 18.3571 15.0548 17.6071C15.0191 17.5714 15.0191 17.5714 14.9834 17.5357C14.1629 16.75 13.2353 16.1429 12.2008 15.7143C11.1305 15.25 10.0603 15.0357 8.88302 15.0357C8.52627 15.0357 8.2052 15.0714 7.88413 15.1071C7.7771 15.1429 7.67008 15.1429 7.56305 15.1429L17.4093 0H13.8418L11.6657 3.32143L3.85288 15.25L3.8172 15.2857L2.28319 17.6071H8.99004C9.81056 17.6071 10.5597 17.75 11.2732 18.0714C11.9867 18.3571 12.5932 18.7857 13.1283 19.3214C13.5207 19.7143 13.8418 20.1429 14.1272 20.6071C14.2342 20.7857 14.3056 20.9643 14.4126 21.1786C14.7337 21.8929 14.8764 22.6429 14.8764 23.4643C14.8764 24.2857 14.7337 25.0357 14.4126 25.75C14.0915 26.4643 13.6991 27.0714 13.164 27.6071C12.6289 28.1429 12.0224 28.5357 11.3089 28.8214C10.5954 29.1071 9.84624 29.2857 9.02572 29.2857C8.2052 29.2857 7.45603 29.1429 6.74253 28.8214C6.02904 28.5357 5.38689 28.1071 4.88744 27.6071C4.35232 27.1071 3.92423 26.4643 3.63883 25.75C3.31775 25.0357 3.17506 24.25 3.17506 23.4286C3.17506 22.6071 3.31775 21.8214 3.63883 21.1071C3.71018 20.9286 3.8172 20.75 3.88855 20.5714H0.570796C0.214049 21.5 0 22.4643 0 23.4286C0 24.6071 0.249723 25.75 0.713496 26.7857C1.17727 27.8214 1.81941 28.75 2.63993 29.5C3.42478 30.2857 4.388 30.8929 5.42257 31.3214C6.49281 31.7857 7.6344 32 8.81167 32C9.95326 32 11.0592 31.7857 12.1294 31.3571C13.1997 30.9286 14.1272 30.3214 14.9477 29.5357C15.7683 28.75 16.4104 27.8571 16.9098 26.8214C17.4093 25.7857 17.659 24.6786 17.659 23.5C17.659 22.4643 17.4806 21.5 17.0882 20.5357C17.0169 20.4643 16.9812 20.3571 16.9098 20.25ZM11.6657 3.32143H11.737L3.9599 15.1071L11.6657 3.32143Z" fill="#041815"/>
<path d="M20.9417 0L19.158 2.78571L17.6953 5.03571H21.0131L22.4401 2.78571H24.3665V5.03571V32H27.1491V5.03571V0H20.9417Z" fill="#041815"/>
</g>
<defs>
<clipPath id="clip0_985_540">
<rect width="129" height="32" fill="white"/>
</clipPath>
</defs>
</svg>
