<svg width="179" height="48" viewBox="0 0 179 48" fill="none" xmlns="http://www.w3.org/2000/svg">
<path d="M43.3736 22.0867C34.8407 11.7463 9.74384 19.9359 2.96769 33.2544C-3.39017 45.6629 10.5804 52.9425 29.8213 41.6921C50.2334 29.78 35.9282 18.6124 17.7748 32.2617C32.4983 25.9747 37.3503 31.6826 31.2434 37.556C27.0606 41.6094 17.6075 45.0838 11.417 43.0984C5.22641 41.1131 7.9034 33.9989 13.9266 28.6219C22.8778 20.7632 36.2628 17.4542 43.3736 22.0867Z" fill="#00A651"/>
<path d="M43.3736 22.0867C34.8407 11.7463 9.74384 19.9359 2.96769 33.2544C-3.39017 45.6629 10.5804 52.9425 29.8213 41.6921C50.2334 29.78 35.9282 18.6124 17.7748 32.2617C32.4983 25.9747 37.3503 31.6826 31.2434 37.556C27.0606 41.6094 17.6075 45.0838 11.417 43.0984C5.22641 41.1131 7.9034 33.9989 13.9266 28.6219C22.8778 20.7632 36.2628 17.4542 43.3736 22.0867Z" fill="#E7830D"/>
<path d="M29.5708 1.0754C27.5631 1.73719 26.3082 3.5571 26.3082 5.7079V15.0556C28.4833 14.7247 30.6583 14.5593 32.7497 14.8075V0L29.5708 1.0754ZM15.9349 11.4158V18.53C18.0263 17.4546 20.2013 16.6274 22.3764 15.9656V5.7079L19.1975 6.78331C17.1897 7.44509 15.9349 9.265 15.9349 11.4158ZM5.56152 17.1237V25.8924C7.40196 24.0725 9.57701 22.3353 12.003 20.8463V11.3331L8.82411 12.4085C6.81636 13.153 5.56152 14.9729 5.56152 17.1237Z" fill="#1796DF"/>
<path d="M29.5708 1.0754C27.5631 1.73719 26.3082 3.5571 26.3082 5.7079V15.0556C28.4833 14.7247 30.6583 14.5593 32.7497 14.8075V0L29.5708 1.0754ZM15.9349 11.4158V18.53C18.0263 17.4546 20.2013 16.6274 22.3764 15.9656V5.7079L19.1975 6.78331C17.1897 7.44509 15.9349 9.265 15.9349 11.4158ZM5.56152 17.1237V25.8924C7.40196 24.0725 9.57701 22.3353 12.003 20.8463V11.3331L8.82411 12.4085C6.81636 13.153 5.56152 14.9729 5.56152 17.1237Z" fill="#1796DF"/>
<path d="M0.959961 31.8485C5.56104 22.3353 24.6346 10.8368 37.6013 15.8829C35.6772 12.6567 30.7415 11.0849 23.2125 12.9876C15.0142 14.9729 4.64083 21.0117 0.959961 31.8485Z" fill="#1796DF"/>
<path d="M0.959961 31.8485C5.56104 22.3353 24.6346 10.8368 37.6013 15.8829C35.6772 12.6567 30.7415 11.0849 23.2125 12.9876C15.0142 14.9729 4.64083 21.0117 0.959961 31.8485Z" fill="#1796DF"/>
<path d="M56.3645 19.7753H61.4809V22.2445H53.2502V6.71756H56.3645V19.7753Z" fill="white"/>
<path d="M68.9326 22.4447C67.7462 22.4447 66.6784 22.1852 65.7293 21.6662C64.7802 21.1323 64.0313 20.3834 63.4826 19.4194C62.9487 18.4555 62.6818 17.3432 62.6818 16.0827C62.6818 14.8221 62.9561 13.7099 63.5048 12.7459C64.0684 11.782 64.8321 11.0405 65.7961 10.5214C66.76 9.98757 67.8352 9.72063 69.0216 9.72063C70.208 9.72063 71.2831 9.98757 72.2471 10.5214C73.211 11.0405 73.9674 11.782 74.5161 12.7459C75.0796 13.7099 75.3614 14.8221 75.3614 16.0827C75.3614 17.3432 75.0722 18.4555 74.4938 19.4194C73.9303 20.3834 73.1591 21.1323 72.1804 21.6662C71.2164 22.1852 70.1338 22.4447 68.9326 22.4447ZM68.9326 19.7309C69.4961 19.7309 70.0226 19.5974 70.512 19.3304C71.0162 19.0487 71.4166 18.6334 71.7132 18.0847C72.0098 17.536 72.1581 16.8687 72.1581 16.0827C72.1581 14.9111 71.8467 14.0139 71.2238 13.391C70.6158 12.7534 69.8669 12.4345 68.9771 12.4345C68.0873 12.4345 67.3384 12.7534 66.7303 13.391C66.1371 14.0139 65.8405 14.9111 65.8405 16.0827C65.8405 17.2543 66.1297 18.1589 66.7081 18.7966C67.3013 19.4194 68.0428 19.7309 68.9326 19.7309Z" fill="white"/>
<path d="M82.473 9.72063C83.3924 9.72063 84.2007 9.906 84.8977 10.2767C85.5947 10.6327 86.1434 11.0998 86.5438 11.6782V9.92083H89.6804V22.3335C89.6804 23.4754 89.4505 24.4913 88.9908 25.3811C88.531 26.2857 87.8414 26.9975 86.922 27.5166C86.0025 28.0505 84.8903 28.3174 83.5852 28.3174C81.8353 28.3174 80.3968 27.9096 79.2697 27.0939C78.1575 26.2783 77.5272 25.166 77.3789 23.7572H80.4709C80.6341 24.3207 80.9826 24.7656 81.5165 25.0919C82.0652 25.433 82.7251 25.6035 83.4963 25.6035C84.4009 25.6035 85.135 25.3292 85.6985 24.7805C86.262 24.2466 86.5438 23.4309 86.5438 22.3335V20.4204C86.1434 20.9988 85.5873 21.4808 84.8754 21.8664C84.1784 22.252 83.3776 22.4447 82.473 22.4447C81.4349 22.4447 80.4858 22.1778 79.6256 21.6439C78.7655 21.11 78.0833 20.3611 77.5791 19.3972C77.0897 18.4184 76.845 17.2987 76.845 16.0382C76.845 14.7925 77.0897 13.6876 77.5791 12.7237C78.0833 11.7597 78.7581 11.0182 79.6034 10.4992C80.4635 9.98015 81.4201 9.72063 82.473 9.72063ZM86.5438 16.0827C86.5438 15.3264 86.3955 14.6813 86.0989 14.1474C85.8023 13.5987 85.4019 13.1834 84.8977 12.9017C84.3935 12.6051 83.8522 12.4568 83.2738 12.4568C82.6954 12.4568 82.1616 12.5976 81.6722 12.8794C81.1828 13.1612 80.7824 13.5764 80.4709 14.1251C80.1743 14.659 80.026 15.2967 80.026 16.0382C80.026 16.7797 80.1743 17.4322 80.4709 17.9957C80.7824 18.5445 81.1828 18.9671 81.6722 19.2637C82.1764 19.5603 82.7103 19.7086 83.2738 19.7086C83.8522 19.7086 84.3935 19.5677 84.8977 19.286C85.4019 18.9894 85.8023 18.5741 86.0989 18.0402C86.3955 17.4915 86.5438 16.839 86.5438 16.0827Z" fill="white"/>
<path d="M98.1943 22.4447C97.0079 22.4447 95.9401 22.1852 94.991 21.6662C94.0419 21.1323 93.293 20.3834 92.7442 19.4194C92.2104 18.4555 91.9434 17.3432 91.9434 16.0827C91.9434 14.8221 92.2178 13.7099 92.7665 12.7459C93.33 11.782 94.0938 11.0405 95.0577 10.5214C96.0217 9.98757 97.0968 9.72063 98.2832 9.72063C99.4696 9.72063 100.545 9.98757 101.509 10.5214C102.473 11.0405 103.229 11.782 103.778 12.7459C104.341 13.7099 104.623 14.8221 104.623 16.0827C104.623 17.3432 104.334 18.4555 103.756 19.4194C103.192 20.3834 102.421 21.1323 101.442 21.6662C100.478 22.1852 99.3955 22.4447 98.1943 22.4447ZM98.1943 19.7309C98.7578 19.7309 99.2843 19.5974 99.7737 19.3304C100.278 19.0487 100.678 18.6334 100.975 18.0847C101.271 17.536 101.42 16.8687 101.42 16.0827C101.42 14.9111 101.108 14.0139 100.485 13.391C99.8775 12.7534 99.1286 12.4345 98.2388 12.4345C97.349 12.4345 96.6 12.7534 95.992 13.391C95.3988 14.0139 95.1022 14.9111 95.1022 16.0827C95.1022 17.2543 95.3914 18.1589 95.9698 18.7966C96.563 19.4194 97.3045 19.7309 98.1943 19.7309Z" fill="white"/>
<path d="M125.488 22.2445H122.374L115.322 11.5892V22.2445H112.208V6.69531H115.322L122.374 17.3729V6.69531H125.488V22.2445Z" fill="white"/>
<path d="M127.765 16.0382C127.765 14.7925 128.01 13.6876 128.499 12.7237C129.003 11.7597 129.678 11.0182 130.523 10.4992C131.384 9.98015 132.34 9.72063 133.393 9.72063C134.313 9.72063 135.113 9.906 135.796 10.2767C136.493 10.6475 137.049 11.1146 137.464 11.6782V9.92083H140.6V22.2445H137.464V20.4427C137.063 21.0211 136.507 21.503 135.796 21.8886C135.099 22.2594 134.29 22.4447 133.371 22.4447C132.333 22.4447 131.384 22.1778 130.523 21.6439C129.678 21.11 129.003 20.3611 128.499 19.3972C128.01 18.4184 127.765 17.2987 127.765 16.0382ZM137.464 16.0827C137.464 15.3264 137.316 14.6813 137.019 14.1474C136.722 13.5987 136.322 13.1834 135.818 12.9017C135.314 12.6051 134.772 12.4568 134.194 12.4568C133.616 12.4568 133.082 12.5976 132.592 12.8794C132.103 13.1612 131.702 13.5764 131.391 14.1251C131.094 14.659 130.946 15.2967 130.946 16.0382C130.946 16.7797 131.094 17.4322 131.391 17.9957C131.702 18.5445 132.103 18.9671 132.592 19.2637C133.096 19.5603 133.63 19.7086 134.194 19.7086C134.772 19.7086 135.314 19.5677 135.818 19.286C136.322 18.9894 136.722 18.5741 137.019 18.0402C137.316 17.4915 137.464 16.839 137.464 16.0827Z" fill="white"/>
<path d="M158.947 9.74287C160.459 9.74287 161.675 10.21 162.595 11.1443C163.529 12.0638 163.996 13.354 163.996 15.0149V22.2445H160.882V15.4376C160.882 14.4736 160.637 13.7395 160.148 13.2353C159.658 12.7163 158.991 12.4568 158.146 12.4568C157.3 12.4568 156.626 12.7163 156.122 13.2353C155.632 13.7395 155.387 14.4736 155.387 15.4376V22.2445H152.273V15.4376C152.273 14.4736 152.028 13.7395 151.539 13.2353C151.05 12.7163 150.382 12.4568 149.537 12.4568C148.677 12.4568 147.995 12.7163 147.49 13.2353C147.001 13.7395 146.756 14.4736 146.756 15.4376V22.2445H143.642V9.92083H146.756V11.4112C147.157 10.8922 147.668 10.4844 148.291 10.1878C148.929 9.89117 149.626 9.74287 150.382 9.74287C151.346 9.74287 152.206 9.95049 152.963 10.3657C153.719 10.7661 154.305 11.3445 154.72 12.1008C155.12 11.389 155.699 10.818 156.455 10.388C157.226 9.95791 158.057 9.74287 158.947 9.74287Z" fill="white"/>
<path d="M178.408 15.8157C178.408 16.2606 178.378 16.6611 178.319 17.017H169.309C169.384 17.9068 169.695 18.6038 170.244 19.108C170.792 19.6122 171.467 19.8643 172.268 19.8643C173.425 19.8643 174.248 19.3675 174.737 18.3739H178.096C177.74 19.5603 177.058 20.5391 176.05 21.3102C175.041 22.0666 173.803 22.4447 172.335 22.4447C171.148 22.4447 170.081 22.1852 169.132 21.6662C168.197 21.1323 167.463 20.3834 166.929 19.4194C166.41 18.4555 166.151 17.3432 166.151 16.0827C166.151 14.8073 166.41 13.6876 166.929 12.7237C167.448 11.7597 168.175 11.0182 169.109 10.4992C170.044 9.98015 171.119 9.72063 172.335 9.72063C173.506 9.72063 174.552 9.97274 175.471 10.477C176.406 10.9812 177.125 11.7004 177.629 12.6347C178.148 13.5542 178.408 14.6145 178.408 15.8157ZM175.182 14.9259C175.167 14.1251 174.878 13.4874 174.315 13.0129C173.751 12.5235 173.061 12.2788 172.246 12.2788C171.475 12.2788 170.822 12.5161 170.288 12.9906C169.769 13.4504 169.45 14.0955 169.332 14.9259H175.182Z" fill="white"/>
<path d="M58.1108 33.4134L55.979 37.5194V39.8551H54.9223V37.5194L52.7812 33.4134H53.9584L55.4506 36.574L56.9429 33.4134H58.1108Z" fill="white"/>
<path d="M63.7412 39.92C63.1419 39.92 62.5888 39.781 62.0821 39.5029C61.5816 39.2187 61.1831 38.8263 60.8865 38.3258C60.596 37.8191 60.4508 37.2506 60.4508 36.6203C60.4508 35.9901 60.596 35.4247 60.8865 34.9242C61.1831 34.4236 61.5816 34.0344 62.0821 33.7563C62.5888 33.4721 63.1419 33.3299 63.7412 33.3299C64.3468 33.3299 64.8998 33.4721 65.4003 33.7563C65.907 34.0344 66.3056 34.4236 66.596 34.9242C66.8864 35.4247 67.0316 35.9901 67.0316 36.6203C67.0316 37.2506 66.8864 37.8191 66.596 38.3258C66.3056 38.8263 65.907 39.2187 65.4003 39.5029C64.8998 39.781 64.3468 39.92 63.7412 39.92ZM63.7412 39.0024C64.1676 39.0024 64.5476 38.9066 64.8813 38.7151C65.215 38.5173 65.4745 38.2393 65.6599 37.8809C65.8514 37.5163 65.9472 37.0961 65.9472 36.6203C65.9472 36.1445 65.8514 35.7274 65.6599 35.3691C65.4745 35.0107 65.215 34.7357 64.8813 34.5441C64.5476 34.3526 64.1676 34.2568 63.7412 34.2568C63.3149 34.2568 62.9349 34.3526 62.6012 34.5441C62.2675 34.7357 62.0049 35.0107 61.8133 35.3691C61.628 35.7274 61.5353 36.1445 61.5353 36.6203C61.5353 37.0961 61.628 37.5163 61.8133 37.8809C62.0049 38.2393 62.2675 38.5173 62.6012 38.7151C62.9349 38.9066 63.3149 39.0024 63.7412 39.0024Z" fill="white"/>
<path d="M70.9725 33.4134V37.5194C70.9725 38.0076 71.0992 38.3752 71.3525 38.6224C71.6121 38.8695 71.9704 38.9931 72.4277 38.9931C72.8911 38.9931 73.2495 38.8695 73.5029 38.6224C73.7624 38.3752 73.8922 38.0076 73.8922 37.5194V33.4134H74.9488V37.5009C74.9488 38.0261 74.8345 38.471 74.6059 38.8356C74.3772 39.2001 74.0714 39.472 73.6882 39.6512C73.3051 39.8304 72.8819 39.92 72.4184 39.92C71.955 39.92 71.5317 39.8304 71.1486 39.6512C70.7717 39.472 70.472 39.2001 70.2495 38.8356C70.0271 38.471 69.9159 38.0261 69.9159 37.5009V33.4134H70.9725Z" fill="white"/>
<path d="M81.5243 39.8551L80.0413 37.2784H79.2349V39.8551H78.1783V33.4134H80.4028C80.8971 33.4134 81.3142 33.4999 81.6541 33.6729C82.0001 33.8459 82.2565 34.0776 82.4234 34.368C82.5964 34.6585 82.6829 34.9829 82.6829 35.3412C82.6829 35.7614 82.5593 36.1445 82.3121 36.4906C82.0712 36.8304 81.6973 37.0621 81.1906 37.1857L82.7849 39.8551H81.5243ZM79.2349 36.435H80.4028C80.7983 36.435 81.0949 36.3361 81.2926 36.1384C81.4965 35.9406 81.5985 35.6749 81.5985 35.3412C81.5985 35.0076 81.4996 34.7481 81.3019 34.5627C81.1041 34.3711 80.8044 34.2753 80.4028 34.2753H79.2349V36.435Z" fill="white"/>
<path d="M92.2723 39.92C91.8398 39.92 91.4505 39.8459 91.1045 39.6976C90.7584 39.5431 90.4866 39.3268 90.2888 39.0487C90.0911 38.7707 89.9922 38.4463 89.9922 38.0755H91.123C91.1477 38.3536 91.2559 38.5822 91.4474 38.7614C91.6452 38.9406 91.9201 39.0302 92.2723 39.0302C92.6369 39.0302 92.9212 38.9437 93.1251 38.7707C93.329 38.5915 93.4309 38.3629 93.4309 38.0848C93.4309 37.8685 93.3661 37.6924 93.2363 37.5565C93.1127 37.4205 92.9551 37.3155 92.7636 37.2413C92.5782 37.1672 92.3187 37.0869 91.985 37.0004C91.5648 36.8891 91.2219 36.7779 90.9562 36.6667C90.6967 36.5493 90.4742 36.3701 90.2888 36.1291C90.1035 35.8881 90.0108 35.5668 90.0108 35.1651C90.0108 34.7944 90.1035 34.47 90.2888 34.1919C90.4742 33.9139 90.7337 33.7007 91.0674 33.5524C91.4011 33.4041 91.7873 33.3299 92.226 33.3299C92.8501 33.3299 93.3599 33.4875 93.7553 33.8026C94.157 34.1116 94.3794 34.538 94.4227 35.0817H93.2548C93.2363 34.8469 93.1251 34.6461 92.9212 34.4793C92.7172 34.3124 92.4484 34.229 92.1148 34.229C91.812 34.229 91.5648 34.3062 91.3733 34.4607C91.1817 34.6152 91.0859 34.8376 91.0859 35.1281C91.0859 35.3258 91.1446 35.4895 91.262 35.6193C91.3856 35.7429 91.5401 35.8418 91.7255 35.9159C91.9109 35.9901 92.1642 36.0704 92.4855 36.1569C92.9119 36.2743 93.2579 36.3917 93.5236 36.5091C93.7955 36.6265 94.0241 36.8088 94.2095 37.056C94.4011 37.297 94.4968 37.6214 94.4968 38.0292C94.4968 38.3567 94.4072 38.6656 94.228 38.9561C94.055 39.2465 93.7986 39.4813 93.4587 39.6605C93.1251 39.8335 92.7296 39.92 92.2723 39.92Z" fill="white"/>
<path d="M98.654 39.0024H100.832V39.8551H97.5974V33.4134H98.654V39.0024Z" fill="white"/>
<path d="M106.508 39.92C105.908 39.92 105.355 39.781 104.849 39.5029C104.348 39.2187 103.95 38.8263 103.653 38.3258C103.363 37.8191 103.217 37.2506 103.217 36.6203C103.217 35.9901 103.363 35.4247 103.653 34.9242C103.95 34.4236 104.348 34.0344 104.849 33.7563C105.355 33.4721 105.908 33.3299 106.508 33.3299C107.113 33.3299 107.666 33.4721 108.167 33.7563C108.674 34.0344 109.072 34.4236 109.363 34.9242C109.653 35.4247 109.798 35.9901 109.798 36.6203C109.798 37.2506 109.653 37.8191 109.363 38.3258C109.072 38.8263 108.674 39.2187 108.167 39.5029C107.666 39.781 107.113 39.92 106.508 39.92ZM106.508 39.0024C106.934 39.0024 107.314 38.9066 107.648 38.7151C107.981 38.5173 108.241 38.2393 108.426 37.8809C108.618 37.5163 108.714 37.0961 108.714 36.6203C108.714 36.1445 108.618 35.7274 108.426 35.3691C108.241 35.0107 107.981 34.7357 107.648 34.5441C107.314 34.3526 106.934 34.2568 106.508 34.2568C106.081 34.2568 105.701 34.3526 105.368 34.5441C105.034 34.7357 104.771 35.0107 104.58 35.3691C104.394 35.7274 104.302 36.1445 104.302 36.6203C104.302 37.0961 104.394 37.5163 104.58 37.8809C104.771 38.2393 105.034 38.5173 105.368 38.7151C105.701 38.9066 106.081 39.0024 106.508 39.0024Z" fill="white"/>
<path d="M117.354 35.2671C117.187 34.9458 116.955 34.7048 116.659 34.5441C116.362 34.3773 116.019 34.2939 115.63 34.2939C115.203 34.2939 114.823 34.3897 114.49 34.5812C114.156 34.7728 113.893 35.0447 113.702 35.3969C113.517 35.7491 113.424 36.1569 113.424 36.6203C113.424 37.0838 113.517 37.4947 113.702 37.8531C113.893 38.2053 114.156 38.4772 114.49 38.6687C114.823 38.8603 115.203 38.9561 115.63 38.9561C116.204 38.9561 116.671 38.7954 117.029 38.4741C117.388 38.1528 117.607 37.7171 117.687 37.1672H115.268V36.3237H118.818V37.1487C118.75 37.6492 118.571 38.1095 118.281 38.5297C117.996 38.9499 117.623 39.2866 117.159 39.54C116.702 39.7872 116.192 39.9107 115.63 39.9107C115.024 39.9107 114.471 39.7717 113.971 39.4936C113.47 39.2094 113.072 38.817 112.775 38.3165C112.485 37.816 112.339 37.2506 112.339 36.6203C112.339 35.9901 112.485 35.4247 112.775 34.9242C113.072 34.4236 113.47 34.0344 113.971 33.7563C114.477 33.4721 115.03 33.3299 115.63 33.3299C116.316 33.3299 116.924 33.4999 117.456 33.8397C117.993 34.1734 118.383 34.6492 118.624 35.2671H117.354Z" fill="white"/>
<path d="M125.598 38.539H122.901L122.437 39.8551H121.334L123.642 33.4041H124.866L127.173 39.8551H126.061L125.598 38.539ZM125.301 37.677L124.254 34.6832L123.197 37.677H125.301Z" fill="white"/>
<path d="M135.323 39.8551H134.266L131.087 35.0446V39.8551H130.031V33.4041H131.087L134.266 38.2053V33.4041H135.323V39.8551Z" fill="white"/>
<path d="M147.97 33.4134V39.8551H146.913V37.0374H143.883V39.8551H142.826V33.4134H143.883V36.1754H146.913V33.4134H147.97Z" fill="white"/>
<path d="M152.271 34.2661V36.1569H154.496V37.0189H152.271V38.9931H154.774V39.8551H151.215V33.4041H154.774V34.2661H152.271Z" fill="white"/>
<path d="M161.275 39.8551L159.792 37.2784H158.986V39.8551H157.929V33.4134H160.154C160.648 33.4134 161.065 33.4999 161.405 33.6729C161.751 33.8459 162.007 34.0776 162.174 34.368C162.347 34.6585 162.434 34.9829 162.434 35.3412C162.434 35.7614 162.31 36.1445 162.063 36.4906C161.822 36.8304 161.448 37.0621 160.942 37.1857L162.536 39.8551H161.275ZM158.986 36.435H160.154C160.549 36.435 160.846 36.3361 161.043 36.1384C161.247 35.9406 161.349 35.6749 161.349 35.3412C161.349 35.0076 161.25 34.7481 161.053 34.5627C160.855 34.3711 160.555 34.2753 160.154 34.2753H158.986V36.435Z" fill="white"/>
<path d="M166.696 34.2661V36.1569H168.92V37.0189H166.696V38.9931H169.198V39.8551H165.639V33.4041H169.198V34.2661H166.696Z" fill="white"/>
</svg>
