<svg width="187" height="55" viewBox="0 0 187 55" fill="none" xmlns="http://www.w3.org/2000/svg">
<path d="M68.4438 23.7122H73.4139V26.1108H65.4185V11.0275H68.4438V23.7122Z" fill="white"/>
<path d="M80.6527 26.3053C79.5002 26.3053 78.463 26.0532 77.541 25.549C76.619 25.0303 75.8915 24.3028 75.3585 23.3664C74.8398 22.43 74.5805 21.3495 74.5805 20.125C74.5805 18.9005 74.847 17.82 75.3801 16.8836C75.9275 15.9472 76.6694 15.2269 77.6058 14.7227C78.5422 14.204 79.5867 13.9447 80.7392 13.9447C81.8917 13.9447 82.9361 14.204 83.8725 14.7227C84.8089 15.2269 85.5437 15.9472 86.0767 16.8836C86.6241 17.82 86.8978 18.9005 86.8978 20.125C86.8978 21.3495 86.6169 22.43 86.0551 23.3664C85.5076 24.3028 84.7585 25.0303 83.8077 25.549C82.8713 26.0532 81.8196 26.3053 80.6527 26.3053ZM80.6527 23.6689C81.2002 23.6689 81.7116 23.5393 82.187 23.28C82.6768 23.0063 83.0658 22.6029 83.3539 22.0698C83.642 21.5368 83.7861 20.8885 83.7861 20.125C83.7861 18.9869 83.4836 18.1153 82.8785 17.5103C82.2878 16.8908 81.5603 16.5811 80.696 16.5811C79.8316 16.5811 79.1041 16.8908 78.5134 17.5103C77.9372 18.1153 77.649 18.9869 77.649 20.125C77.649 21.2631 77.93 22.1419 78.4918 22.7613C79.0681 23.3664 79.7884 23.6689 80.6527 23.6689Z" fill="white"/>
<path d="M93.8063 13.9447C94.6994 13.9447 95.4846 14.1248 96.1617 14.485C96.8388 14.8307 97.3718 15.2845 97.7608 15.8464V14.1392H100.808V26.1972C100.808 27.3065 100.584 28.2933 100.138 29.1577C99.6912 30.0365 99.0213 30.728 98.1281 31.2322C97.2349 31.7508 96.1545 32.0102 94.8867 32.0102C93.1868 32.0102 91.7894 31.614 90.6945 30.8216C89.614 30.0293 89.0018 28.9488 88.8577 27.5802H91.8614C92.0199 28.1277 92.3584 28.5599 92.8771 28.8768C93.4101 29.2081 94.0512 29.3738 94.8003 29.3738C95.6791 29.3738 96.3922 29.1073 96.9396 28.5743C97.487 28.0556 97.7608 27.2633 97.7608 26.1972V24.3388C97.3718 24.9007 96.8316 25.3689 96.1401 25.7434C95.463 26.118 94.685 26.3053 93.8063 26.3053C92.7978 26.3053 91.8758 26.046 91.0403 25.5273C90.2047 25.0087 89.542 24.2812 89.0522 23.3448C88.5768 22.394 88.3391 21.3063 88.3391 20.0818C88.3391 18.8717 88.5768 17.7984 89.0522 16.862C89.542 15.9256 90.1975 15.2053 91.0186 14.7011C91.8542 14.1968 92.7834 13.9447 93.8063 13.9447ZM97.7608 20.125C97.7608 19.3903 97.6167 18.7636 97.3286 18.245C97.0405 17.712 96.6515 17.3086 96.1617 17.0349C95.6719 16.7467 95.146 16.6027 94.5842 16.6027C94.0223 16.6027 93.5037 16.7395 93.0283 17.0133C92.5529 17.287 92.1639 17.6904 91.8614 18.2234C91.5733 18.742 91.4292 19.3615 91.4292 20.0818C91.4292 20.8021 91.5733 21.436 91.8614 21.9834C92.1639 22.5164 92.5529 22.927 93.0283 23.2151C93.5181 23.5033 94.0368 23.6473 94.5842 23.6473C95.146 23.6473 95.6719 23.5105 96.1617 23.2368C96.6515 22.9486 97.0405 22.5453 97.3286 22.0266C97.6167 21.4936 97.7608 20.8597 97.7608 20.125Z" fill="white"/>
<path d="M109.078 26.3053C107.926 26.3053 106.889 26.0532 105.967 25.549C105.045 25.0303 104.317 24.3028 103.784 23.3664C103.265 22.43 103.006 21.3495 103.006 20.125C103.006 18.9005 103.273 17.82 103.806 16.8836C104.353 15.9472 105.095 15.2269 106.031 14.7227C106.968 14.204 108.012 13.9447 109.165 13.9447C110.317 13.9447 111.362 14.204 112.298 14.7227C113.235 15.2269 113.969 15.9472 114.502 16.8836C115.05 17.82 115.323 18.9005 115.323 20.125C115.323 21.3495 115.043 22.43 114.481 23.3664C113.933 24.3028 113.184 25.0303 112.233 25.549C111.297 26.0532 110.245 26.3053 109.078 26.3053ZM109.078 23.6689C109.626 23.6689 110.137 23.5393 110.613 23.28C111.102 23.0063 111.491 22.6029 111.779 22.0698C112.068 21.5368 112.212 20.8885 112.212 20.125C112.212 18.9869 111.909 18.1153 111.304 17.5103C110.713 16.8908 109.986 16.5811 109.122 16.5811C108.257 16.5811 107.53 16.8908 106.939 17.5103C106.363 18.1153 106.075 18.9869 106.075 20.125C106.075 21.2631 106.356 22.1419 106.917 22.7613C107.494 23.3664 108.214 23.6689 109.078 23.6689Z" fill="white"/>
<path d="M135.592 26.1108H132.567L125.717 15.7599V26.1108H122.692V11.0059H125.717L132.567 21.3783V11.0059H135.592V26.1108Z" fill="white"/>
<path d="M137.804 20.0818C137.804 18.8717 138.042 17.7984 138.517 16.862C139.007 15.9256 139.663 15.2053 140.484 14.7011C141.319 14.1968 142.249 13.9447 143.271 13.9447C144.165 13.9447 144.943 14.1248 145.605 14.485C146.282 14.8451 146.823 15.2989 147.226 15.8464V14.1392H150.273V26.1108H147.226V24.3604C146.837 24.9223 146.297 25.3905 145.605 25.765C144.928 26.1252 144.143 26.3053 143.25 26.3053C142.241 26.3053 141.319 26.046 140.484 25.5273C139.663 25.0087 139.007 24.2812 138.517 23.3448C138.042 22.394 137.804 21.3063 137.804 20.0818ZM147.226 20.125C147.226 19.3903 147.082 18.7636 146.794 18.245C146.506 17.712 146.117 17.3086 145.627 17.0349C145.137 16.7467 144.611 16.6027 144.049 16.6027C143.488 16.6027 142.969 16.7395 142.493 17.0133C142.018 17.287 141.629 17.6904 141.327 18.2234C141.038 18.742 140.894 19.3615 140.894 20.0818C140.894 20.8021 141.038 21.436 141.327 21.9834C141.629 22.5164 142.018 22.927 142.493 23.2151C142.983 23.5033 143.502 23.6473 144.049 23.6473C144.611 23.6473 145.137 23.5105 145.627 23.2368C146.117 22.9486 146.506 22.5453 146.794 22.0266C147.082 21.4936 147.226 20.8597 147.226 20.125Z" fill="white"/>
<path d="M168.095 13.9663C169.564 13.9663 170.746 14.4201 171.639 15.3277C172.546 16.2209 173 17.4743 173 19.0878V26.1108H169.975V19.4983C169.975 18.5619 169.737 17.8488 169.262 17.359C168.786 16.8548 168.138 16.6027 167.317 16.6027C166.496 16.6027 165.84 16.8548 165.35 17.359C164.875 17.8488 164.637 18.5619 164.637 19.4983V26.1108H161.612V19.4983C161.612 18.5619 161.374 17.8488 160.899 17.359C160.423 16.8548 159.775 16.6027 158.954 16.6027C158.118 16.6027 157.456 16.8548 156.966 17.359C156.491 17.8488 156.253 18.5619 156.253 19.4983V26.1108H153.228V14.1392H156.253V15.587C156.642 15.0828 157.139 14.6867 157.744 14.3985C158.363 14.1104 159.04 13.9663 159.775 13.9663C160.712 13.9663 161.547 14.168 162.282 14.5714C163.017 14.9604 163.586 15.5222 163.989 16.2569C164.378 15.5654 164.94 15.0108 165.675 14.593C166.424 14.1752 167.23 13.9663 168.095 13.9663Z" fill="white"/>
<path d="M187 19.8657C187 20.2979 186.971 20.6869 186.913 21.0326H178.162C178.234 21.897 178.536 22.5741 179.069 23.0639C179.602 23.5537 180.258 23.7986 181.036 23.7986C182.159 23.7986 182.959 23.316 183.434 22.3508H186.697C186.352 23.5033 185.689 24.4541 184.709 25.2032C183.73 25.9379 182.527 26.3053 181.1 26.3053C179.948 26.3053 178.911 26.0532 177.989 25.549C177.081 25.0303 176.368 24.3028 175.849 23.3664C175.345 22.43 175.093 21.3495 175.093 20.125C175.093 18.8861 175.345 17.7984 175.849 16.862C176.354 15.9256 177.059 15.2053 177.967 14.7011C178.875 14.1968 179.919 13.9447 181.1 13.9447C182.239 13.9447 183.254 14.1896 184.147 14.6794C185.055 15.1693 185.754 15.868 186.243 16.7756C186.748 17.6687 187 18.6988 187 19.8657ZM183.866 19.0013C183.852 18.2234 183.571 17.6039 183.024 17.1429C182.476 16.6675 181.806 16.4298 181.014 16.4298C180.265 16.4298 179.631 16.6603 179.112 17.1213C178.608 17.5679 178.298 18.1946 178.183 19.0013H183.866Z" fill="white"/>
<path d="M70.1401 36.9605L68.0692 40.9492V43.2182H67.0428V40.9492L64.9629 36.9605H66.1064L67.556 40.0308L69.0056 36.9605H70.1401Z" fill="white"/>
<path d="M75.6097 43.2812C75.0275 43.2812 74.4902 43.1462 73.998 42.8761C73.5118 42.5999 73.1246 42.2188 72.8365 41.7326C72.5544 41.2403 72.4133 40.6881 72.4133 40.0758C72.4133 39.4636 72.5544 38.9143 72.8365 38.4281C73.1246 37.9419 73.5118 37.5638 73.998 37.2936C74.4902 37.0175 75.0275 36.8795 75.6097 36.8795C76.198 36.8795 76.7352 37.0175 77.2214 37.2936C77.7136 37.5638 78.1008 37.9419 78.3829 38.4281C78.665 38.9143 78.8061 39.4636 78.8061 40.0758C78.8061 40.6881 78.665 41.2403 78.3829 41.7326C78.1008 42.2188 77.7136 42.5999 77.2214 42.8761C76.7352 43.1462 76.198 43.2812 75.6097 43.2812ZM75.6097 42.3898C76.0239 42.3898 76.3931 42.2968 76.7172 42.1107C77.0413 41.9186 77.2934 41.6485 77.4735 41.3004C77.6596 40.9462 77.7526 40.538 77.7526 40.0758C77.7526 39.6136 77.6596 39.2085 77.4735 38.8603C77.2934 38.5122 77.0413 38.245 76.7172 38.059C76.3931 37.8729 76.0239 37.7798 75.6097 37.7798C75.1955 37.7798 74.8264 37.8729 74.5022 38.059C74.1781 38.245 73.923 38.5122 73.7369 38.8603C73.5568 39.2085 73.4668 39.6136 73.4668 40.0758C73.4668 40.538 73.5568 40.9462 73.7369 41.3004C73.923 41.6485 74.1781 41.9186 74.5022 42.1107C74.8264 42.2968 75.1955 42.3898 75.6097 42.3898Z" fill="white"/>
<path d="M82.6344 36.9605V40.9492C82.6344 41.4234 82.7574 41.7806 83.0035 42.0207C83.2556 42.2608 83.6038 42.3808 84.048 42.3808C84.4982 42.3808 84.8463 42.2608 85.0924 42.0207C85.3445 41.7806 85.4706 41.4234 85.4706 40.9492V36.9605H86.497V40.9312C86.497 41.4414 86.386 41.8736 86.1639 42.2278C85.9418 42.5819 85.6447 42.846 85.2725 43.0201C84.9004 43.1942 84.4892 43.2812 84.039 43.2812C83.5888 43.2812 83.1776 43.1942 82.8054 43.0201C82.4393 42.846 82.1482 42.5819 81.9321 42.2278C81.716 41.8736 81.6079 41.4414 81.6079 40.9312V36.9605H82.6344Z" fill="white"/>
<path d="M92.8847 43.2182L91.4441 40.7151H90.6607V43.2182H89.6343V36.9605H91.7952C92.2754 36.9605 92.6806 37.0445 93.0107 37.2126C93.3469 37.3807 93.596 37.6058 93.7581 37.8879C93.9261 38.17 94.0102 38.4852 94.0102 38.8333C94.0102 39.2415 93.8901 39.6136 93.65 39.9498C93.4159 40.2799 93.0527 40.505 92.5605 40.6251L94.1092 43.2182H92.8847ZM90.6607 39.8958H91.7952C92.1794 39.8958 92.4675 39.7997 92.6596 39.6076C92.8577 39.4156 92.9567 39.1574 92.9567 38.8333C92.9567 38.5092 92.8607 38.2571 92.6686 38.077C92.4765 37.8909 92.1854 37.7979 91.7952 37.7979H90.6607V39.8958Z" fill="white"/>
<path d="M103.326 43.2812C102.905 43.2812 102.527 43.2092 102.191 43.0651C101.855 42.9151 101.591 42.705 101.399 42.4349C101.207 42.1647 101.111 41.8496 101.111 41.4895H102.209C102.233 41.7596 102.338 41.9817 102.524 42.1557C102.716 42.3298 102.983 42.4169 103.326 42.4169C103.68 42.4169 103.956 42.3328 104.154 42.1647C104.352 41.9907 104.451 41.7686 104.451 41.4985C104.451 41.2884 104.388 41.1173 104.262 40.9852C104.142 40.8532 103.989 40.7511 103.803 40.6791C103.623 40.6071 103.371 40.529 103.046 40.445C102.638 40.337 102.305 40.2289 102.047 40.1209C101.795 40.0068 101.579 39.8327 101.399 39.5986C101.219 39.3645 101.129 39.0524 101.129 38.6622C101.129 38.3021 101.219 37.9869 101.399 37.7168C101.579 37.4467 101.831 37.2396 102.155 37.0956C102.479 36.9515 102.854 36.8795 103.281 36.8795C103.887 36.8795 104.382 37.0325 104.766 37.3387C105.156 37.6388 105.372 38.053 105.415 38.5812H104.28C104.262 38.3531 104.154 38.158 103.956 37.9959C103.758 37.8339 103.497 37.7528 103.173 37.7528C102.878 37.7528 102.638 37.8279 102.452 37.9779C102.266 38.128 102.173 38.3441 102.173 38.6262C102.173 38.8183 102.23 38.9774 102.344 39.1034C102.464 39.2235 102.614 39.3195 102.794 39.3915C102.974 39.4636 103.221 39.5416 103.533 39.6256C103.947 39.7397 104.283 39.8537 104.541 39.9678C104.805 40.0818 105.027 40.2589 105.207 40.499C105.394 40.7331 105.487 41.0483 105.487 41.4444C105.487 41.7626 105.4 42.0627 105.225 42.3448C105.057 42.6269 104.808 42.855 104.478 43.0291C104.154 43.1972 103.77 43.2812 103.326 43.2812Z" fill="white"/>
<path d="M109.525 42.3898H111.641V43.2182H108.498V36.9605H109.525V42.3898Z" fill="white"/>
<path d="M117.154 43.2812C116.572 43.2812 116.035 43.1462 115.543 42.8761C115.056 42.5999 114.669 42.2188 114.381 41.7326C114.099 41.2403 113.958 40.6881 113.958 40.0758C113.958 39.4636 114.099 38.9143 114.381 38.4281C114.669 37.9419 115.056 37.5638 115.543 37.2936C116.035 37.0175 116.572 36.8795 117.154 36.8795C117.743 36.8795 118.28 37.0175 118.766 37.2936C119.258 37.5638 119.645 37.9419 119.927 38.4281C120.21 38.9143 120.351 39.4636 120.351 40.0758C120.351 40.6881 120.21 41.2403 119.927 41.7326C119.645 42.2188 119.258 42.5999 118.766 42.8761C118.28 43.1462 117.743 43.2812 117.154 43.2812ZM117.154 42.3898C117.568 42.3898 117.938 42.2968 118.262 42.1107C118.586 41.9186 118.838 41.6485 119.018 41.3004C119.204 40.9462 119.297 40.538 119.297 40.0758C119.297 39.6136 119.204 39.2085 119.018 38.8603C118.838 38.5122 118.586 38.245 118.262 38.059C117.938 37.8729 117.568 37.7798 117.154 37.7798C116.74 37.7798 116.371 37.8729 116.047 38.059C115.723 38.245 115.468 38.5122 115.281 38.8603C115.101 39.2085 115.011 39.6136 115.011 40.0758C115.011 40.538 115.101 40.9462 115.281 41.3004C115.468 41.6485 115.723 41.9186 116.047 42.1107C116.371 42.2968 116.74 42.3898 117.154 42.3898Z" fill="white"/>
<path d="M127.69 38.7613C127.528 38.4491 127.303 38.215 127.015 38.059C126.727 37.8969 126.394 37.8159 126.016 37.8159C125.602 37.8159 125.232 37.9089 124.908 38.095C124.584 38.2811 124.329 38.5452 124.143 38.8873C123.963 39.2295 123.873 39.6256 123.873 40.0758C123.873 40.526 123.963 40.9252 124.143 41.2734C124.329 41.6155 124.584 41.8796 124.908 42.0657C125.232 42.2518 125.602 42.3448 126.016 42.3448C126.574 42.3448 127.027 42.1888 127.375 41.8766C127.723 41.5645 127.937 41.1413 128.015 40.6071H125.665V39.7877H129.113V40.5891C129.047 41.0753 128.873 41.5225 128.591 41.9306C128.315 42.3388 127.952 42.666 127.501 42.9121C127.057 43.1522 126.562 43.2722 126.016 43.2722C125.427 43.2722 124.89 43.1372 124.404 42.8671C123.918 42.5909 123.531 42.2098 123.243 41.7236C122.96 41.2373 122.819 40.6881 122.819 40.0758C122.819 39.4636 122.96 38.9143 123.243 38.4281C123.531 37.9419 123.918 37.5638 124.404 37.2936C124.896 37.0175 125.433 36.8795 126.016 36.8795C126.682 36.8795 127.273 37.0445 127.789 37.3747C128.312 37.6988 128.69 38.161 128.924 38.7613H127.69Z" fill="white"/>
<path d="M135.699 41.9396H133.079L132.629 43.2182H131.557L133.799 36.9515H134.988L137.229 43.2182H136.149L135.699 41.9396ZM135.411 41.1023L134.393 38.194L133.367 41.1023H135.411Z" fill="white"/>
<path d="M145.146 43.2182H144.12L141.032 38.5452V43.2182H140.005V36.9515H141.032L144.12 41.6155V36.9515H145.146V43.2182Z" fill="white"/>
<path d="M157.432 36.9605V43.2182H156.405V40.481H153.461V43.2182H152.435V36.9605H153.461V39.6437H156.405V36.9605H157.432Z" fill="white"/>
<path d="M161.61 37.7889V39.6256H163.771V40.463H161.61V42.3808H164.041V43.2182H160.584V36.9515H164.041V37.7889H161.61Z" fill="white"/>
<path d="M170.357 43.2182L168.916 40.7151H168.133V43.2182H167.106V36.9605H169.267C169.748 36.9605 170.153 37.0445 170.483 37.2126C170.819 37.3807 171.068 37.6058 171.23 37.8879C171.398 38.17 171.482 38.4852 171.482 38.8333C171.482 39.2415 171.362 39.6136 171.122 39.9498C170.888 40.2799 170.525 40.505 170.033 40.6251L171.581 43.2182H170.357ZM168.133 39.8958H169.267C169.652 39.8958 169.94 39.7997 170.132 39.6076C170.33 39.4156 170.429 39.1574 170.429 38.8333C170.429 38.5092 170.333 38.2571 170.141 38.077C169.949 37.8909 169.658 37.7979 169.267 37.7979H168.133V39.8958Z" fill="white"/>
<path d="M175.623 37.7889V39.6256H177.784V40.463H175.623V42.3808H178.054V43.2182H174.596V36.9515H178.054V37.7889H175.623Z" fill="white"/>
<g clip-path="url(#clip0_1080_263)">
<path d="M26.0146 51.9961L52.0068 26.0039L27.9984 1.99543L2.00613 27.9877L26.0146 51.9961Z" stroke="#0699EB" stroke-width="4" stroke-miterlimit="10"/>
<path d="M21.2207 13.0215V41.7956L26.472 47.0469L30.5004 43.0185V13.0215H21.2207Z" fill="#009F4E"/>
<path d="M44.7435 17.4082H35.4639V38.0536L44.7435 28.774V17.4082Z" fill="#2FB562"/>
<path d="M6.97754 0.144531V27.5519L16.2572 36.8315V0.144531H6.97754Z" fill="#007A41"/>
</g>
<defs>
<clipPath id="clip0_1080_263">
<rect width="54.0234" height="54.0234" fill="white"/>
</clipPath>
</defs>
</svg>
