<svg width="136" height="39" viewBox="0 0 136 39" fill="none" xmlns="http://www.w3.org/2000/svg">
<g clip-path="url(#clip0_1080_274)">
<path d="M2.75586 5.26217C1.89258 5.26217 1.22852 4.99573 0.730469 4.49616C0.232422 3.99658 0 3.3971 0 2.63108C0 1.89838 0.265625 1.29889 0.763672 0.766012C1.26172 0.266439 1.92578 0 2.75586 0C3.55273 0 4.2168 0.266439 4.71484 0.766012C5.21289 1.26559 5.47852 1.89838 5.47852 2.63108C5.47852 3.3971 5.21289 3.99658 4.71484 4.49616C4.2168 4.99573 3.55273 5.26217 2.75586 5.26217ZM0.298828 29.6413V9.82494H5.21289V29.6413H0.298828Z" fill="white"/>
<path d="M15.8047 29.6417H10.9238V9.82534H14.7422L15.373 12.4564C16.3027 11.5239 17.332 10.7579 18.4277 10.2583C19.5234 9.72542 20.7187 9.45898 22.0469 9.45898C24.1719 9.45898 25.832 10.0585 26.9941 11.2241C28.1562 12.4231 28.7539 14.0884 28.7539 16.2532V29.6417H23.8066V16.8194C23.8066 15.7536 23.541 14.921 23.0098 14.2549C22.4785 13.5888 21.6484 13.289 20.5859 13.289C19.7891 13.289 18.959 13.4889 18.1289 13.9218C17.2988 14.3548 16.5352 14.921 15.8379 15.6537V29.6417H15.8047Z" fill="white"/>
<path d="M66.4062 29.6417V9.82534H70.1914L70.8223 13.5555C71.2871 12.4231 72.0508 11.4573 73.0801 10.658C74.1094 9.85864 75.3711 9.45898 76.8984 9.45898C77.5625 9.45898 78.1602 9.52559 78.6582 9.65881C79.1562 9.79203 79.5879 9.95856 79.9199 10.1251L79.0898 14.1217C78.791 13.9551 78.4258 13.8219 77.9609 13.6887C77.5293 13.5555 76.9648 13.4889 76.334 13.4889C74.9062 13.4889 73.7109 13.9884 72.748 14.9543C71.7852 15.9201 71.2871 17.4855 71.2871 19.5837V29.6417H66.4062Z" fill="white"/>
<path d="M82.1113 11.5573C83.3398 10.8912 84.5684 10.3583 85.8301 9.99196C87.0918 9.62561 88.4531 9.42578 89.9473 9.42578C91.1094 9.42578 92.1719 9.559 93.1016 9.82544C94.0312 10.0919 94.8613 10.5248 95.5586 11.091C96.2559 11.6905 96.7871 12.4232 97.1523 13.3558C97.5176 14.2883 97.7168 15.4207 97.7168 16.7529V29.6418H93.832L93.334 27.5436H93.2012C91.7734 29.2089 89.7812 30.0415 87.1582 30.0415C85.0664 30.0415 83.4395 29.5086 82.2773 28.3763C81.1152 27.2772 80.5176 25.8451 80.5176 24.0799C80.5176 22.9809 80.75 22.015 81.2148 21.1824C81.6797 20.3831 82.3437 19.717 83.1406 19.1841C83.9707 18.6512 84.9336 18.2516 86.0625 17.9851C87.1914 17.7187 88.4199 17.5855 89.7812 17.5855H92.7031V16.22C92.7031 15.1209 92.3711 14.3549 91.7402 13.8886C91.1094 13.4224 90.2461 13.1892 89.1504 13.1892C88.3867 13.1892 87.5566 13.3225 86.6602 13.5556C85.7969 13.822 84.834 14.2217 83.7715 14.8545L82.1113 11.5573ZM92.8027 20.7827L90.5449 20.8827C88.7188 20.9493 87.4238 21.249 86.7266 21.8152C85.9961 22.3814 85.6309 23.0808 85.6309 23.8801C85.6309 24.9125 85.9297 25.6119 86.5606 25.9783C87.1582 26.3447 87.8887 26.5112 88.6855 26.5112C89.4824 26.5112 90.2461 26.3114 91.0098 25.9117C91.7402 25.512 92.3379 24.9459 92.8359 24.2131V20.7827H92.8027Z" fill="white"/>
<path d="M114.352 13.4225H108.906V23.3473C108.906 24.2799 109.139 24.946 109.604 25.279C110.068 25.6121 110.666 25.8119 111.363 25.8119C111.928 25.8119 112.492 25.7453 113.123 25.6454C113.721 25.5455 114.252 25.3789 114.65 25.1791L115.414 28.6761C114.883 28.9093 114.186 29.1091 113.256 29.3089C112.359 29.5087 111.396 29.6087 110.367 29.6087C108.109 29.6087 106.516 29.1424 105.52 28.2432C104.523 27.3106 104.025 25.9451 104.025 24.1134V13.4225H101.037V9.82557H104.025V3.63086H108.906V9.82557H114.352V13.4225Z" fill="white"/>
<path d="M136 20.8494H122.553V21.0159C122.553 22.8143 123.117 24.1798 124.246 25.0791C125.375 25.9783 126.836 26.4113 128.695 26.4113C129.791 26.4113 130.754 26.3114 131.584 26.1115C132.414 25.9117 133.244 25.6453 134.008 25.3122L134.971 28.7759C134.174 29.1423 133.211 29.442 132.082 29.7084C130.986 29.9749 129.691 30.0748 128.197 30.0748C126.736 30.0748 125.342 29.875 124.047 29.4753C122.752 29.0757 121.623 28.4762 120.66 27.6435C119.697 26.8109 118.934 25.7452 118.336 24.4796C117.771 23.214 117.473 21.682 117.473 19.8835C117.473 18.3182 117.705 16.9194 118.17 15.6205C118.635 14.3549 119.299 13.2558 120.162 12.3233C121.025 11.3908 122.055 10.6914 123.283 10.1918C124.512 9.69222 125.84 9.42578 127.334 9.42578C129.957 9.42578 132.082 10.2251 133.609 11.857C135.17 13.4557 135.934 15.7204 135.934 18.5846V20.8494H136ZM130.986 17.419C130.986 16.8195 130.92 16.2866 130.787 15.7204C130.654 15.1875 130.422 14.688 130.123 14.2883C129.824 13.8553 129.426 13.5556 128.928 13.3225C128.43 13.0893 127.865 12.9561 127.201 12.9561C125.939 12.9561 124.91 13.3891 124.113 14.2217C123.316 15.0543 122.818 16.1534 122.652 17.5189L130.986 17.419Z" fill="white"/>
<path d="M69.0621 38.6681C63.4508 39.4008 59.0016 38.8346 55.5152 37.7022C55.4488 37.6689 55.3824 37.6689 55.316 37.6356C54.1871 37.2693 53.1578 36.803 52.2281 36.3367C37.1207 35.271 37.5855 22.6484 37.5855 22.6484C38.0504 25.5127 39.6773 27.9772 41.9684 29.5759C43.1637 30.4085 44.525 31.008 46.0191 31.3077C46.65 31.4409 47.3141 31.5075 48.0113 31.5075C48.3434 31.5075 48.6422 31.4742 48.9742 31.4409C51.0992 31.2411 53.0582 30.4085 54.6187 29.1429C54.6187 29.1429 54.6188 29.1429 54.652 29.1429C55.4488 28.4768 56.6109 28.7765 57.0094 29.7424C57.441 30.8081 58.1051 31.774 58.8688 32.6399C59.3336 33.1728 59.8316 33.639 60.3629 34.1053C64.0816 37.2027 69.0621 38.6681 69.0621 38.6681Z" fill="url(#paint0_linear_1080_274)"/>
<path d="M45.0234 15.5867L53.8555 20.6823C54.1543 20.8488 54.1543 21.2485 53.8555 21.415L45.0234 26.5106C44.7246 26.6772 44.3926 26.4773 44.3926 26.1443V15.9863C44.3926 15.6533 44.7578 15.4534 45.0234 15.5867Z" fill="url(#paint1_linear_1080_274)"/>
<path d="M63.9492 20.883C63.9492 21.1162 63.9492 21.316 63.9492 21.5491C63.916 22.1819 63.8496 22.7814 63.75 23.3809V23.4142C63.3848 25.146 62.3223 27.3109 59.2344 26.1452C58.3379 25.0461 58.3047 23.614 58.3711 22.7814C58.4043 22.5483 58.4375 22.3151 58.4707 22.082C58.4707 22.0487 58.4707 22.0487 58.4707 22.0487C58.5039 21.649 58.5371 21.2827 58.5371 20.883C58.5371 17.4859 56.9102 14.4552 54.4199 12.4902C54.4199 12.4902 54.3867 12.4569 54.3535 12.4236C53.457 11.6243 42.4004 2.19899 34.0664 13.0231C36.7891 8.12726 42.002 4.83008 47.9785 4.83008C50.4688 4.83008 52.8594 5.39626 54.9512 6.46202C60.2969 9.0931 63.9492 14.5884 63.9492 20.883Z" fill="url(#paint2_linear_1080_274)"/>
<path d="M52.2285 36.3369C51.1992 36.6366 50.1367 36.8031 49.0742 36.8697C48.709 36.903 48.377 36.903 48.0117 36.903C41.7031 36.903 36.2246 33.2062 33.6348 27.8441C32.6055 25.7459 32.041 23.3813 32.041 20.8834C32.041 18.0525 32.7715 15.3881 34.0664 13.0901C42.4336 2.26598 53.457 11.6913 54.3535 12.4906C52.5937 11.1251 50.3691 10.3258 47.9785 10.3258C42.168 10.3258 37.4199 15.0883 37.4199 20.9167C37.4199 21.5162 37.4863 22.0824 37.5527 22.6486C37.5859 22.6486 37.1211 35.2711 52.2285 36.3369Z" fill="url(#paint3_linear_1080_274)"/>
</g>
<defs>
<linearGradient id="paint0_linear_1080_274" x1="74.3003" y1="39.2999" x2="44.2365" y2="29.6784" gradientUnits="userSpaceOnUse">
<stop stop-color="#FFB400"/>
<stop offset="1" stop-color="#DA1C5C"/>
</linearGradient>
<linearGradient id="paint1_linear_1080_274" x1="49.2297" y1="26.62" x2="49.2297" y2="15.5447" gradientUnits="userSpaceOnUse">
<stop stop-color="#F7941E"/>
<stop offset="1" stop-color="#DA1C5C"/>
</linearGradient>
<linearGradient id="paint2_linear_1080_274" x1="40.6716" y1="5.35743" x2="63.5107" y2="27.9321" gradientUnits="userSpaceOnUse">
<stop stop-color="#FFB400"/>
<stop offset="1" stop-color="#DA1C5C"/>
</linearGradient>
<linearGradient id="paint3_linear_1080_274" x1="41.6227" y1="8.99896" x2="46.3693" y2="34.1209" gradientUnits="userSpaceOnUse">
<stop stop-color="#DA1C5C"/>
<stop offset="1" stop-color="#FFB400"/>
</linearGradient>
<clipPath id="clip0_1080_274">
<rect width="136" height="39" fill="white"/>
</clipPath>
</defs>
</svg>
