<svg width="178" height="38" viewBox="0 0 178 38" fill="none" xmlns="http://www.w3.org/2000/svg">
<path d="M70.4266 3.5957C74.6637 3.5957 76.7091 5.95764 76.7091 8.8206C76.7091 10.8963 75.6133 13.0435 72.6182 13.8308L77.0013 21.0598H73.5679L69.4769 14.1171H67.2854V21.0598H64.3633V3.5957H70.4266ZM70.4266 5.95764H67.2123V11.7551H70.4266C72.6913 11.7551 73.714 10.5384 73.714 8.8206C73.714 7.03125 72.6913 5.95764 70.4266 5.95764Z" fill="white"/>
<path d="M92.7802 5.88607H85.9133V10.9678H92.0497V13.2582H85.9133V18.5547H92.7802V20.845H82.9912V3.5957H92.7802V5.88607Z" fill="white"/>
<path d="M111.117 3.5957H114.185L107.537 20.9882H104.177L97.4561 3.5957H100.597L105.857 18.0537L111.117 3.5957Z" fill="white"/>
<path d="M119.152 3.5957H122.074V20.9882H119.152V3.5957Z" fill="white"/>
<path d="M140.703 3.5957H143.771L137.123 20.9882H133.763L127.042 3.5957H130.183L135.443 18.0537L140.703 3.5957Z" fill="white"/>
<path d="M159.404 17.4095H152.026L150.784 20.9882H147.643L153.998 3.5957H157.359L163.714 20.9882H160.646L159.404 17.4095ZM155.751 7.03126L152.829 15.1191H158.6L155.751 7.03126Z" fill="white"/>
<path d="M171.969 3.5957V18.6978H177.959V20.9882H169.047V3.5957H171.969Z" fill="white"/>
<path d="M69.7692 35.7317C69.4039 35.8749 68.7464 36.0896 67.8698 36.0896C65.8243 36.0896 64.3633 34.8729 64.3633 32.5109C64.3633 30.2921 65.8974 28.7891 68.089 28.7891C68.9656 28.7891 69.55 29.0038 69.7692 29.0754L69.55 29.7911C69.1847 29.648 68.6734 29.5048 68.089 29.5048C66.4087 29.5048 65.313 30.5784 65.313 32.3678C65.313 34.0855 66.3357 35.1592 68.089 35.1592C68.6734 35.1592 69.2578 35.016 69.623 34.8729L69.7692 35.7317Z" fill="white"/>
<path d="M78.2427 28.9316V31.8662H81.6761V28.9316H82.6258V35.9459H81.6761V32.6535H78.2427V35.9459H77.293V28.9316H78.2427Z" fill="white"/>
<path d="M91.5387 28.9329V33.0842C91.5387 34.6588 92.2693 35.303 93.2189 35.303C94.3147 35.303 94.9722 34.5872 94.9722 33.0842V28.9329H95.9219V33.0126C95.9219 35.1598 94.753 36.0187 93.2189 36.0187C91.7579 36.0187 90.6621 35.2314 90.6621 33.0126V28.8613H91.5387V28.9329Z" fill="white"/>
<path d="M103.885 29.0748C104.323 29.0032 105.053 28.9316 105.638 28.9316C106.661 28.9316 107.245 29.0748 107.683 29.5042C108.049 29.7905 108.268 30.2915 108.268 30.8641C108.268 31.7946 107.683 32.4388 106.953 32.6535C107.537 32.8682 107.829 33.3692 107.976 34.085C108.195 35.087 108.414 35.7312 108.56 36.0175H107.61C107.464 35.8027 107.318 35.2302 107.099 34.3713C106.88 33.3692 106.514 33.0114 105.638 33.0114H104.761V36.0175H103.812V29.0748H103.885ZM104.761 32.224H105.711C106.734 32.224 107.318 31.723 107.318 30.8641C107.318 29.9337 106.661 29.5758 105.638 29.5758C105.2 29.5758 104.907 29.6474 104.688 29.6474V32.224H104.761Z" fill="white"/>
<path d="M120.979 35.7317C120.614 35.8749 119.956 36.0896 119.08 36.0896C117.034 36.0896 115.573 34.8729 115.573 32.5109C115.573 30.2921 117.107 28.7891 119.299 28.7891C120.176 28.7891 120.76 29.0038 120.979 29.0754L120.76 29.7911C120.395 29.648 119.883 29.5048 119.299 29.5048C117.619 29.5048 116.523 30.5784 116.523 32.3678C116.523 34.0855 117.546 35.1592 119.299 35.1592C119.883 35.1592 120.468 35.016 120.833 34.8729L120.979 35.7317Z" fill="white"/>
<path d="M129.453 28.9316V31.8662H132.886V28.9316H133.836V35.9459H132.886V32.6535H129.453V35.9459H128.503V28.9316H129.453Z" fill="white"/>
<path d="M33.1376 23.9958C33.9354 23.5749 34.549 23.0338 35.1627 22.3724C35.715 21.7111 36.2059 20.9294 36.5741 20.0276C36.9423 19.1257 37.1264 18.1637 37.1264 17.0815C37.1264 15.9993 36.9423 14.9772 36.5741 14.0152C36.2059 13.0532 35.715 12.2716 35.04 11.6102C34.3649 10.9488 33.6285 10.4077 32.708 10.047C31.7876 9.68623 30.7443 9.50586 29.6398 9.50586H23.3191C23.135 9.50586 22.9509 9.50586 22.7668 9.50586C22.7054 9.50586 22.5827 9.50586 22.5213 9.50586H9.81855C9.26626 9.50586 8.8367 9.68623 8.4685 10.047C8.10031 10.4077 7.91621 10.8286 7.91621 11.3697C7.91621 12.3918 8.77533 13.2336 9.81855 13.2336H15.5256H22.4599H25.8964C26.9397 13.2336 27.7988 14.0753 27.7988 15.0974C27.7988 15.6385 27.6147 16.0594 27.2465 16.4201C26.8783 16.7809 26.4487 16.9612 25.8964 16.9612H14.5437H13.8073H1.90234C1.35005 16.9612 0.920489 17.1416 0.552294 17.5024C0.184098 17.8631 0 18.3441 0 18.8852C0 19.9073 0.859123 20.7491 1.90234 20.7491H13.6232H14.4824H16.3233C17.3666 20.7491 18.2257 21.5908 18.2257 22.6129C18.2257 23.154 18.0416 23.5749 17.6734 23.9356C17.3052 24.2964 16.8756 24.4768 16.3233 24.4768H14.3596H10.6777C10.1254 24.4768 9.69582 24.7173 9.32762 25.0179C8.95943 25.3786 8.77533 25.7995 8.77533 26.3406C8.77533 27.3627 9.63445 28.2045 10.6777 28.2045H16.0779H19.3303C20.3735 28.2045 21.2326 29.0462 21.2326 30.0683C21.2326 30.6094 21.0485 31.0303 20.6803 31.391C20.3121 31.7518 19.8826 31.9321 19.3303 31.9321H19.2689H19.0234C18.5939 31.9923 18.2257 32.1726 17.9189 32.4733C17.5507 32.834 17.3666 33.2549 17.3666 33.796C17.3666 34.8181 18.2257 35.6598 19.2689 35.6598H24.1782C26.8783 37.0427 29.8852 37.7642 33.0762 37.7642C33.5672 37.7642 34.1195 37.7041 34.6104 37.7041C36.3286 37.5237 37.3105 35.6598 36.4514 34.2169L32.2171 27.002C31.6035 25.9197 32.033 24.597 33.1376 23.9958Z" fill="#0699EB"/>
<path d="M52.0995 18.3443C51.7927 8.42384 43.5083 0.30709 33.3829 0.00646952C28.6577 -0.113779 24.3008 1.44945 20.8643 4.09491H29.5782C31.3578 4.09491 33.0761 4.45565 34.6716 5.11702C36.2671 5.77838 37.6172 6.68024 38.7831 7.88273C39.9491 9.08521 40.8696 10.4079 41.5446 12.0313C42.2196 13.5945 42.5264 15.278 42.5264 17.1418C42.5264 19.4266 42.1582 21.4107 41.3605 23.0941C41.0537 23.8156 40.6241 24.4169 40.1945 25.0181C39.0899 26.5212 38.9058 28.5053 39.8263 30.1888C41.4832 33.0747 45.5947 33.4956 47.7425 30.9103C50.6267 27.4231 52.2836 23.0941 52.0995 18.3443Z" fill="#0699EB"/>
</svg>
