<svg width="119" height="49" viewBox="0 0 119 49" fill="none" xmlns="http://www.w3.org/2000/svg">
<path d="M33.1222 30.8227C33.052 30.8227 33.0169 30.8227 32.9467 30.8227L30.1036 25.755L29.5068 24.7137L29.1207 24.0195C30.3142 23.5683 31.297 22.9088 32.0692 22.1105C32.2447 21.9369 32.4202 21.7286 32.5606 21.5204C32.6659 21.3815 32.7712 21.208 32.8765 21.0344C33.4732 20.0278 33.7892 18.8824 33.7892 17.5634C33.7892 15.2031 33.052 13.3982 31.5778 12.1486C30.1036 10.899 27.9975 10.2742 25.2245 10.2742H17.1513V20.132C16.344 20.5138 15.6771 21.208 15.3612 22.0757H5.63824V6.90735C6.86677 6.31727 7.74429 5.0677 7.74429 3.60987C7.74429 1.63138 6.09455 0 4.0938 0C2.05795 0 0.408203 1.63138 0.408203 3.64458C0.408203 5.0677 1.25062 6.28256 2.44405 6.90735V30.198C1.25062 30.8227 0.408203 32.0376 0.408203 33.4607C0.408203 35.4739 2.05795 37.1053 4.0938 37.1053C6.12965 37.1053 7.77939 35.4739 7.77939 33.4607C7.77939 32.0029 6.93697 30.7533 5.67334 30.1632V24.7484H15.3612C15.6771 25.6162 16.344 26.3104 17.1513 26.6922V41.2705C15.9228 41.8606 15.1155 43.1102 15.1155 44.5333C15.1155 46.5465 16.7652 48.1779 18.8011 48.1779C20.8369 48.1779 22.4867 46.5465 22.4867 44.5333C22.4867 43.1102 21.6442 41.8606 20.4508 41.2705V26.6922C21.2932 26.2757 21.9251 25.5815 22.241 24.7484H24.9437H26.1723L26.7339 25.7897L30.244 32.2806C29.7525 32.9054 29.4717 33.669 29.4717 34.502C29.4717 36.5152 31.1215 38.1466 33.1573 38.1466C35.1932 38.1466 36.8429 36.5152 36.8429 34.502C36.8078 32.4541 35.1581 30.8227 33.1222 30.8227ZM2.05795 3.64458C2.05795 2.53385 2.97057 1.63138 4.0938 1.63138C5.21703 1.63138 6.12965 2.53385 6.12965 3.64458C6.12965 4.13052 5.95414 4.58176 5.67334 4.92886C5.28723 5.3801 4.72561 5.65778 4.0938 5.65778C3.42688 5.65778 2.83016 5.34538 2.44405 4.82473C2.19835 4.47763 2.05795 4.0611 2.05795 3.64458ZM6.12965 33.4607C6.12965 34.5714 5.21703 35.4739 4.0938 35.4739C2.97057 35.4739 2.05795 34.5714 2.05795 33.4607C2.05795 33.0095 2.19835 32.593 2.44405 32.2806C2.83016 31.7946 3.42688 31.4475 4.0938 31.4475C4.72561 31.4475 5.28723 31.7252 5.67334 32.1764C5.95414 32.5235 6.12965 32.9748 6.12965 33.4607ZM20.8018 44.5333C20.8018 45.644 19.8892 46.5465 18.766 46.5465C17.6427 46.5465 16.7301 45.644 16.7301 44.5333C16.7301 44.0821 16.8705 43.6308 17.1513 43.3184C17.5374 42.8325 18.0991 42.5201 18.766 42.5201C19.4329 42.5201 19.9945 42.8325 20.3806 43.3184C20.6614 43.6308 20.8018 44.0474 20.8018 44.5333ZM18.766 25.7897C17.9937 25.7897 17.3268 25.3732 16.9758 24.7484C16.8003 24.4708 16.7301 24.1237 16.7301 23.7766C16.7301 23.0823 17.0811 22.4923 17.6076 22.1105C17.9235 21.8675 18.3448 21.7634 18.766 21.7634C19.1872 21.7634 19.6084 21.9022 19.9243 22.1105C20.4508 22.4576 20.8018 23.0823 20.8018 23.7766C20.8018 24.1237 20.6965 24.4708 20.5561 24.7484C20.2051 25.3732 19.5382 25.7897 18.766 25.7897ZM25.3298 22.1105H22.1708C21.8197 21.2774 21.1879 20.5832 20.3806 20.1667V12.9469H25.2947C26.9796 12.9469 28.2783 13.3635 29.1909 14.1618C30.1036 14.9601 30.5248 16.1056 30.5248 17.5981C30.5248 18.9865 30.0685 20.0625 29.1207 20.8956C29.0505 20.965 28.9803 20.9997 28.9101 21.0691C27.9975 21.7634 26.8041 22.1105 25.3298 22.1105ZM33.1222 36.4805C31.999 36.4805 31.0864 35.578 31.0864 34.4673C31.0864 34.2938 31.1215 34.1202 31.1566 33.9814C31.3672 33.1136 32.1745 32.4541 33.1222 32.4541C33.403 32.4541 33.6838 32.5235 33.9296 32.6277C34.6316 32.9401 35.1581 33.6343 35.1581 34.4673C35.1581 35.578 34.2455 36.4805 33.1222 36.4805Z" fill="#15A4F8"/>
<path d="M47.1861 29.5727V14.4043H40.1309V11.2109H57.4707V14.4043H50.4154V29.5727H47.1861Z" fill="white"/>
<path d="M59.6465 29.5727V11.2109H76.2141V14.4043H62.8407V26.3793H76.2492V29.5727H59.6465ZM65.2275 21.5893V18.8819H75.5121V21.5893H65.2275Z" fill="white"/>
<path d="M87.517 29.5722C86.2183 29.5722 85.0249 29.3293 83.9367 28.8433C82.8486 28.3574 81.9009 27.6979 81.0585 26.8648C80.2511 26.0318 79.6193 25.0252 79.163 23.8797C78.7067 22.7343 78.4961 21.4847 78.4961 20.1657C78.4961 18.812 78.7067 17.5972 79.163 16.4865C79.6193 15.3757 80.2511 14.4385 81.0585 13.6402C81.8658 12.8419 82.8135 12.2518 83.9367 11.8353C85.0249 11.4188 86.2183 11.1758 87.517 11.1758H97.591V14.3691H87.517C86.6746 14.3691 85.9024 14.508 85.2004 14.8204C84.4983 15.098 83.9016 15.5146 83.3751 16.0352C82.8486 16.5559 82.4625 17.1807 82.1817 17.9096C81.9009 18.6385 81.7605 19.4368 81.7605 20.3046C81.7605 21.1723 81.9009 21.9707 82.1817 22.6996C82.4625 23.4285 82.8837 24.088 83.3751 24.6087C83.9016 25.1293 84.4983 25.5458 85.2004 25.8582C85.9024 26.1706 86.6746 26.3095 87.517 26.3095H97.591V29.5028H87.517V29.5722Z" fill="white"/>
<path d="M100.224 29.6421V11.2109H103.453V29.6421H100.224ZM115.142 29.6421V21.6587H105.805V18.8125H115.142V11.2109H118.371V29.6421H115.142Z" fill="white"/>
<path d="M44.0274 37.4863V39.4301H46.2738V37.4863H46.8706V42.1028H46.2738V39.9508H44.0274V42.1028H43.4307V37.4863H44.0274Z" fill="white"/>
<path d="M56.1016 39.7431C56.1016 41.3398 55.1188 42.1728 53.9254 42.1728C52.6969 42.1728 51.8193 41.2357 51.8193 39.8125C51.8193 38.3547 52.732 37.3828 53.9956 37.3828C55.2592 37.4175 56.1016 38.3894 56.1016 39.7431ZM52.4512 39.8125C52.4512 40.8191 52.9777 41.6869 53.9605 41.6869C54.9082 41.6869 55.4698 40.8191 55.4698 39.7778C55.4698 38.8406 54.9784 37.9035 53.9956 37.9035C53.0128 37.9035 52.4512 38.8059 52.4512 39.8125Z" fill="white"/>
<path d="M61.0156 37.4863H61.6123V41.6169H63.6131V42.1028H61.0156V37.4863Z" fill="white"/>
<path d="M68.457 37.5573C68.808 37.4878 69.2644 37.4531 69.7558 37.4531C70.6333 37.4531 71.23 37.6614 71.6512 38.0432C72.0724 38.425 72.3181 38.9457 72.3181 39.7093C72.3181 40.4729 72.0724 41.063 71.6512 41.5142C71.1949 41.9308 70.4929 42.1737 69.5803 42.1737C69.159 42.1737 68.7729 42.139 68.4921 42.1043V37.5573H68.457ZM69.0537 41.6531C69.1941 41.6878 69.4399 41.6878 69.6505 41.6878C70.9492 41.6878 71.6512 40.9589 71.6512 39.744C71.6512 38.668 71.0194 37.9738 69.7558 37.9738C69.4399 37.9738 69.1941 38.0085 69.0537 38.0432V41.6531Z" fill="white"/>
<path d="M77.8291 37.4863V42.1028H77.2324V37.4863H77.8291Z" fill="white"/>
<path d="M83.0244 42.1028V37.4863H83.6913L85.1656 39.8119C85.5166 40.3673 85.7974 40.8532 86.008 41.3045H86.0431C85.9729 40.6797 85.9729 40.1243 85.9729 39.3954V37.4863H86.5345V42.1028H85.9378L84.4635 39.7772C84.1476 39.2566 83.8317 38.7359 83.586 38.25H83.5509C83.586 38.84 83.586 39.3954 83.586 40.159V42.1375H83.0244V42.1028Z" fill="white"/>
<path d="M95.3093 41.8952C95.0285 41.9993 94.502 42.1381 93.8702 42.1381C93.1682 42.1381 92.5715 41.9646 92.1152 41.5133C91.729 41.1315 91.4482 40.5067 91.4482 39.7778C91.4482 38.3894 92.396 37.3828 93.9755 37.3828C94.502 37.3828 94.9583 37.4869 95.1338 37.5911L94.9934 38.077C94.7477 37.9729 94.4318 37.8688 93.9755 37.8688C92.8523 37.8688 92.1152 38.563 92.1152 39.7084C92.1152 40.8886 92.8172 41.5828 93.9053 41.5828C94.2914 41.5828 94.5722 41.5133 94.7126 41.4439V40.0555H93.7649V39.5696H95.3093V41.8952Z" fill="white"/>
<path d="M106.752 40.645L106.261 42.1028H105.629L107.208 37.4863H107.946L109.525 42.1028H108.893L108.402 40.645H106.752ZM108.297 40.1937L107.84 38.8747C107.735 38.5623 107.665 38.2847 107.595 38.0417C107.524 38.3194 107.454 38.5971 107.349 38.8747L106.893 40.1937H108.297Z" fill="white"/>
<path d="M117.844 41.8952C117.564 41.9993 117.037 42.1381 116.405 42.1381C115.703 42.1381 115.107 41.9646 114.65 41.5133C114.264 41.1315 113.983 40.5067 113.983 39.7778C113.983 38.3894 114.931 37.3828 116.511 37.3828C117.037 37.3828 117.493 37.4869 117.669 37.5911L117.529 38.077C117.283 37.9729 116.967 37.8688 116.511 37.8688C115.387 37.8688 114.65 38.563 114.65 39.7084C114.65 40.8886 115.352 41.5828 116.44 41.5828C116.827 41.5828 117.107 41.5133 117.248 41.4439V40.0555H116.3V39.5696H117.844V41.8952Z" fill="white"/>
</svg>
