<svg width="217" height="130" viewBox="0 0 217 130" fill="none" xmlns="http://www.w3.org/2000/svg">
<path d="M202.94 16.8212C193.47 5.81634 179.893 0 163.677 0C134.275 0 110.355 23.9205 110.355 53.3226C110.355 81.9175 132.979 105.327 161.267 106.592C160.473 116.614 154.795 126.216 154.734 126.319C154.305 127.035 154.293 127.927 154.705 128.653C155.116 129.38 155.887 129.829 156.722 129.829C167.746 129.829 182.852 121.44 195.206 108.457C209.056 93.9016 217 76.3409 217 60.2778C217 42.5371 212.138 27.5103 202.94 16.8212ZM191.847 105.261C182 115.61 170.064 123.01 160.764 124.784C162.921 120.237 165.996 112.351 165.996 104.327C165.996 103.046 164.958 102.009 163.677 102.009C136.832 102.009 114.991 80.1681 114.991 53.3226C114.991 26.4772 136.832 4.63675 163.677 4.63675C193.708 4.63675 212.363 25.957 212.363 60.2778C212.363 75.1631 204.885 91.5587 191.847 105.261ZM53.3226 0C23.9205 0 0 23.9205 0 53.3226C0 81.9175 22.6241 105.327 50.9125 106.592C50.1182 116.614 44.4405 126.216 44.3788 126.319C43.9499 127.035 43.9388 127.927 44.3501 128.653C44.7618 129.38 45.5324 129.829 46.3675 129.829C57.3914 129.829 72.4975 121.44 84.8512 108.457C98.7016 93.9016 106.645 76.3409 106.645 60.2778C106.645 42.5371 101.783 27.5103 92.5853 16.8212C83.1156 5.81634 69.5388 0 53.3226 0ZM81.4923 105.261C71.6452 115.61 59.7088 123.01 50.4084 124.784C52.5659 120.237 55.641 112.351 55.641 104.327C55.641 103.046 54.6029 102.009 53.3226 102.009C26.4772 102.009 4.63675 80.1681 4.63675 53.3226C4.63675 26.4772 26.4772 4.63675 53.3226 4.63675C83.353 4.63675 102.009 25.957 102.009 60.2778C102.009 75.1631 94.5309 91.5587 81.4923 105.261Z" fill="url(#paint0_linear_324_417)"/>
<defs>
<linearGradient id="paint0_linear_324_417" x1="108.5" y1="0" x2="108.5" y2="129.829" gradientUnits="userSpaceOnUse">
<stop stop-color="#EBD406"/>
<stop offset="0.345" stop-color="#706C0E"/>
<stop offset="1" stop-color="#0C1715"/>
</linearGradient>
</defs>
</svg>
