<svg width="148" height="88" viewBox="0 0 148 88" fill="none" xmlns="http://www.w3.org/2000/svg">
<path d="M138.411 11.4017C131.952 3.9424 122.692 0 111.632 0C91.5794 0 75.265 16.2137 75.265 36.1429C75.265 55.5249 90.6952 71.3922 109.989 72.2493C109.447 79.0429 105.575 85.5511 105.533 85.6212C105.24 86.1064 105.232 86.7108 105.513 87.203C105.793 87.6955 106.319 88 106.889 88C114.407 88 124.71 82.3136 133.136 73.5136C142.582 63.6479 148 51.7449 148 40.8571C148 28.8323 144.684 18.6469 138.411 11.4017ZM130.845 71.3476C124.129 78.3618 115.988 83.3781 109.645 84.5803C111.116 81.4987 113.214 76.153 113.214 70.7143C113.214 69.8462 112.506 69.1429 111.632 69.1429C93.3232 69.1429 78.4274 54.3391 78.4274 36.1429C78.4274 17.9467 93.3232 3.14286 111.632 3.14286C132.114 3.14286 144.838 17.594 144.838 40.8571C144.838 50.9467 139.737 62.0598 130.845 71.3476ZM36.3675 0C16.3145 0 0 16.2137 0 36.1429C0 55.5249 15.4303 71.3922 34.7237 72.2493C34.182 79.0429 30.3096 85.5511 30.2676 85.6212C29.9751 86.1064 29.9675 86.7108 30.248 87.203C30.5288 87.6955 31.0544 88 31.6239 88C39.1425 88 49.4453 82.3136 57.8708 73.5136C67.3172 63.6479 72.735 51.7449 72.735 40.8571C72.735 28.8323 69.419 18.6469 63.1457 11.4017C56.6872 3.9424 47.4274 0 36.3675 0ZM55.58 71.3476C48.864 78.3618 40.7231 83.3781 34.38 84.5803C35.8514 81.4987 37.9487 76.153 37.9487 70.7143C37.9487 69.8462 37.2407 69.1429 36.3675 69.1429C18.0582 69.1429 3.16239 54.3391 3.16239 36.1429C3.16239 17.9467 18.0582 3.14286 36.3675 3.14286C56.8491 3.14286 69.5727 17.594 69.5727 40.8571C69.5727 50.9467 64.4727 62.0598 55.58 71.3476Z" fill="url(#paint0_linear_433_270)"/>
<defs>
<linearGradient id="paint0_linear_433_270" x1="74" y1="0" x2="74" y2="88" gradientUnits="userSpaceOnUse">
<stop stop-color="#255025"/>
<stop offset="0.257434" stop-color="#427F42" stop-opacity="0.6"/>
<stop offset="0.633814" stop-color="#B0CBAF" stop-opacity="0.5"/>
<stop offset="0.969314" stop-color="#E7F2E9" stop-opacity="0.7"/>
</linearGradient>
</defs>
</svg>
