<svg width="48" height="48" viewBox="0 0 48 48" fill="none" xmlns="http://www.w3.org/2000/svg">
<g clip-path="url(#clip0_213_1927)">
<path d="M47.7863 7.49519C46.7067 4.41053 44.5262 2.13691 41.4803 0.9205C38.9032 -0.108782 35.8554 -0.283813 33.1184 0.4405C31.2055 0.946656 29.6284 1.83719 28.5574 3.01553C27.3478 4.34659 26.8735 5.95366 27.1857 7.66187C27.2145 7.82097 27.248 7.97678 27.2848 8.12988C26.8347 8.5885 26.4456 9.06409 26.0795 9.54344C25.7133 9.064 25.324 8.58831 24.8738 8.12969C24.9107 7.97697 24.9442 7.82144 24.973 7.66272C25.2848 5.953 24.8098 4.34566 23.5991 3.0145C22.5273 1.83587 20.9492 0.945625 19.0355 0.439656C16.2985 -0.283625 13.2515 -0.108125 10.6752 0.92125C7.63069 2.13784 5.45128 4.41119 4.37269 7.49537C4.28044 7.75909 4.35319 8.05244 4.55794 8.24266C4.76269 8.43278 5.06063 8.4835 5.31684 8.37231C9.27009 6.65322 11.4382 8.25259 13.535 9.79928C13.6266 9.86687 13.7177 9.93409 13.8084 10.0007C16.4222 11.9162 18.4376 12.5004 19.9238 12.5004C20.6498 12.5004 21.2498 12.3609 21.7312 12.1691C22.849 11.7236 23.7496 10.8324 24.3412 9.62547C24.7058 10.0494 25.0389 10.4935 25.3764 10.9512V14.7899C22.6717 14.9271 20.1183 15.8559 17.9536 17.4982C17.6442 17.7329 17.5837 18.174 17.8184 18.4833C18.0532 18.7927 18.4942 18.8533 18.8035 18.6184C20.908 17.0219 23.4235 16.1778 26.0782 16.1777C26.0786 16.1777 26.0791 16.1777 26.0796 16.1777C26.08 16.1777 26.0805 16.1777 26.081 16.1777C32.7151 16.1786 38.1121 21.5601 38.1121 28.1749C38.1121 30.818 37.269 33.315 35.6759 35.4108L27.9308 38.4331C27.9765 37.7416 27.886 36.9963 27.6588 36.2613C27.5334 35.856 27.3694 35.4692 27.1728 35.1051C28.9392 34.618 29.9602 33.0914 30.1826 31.6766C30.4785 29.7957 29.4777 28.1598 27.633 27.509C27.3186 27.3982 27.037 27.2957 26.7824 27.1992V22.5486C27.6074 22.7037 28.1124 23.1304 28.1394 23.1538C28.4213 23.412 28.8592 23.398 29.1237 23.1198C29.3914 22.8385 29.3802 22.3935 29.0989 22.1257C29.089 22.1163 28.223 21.3114 26.7824 21.1247V20.0008C26.7824 19.6124 26.4676 19.2977 26.0793 19.2977C25.691 19.2977 25.3762 19.6124 25.3762 20.0008V21.156C25.1662 21.1917 24.9553 21.2407 24.7447 21.3036C23.5243 21.6699 22.612 22.7141 22.3638 24.0287C22.1388 25.2204 22.5169 26.3667 23.3517 27.0212C23.8494 27.4096 24.5001 27.7725 25.3762 28.1491V33.0617C25.3244 33.0254 25.2727 32.9889 25.2199 32.9542L23.0926 31.5591C21.2872 30.3754 17.8129 28.5692 14.0858 29.1325C14.0605 28.8142 14.0464 28.4942 14.0464 28.1749C14.0464 25.4528 14.9859 22.7874 16.6921 20.6697C16.9357 20.3673 16.888 19.9247 16.5857 19.681C16.2832 19.4373 15.8406 19.4849 15.597 19.7875C13.6902 22.1542 12.6401 25.1329 12.6401 28.1749C12.6401 28.6012 12.6622 29.0287 12.7026 29.4527C12.5358 29.5055 12.3702 29.5627 12.2073 29.6254L10.1472 30.4195V30.0533C10.1472 29.0073 9.29362 28.1564 8.24447 28.1564H0.878906C0.490594 28.1564 0.175781 28.4711 0.175781 28.8595C0.175781 29.2479 0.490594 29.5626 0.878906 29.5626H8.24438C8.51813 29.5626 8.74088 29.7827 8.74088 30.0533V43.7964C8.74088 44.067 8.51813 44.2871 8.24438 44.2871H0.878906C0.490594 44.2871 0.175781 44.6018 0.175781 44.9902C0.175781 45.3786 0.490594 45.6933 0.878906 45.6933H8.24438C9.29353 45.6933 10.1471 44.8424 10.1471 43.7964V43.4C12.474 43.45 13.1045 43.8313 16.574 45.934L16.6877 46.0028C18.8844 47.3331 20.3899 47.909 21.8838 47.9903C22.0016 47.9967 22.1188 47.9999 22.2358 47.9999C23.7435 47.9999 25.1902 47.4772 26.8678 46.6969L33.9731 43.3913C34.3252 43.2275 34.4779 42.8093 34.3141 42.4572C34.1502 42.1052 33.732 41.9523 33.38 42.1163L26.2747 45.4218C22.8426 47.0177 21.2634 47.1299 17.4162 44.8L17.3028 44.7313C13.752 42.5793 12.8953 42.0601 10.1471 41.9945V31.9264L12.7125 30.9377C13.0121 30.8223 13.3217 30.7262 13.6346 30.6518C17.1376 29.8058 20.5808 31.5941 22.3213 32.735L24.4491 34.1304C26.4134 35.4159 26.8612 38.0021 26.3175 39.2906C26.0745 39.8507 25.5875 40.2366 24.9702 40.271C24.4779 40.2985 23.9872 40.1369 23.5492 39.9249C23.3689 39.8377 23.1938 39.7393 23.0257 39.6303L17.2057 35.8497C16.8802 35.638 16.4446 35.7307 16.233 36.0562C16.0215 36.3819 16.1139 36.8174 16.4396 37.0289L22.2601 40.8098C23.54 41.64 25.3087 42.0977 26.6353 41.1048C26.9853 40.8429 27.2689 40.5043 27.4757 40.12L38.8315 35.6886C40.4204 35.0689 41.3196 35.6344 41.607 36.307C41.9581 37.1286 41.5609 38.3107 40.1226 38.9805L36.2048 40.8031C35.8527 40.9668 35.7 41.3851 35.8638 41.7371C36.0276 42.0892 36.4459 42.2419 36.7979 42.0781L40.7159 40.2555C42.965 39.2083 43.5172 37.1986 42.9001 35.7545C42.3236 34.4055 40.6842 33.4566 38.3203 34.3787L37.9138 34.5374C38.9685 32.5968 39.5182 30.4333 39.5182 28.1749C39.5182 21.0196 33.8672 15.1559 26.7825 14.7897V10.9512C27.1199 10.4937 27.4528 10.0499 27.8172 9.62622C28.408 10.8321 29.3078 11.7227 30.4252 12.1684C30.9072 12.3607 31.5074 12.5005 32.2346 12.5004C33.7212 12.5004 35.7372 11.9159 38.3507 10.0005C38.442 9.93353 38.5338 9.86584 38.626 9.79778C40.7212 8.25212 42.8878 6.65369 46.8422 8.37241C47.0984 8.48378 47.3963 8.43287 47.6011 8.24256C47.8059 8.05225 47.8786 7.75891 47.7863 7.49519ZM21.2105 10.8627C19.5802 11.5127 17.3081 10.8219 14.6398 8.86647C14.5503 8.80075 14.4602 8.73438 14.3697 8.66753C12.8405 7.53953 11.0503 6.21887 8.51109 6.21887C7.84013 6.21887 7.11666 6.31112 6.33216 6.52347C8.78934 1.97219 14.3038 0.64375 18.6761 1.79912C21.1851 2.46231 23.9151 4.2265 23.6378 7.05466C22.2253 6.01675 20.2551 5.14741 17.156 4.64556C16.7728 4.58275 16.4116 4.84384 16.3495 5.22719C16.2875 5.61053 16.5479 5.97156 16.9312 6.03372C20.155 6.55572 21.9795 7.44691 23.2746 8.55269C22.8449 9.68003 22.1247 10.4983 21.2105 10.8627ZM25.3761 26.6049C24.8922 26.3708 24.5142 26.1445 24.218 25.9134C23.7994 25.5853 23.6183 24.963 23.7455 24.2896C23.8633 23.6655 24.2938 22.9072 25.1479 22.6508C25.2241 22.628 25.3002 22.6081 25.3761 22.5902V26.6049ZM26.7823 33.7503V28.6984C26.904 28.7424 27.0312 28.7879 27.1652 28.835C28.9592 29.468 28.865 31.0027 28.7933 31.4581C28.6447 32.4034 27.9625 33.4235 26.7823 33.7503ZM37.7913 8.66613C37.7001 8.73344 37.6095 8.80028 37.5194 8.86628C34.8503 10.8227 32.5773 11.5127 30.9463 10.8622C30.0323 10.4976 29.3128 9.67994 28.884 8.55316C30.1791 7.44709 32.0036 6.55581 35.2279 6.03372C35.6112 5.97166 35.8717 5.61053 35.8096 5.22719C35.7475 4.84384 35.3862 4.58275 35.0032 4.64556C31.904 5.14741 29.9337 6.01684 28.5211 7.05484C28.2426 4.22772 30.9707 2.46344 33.4782 1.79997C34.4635 1.53925 35.5063 1.40472 36.5596 1.40472C40.1813 1.40472 43.9219 2.99678 45.8268 6.52366C42.0728 5.50787 39.7234 7.24075 37.7913 8.66613Z" fill="#041815"/>
</g>
<defs>
<clipPath id="clip0_213_1927">
<rect width="48" height="48" fill="white"/>
</clipPath>
</defs>
</svg>
