<svg width="96" height="96" viewBox="0 0 96 96" fill="none" xmlns="http://www.w3.org/2000/svg">
<path d="M61.3344 64.1922C84.2984 64.1922 84.2984 54.6162 84.3264 44.4882C84.3264 43.9282 84.2984 43.3362 84.2424 42.7762C83.9344 40.2402 83.3024 37.7562 82.3624 35.3802C81.2424 32.4882 79.7864 29.7402 78.0264 27.1882C77.4584 26.3642 76.8184 25.5082 76.1224 24.6482C74.0304 21.9882 71.4504 19.7522 68.5224 18.0562L78.5224 4.78823C78.9904 4.16423 79.1304 3.35623 78.8944 2.61223C78.6544 1.86823 78.0664 1.28423 77.3224 1.04423C72.2384 -0.675769 66.6504 -0.00376868 62.1224 2.87623C59.7424 4.17623 59.6984 4.11623 59.1464 3.48823C53.9184 -2.51577 45.6424 1.19623 45.2944 1.35623C44.6264 1.65623 44.1344 2.24823 43.9544 2.95623C43.7944 3.66023 43.9584 4.40423 44.3984 4.97623L54.4184 18.2042C51.6024 20.0282 49.1264 22.3282 47.0984 25.0042C46.4584 25.8002 45.8344 26.6282 45.1984 27.5482C43.4584 30.0802 42.0064 32.7962 40.8624 35.6482C39.8544 38.0282 39.2184 40.5522 38.9784 43.1242C38.9264 43.5722 38.8984 44.0242 38.8984 44.4762V45.3642C38.8984 50.6682 38.8984 55.6802 42.5344 59.3442C45.8704 62.6522 51.8424 64.1922 61.3344 64.1922ZM47.0624 3.74423C48.4264 3.24023 49.8624 2.97223 51.3144 2.94423C53.4704 2.84823 55.5584 3.72823 56.9904 5.34423C59.0664 7.78023 61.1224 6.66423 63.4984 5.38023C67.1224 2.95223 71.6504 2.30823 75.8064 3.62423L65.5704 17.2562L57.2464 17.2322L47.0624 3.74423ZM41.7464 44.4762C42.0624 39.8842 43.5424 35.4442 46.0464 31.5802C46.5984 30.5682 47.2144 29.5962 47.8944 28.6682C50.1944 25.1562 53.2544 22.2122 56.8544 20.0522L66.2064 20.0282C69.8904 21.9762 73.0224 24.8242 75.3144 28.3042C75.9664 29.2442 76.6104 30.2122 77.1664 31.1682C77.4784 31.7162 77.7904 32.2922 78.0784 32.8402C79.1144 34.8282 79.9544 36.9162 80.5824 39.0682C81.1224 40.8202 81.4184 42.6402 81.4584 44.4762C81.4584 54.6322 81.4584 61.3442 61.3464 61.3442C52.6624 61.3442 47.3224 60.0602 44.5464 57.3162C41.7464 54.5002 41.7464 50.2762 41.7464 45.3842V44.4762Z" fill="#67EC9C"/>
<path d="M92.0872 69.8841C92.0872 69.8441 90.0872 65.6441 86.2472 66.6841C85.6872 66.8441 84.4472 67.2441 82.7672 67.8441C81.3672 68.2841 79.6472 68.8841 77.8072 69.5241C76.8472 69.8441 75.8072 70.2041 74.7672 70.5641C71.8872 71.5641 68.8872 72.5641 66.4472 73.4041C66.5312 72.9161 66.5712 72.4201 66.5672 71.9241C66.5712 70.3681 65.9352 68.8761 64.8072 67.8041C63.5512 66.7641 61.9592 66.2081 60.3272 66.2441C57.9672 66.3241 55.6472 66.2441 53.2872 66.2441H48.5672C43.7192 63.9641 38.6712 62.1441 33.4872 60.8041C31.1352 60.4241 28.7512 60.2521 26.3672 60.2841C24.5672 60.2841 22.9272 60.3641 21.8072 60.4041V57.3241C21.7992 56.4881 21.4712 55.6841 20.8872 55.0841C20.2992 54.5081 19.5112 54.1801 18.6872 54.1641H6.52719C4.79119 54.1521 3.37919 55.5481 3.36719 57.2841V90.0841C3.37119 90.8721 3.67119 91.6281 4.20719 92.2041C4.24719 92.2441 4.28719 92.2841 4.28719 92.3241C4.87119 92.9081 5.66319 93.2361 6.48719 93.2441H18.6472C19.4352 93.2401 20.1912 92.9401 20.7672 92.4041C20.8072 92.3641 20.8472 92.3641 20.8872 92.3241C21.4752 91.7441 21.8072 90.9521 21.8072 90.1241V87.0441H26.1272L50.3672 95.0841C52.5672 96.2441 55.2072 96.2001 57.3672 94.9641C58.0872 94.6041 58.8072 94.1641 59.5272 93.7641C61.6072 92.6441 63.6472 91.4841 65.6872 90.3641C68.4072 88.8441 71.1672 87.3241 73.8872 85.8041C76.6072 84.2841 79.3272 82.7641 82.0872 81.2441C84.7672 79.7641 87.4472 78.2441 90.1272 76.7641C92.4432 75.3081 93.2872 72.3401 92.0872 69.8841ZM19.0072 90.0841C19.0032 90.1761 18.9592 90.2641 18.8872 90.3241H18.8472C18.7912 90.3761 18.7232 90.4041 18.6472 90.4041H6.48719C6.41119 90.4041 6.34319 90.3761 6.28719 90.3241L6.24719 90.2841C6.19519 90.2121 6.16719 90.1321 6.16719 90.0441V57.2841C6.16319 57.1961 6.19119 57.1121 6.24719 57.0441C6.30719 56.9721 6.39519 56.9281 6.48719 56.9241L6.52719 56.9641H18.6872C18.7632 56.9641 18.8312 56.9961 18.8872 57.0441C18.9592 57.1041 19.0032 57.1921 19.0072 57.2841V90.0841ZM89.0472 74.2041L56.0472 92.5241C55.2192 93.0241 54.2432 93.2201 53.2872 93.0841C52.3792 92.8881 51.4912 92.5921 50.6472 92.2041C50.2072 92.0841 49.7272 91.9241 49.2872 91.7641C47.7672 91.2841 46.2472 90.7641 44.6872 90.2441C42.7672 89.6041 40.7672 88.9641 38.8472 88.3241C36.9272 87.6841 34.9672 87.0441 33.0472 86.4041L28.6072 84.9641C28.0072 84.7641 27.4072 84.5641 26.8472 84.3641C26.6792 84.3161 26.5032 84.2881 26.3272 84.2841H21.8072V63.2041C22.9272 63.1241 24.6072 63.0841 26.3672 63.0841C28.5632 63.0641 30.7552 63.2121 32.9272 63.5241C37.9552 64.8801 42.8552 66.6721 47.5672 68.8841C47.7752 68.9921 48.0112 69.0481 48.2472 69.0441H61.2472C62.7072 69.2441 63.7992 70.4881 63.8072 71.9641C63.8112 72.4121 63.7432 72.8561 63.6072 73.2841C63.4992 73.6321 63.3032 73.9481 63.0472 74.2041C62.7712 74.5241 62.4112 74.7561 62.0072 74.8841C60.9272 74.9641 60.0072 74.9641 59.1272 74.9641H45.4072C44.6712 74.9601 43.9472 75.1241 43.2872 75.4441C41.1552 76.4001 39.7672 78.5081 39.7272 80.8441C39.6912 81.3041 39.9032 81.7481 40.2872 82.0041H40.3272C40.5192 82.1921 40.7792 82.2961 41.0472 82.2841C41.1872 82.2961 41.3232 82.2681 41.4472 82.2041C42.0392 82.0561 42.4632 81.5361 42.4872 80.9241C42.4952 79.4161 43.5392 78.1081 45.0072 77.7641C45.1952 77.7441 45.3832 77.7441 45.5672 77.7641H60.0472C60.7552 77.8121 61.4632 77.7961 62.1672 77.7241C62.7952 77.6121 63.4112 77.4361 64.0072 77.2041C65.3672 76.7641 66.6872 76.2841 68.0072 75.8441C69.6072 75.2841 71.1672 74.7641 72.7672 74.2041C73.7272 73.8841 74.7272 73.5241 75.6872 73.2041C76.9272 72.8041 78.1672 72.3641 79.3272 72.0041C83.0872 70.6841 86.1672 69.6041 86.9672 69.4041C88.5672 68.9641 89.5672 71.0841 89.5672 71.0841C90.0312 72.1361 89.8272 73.3601 89.0472 74.2041Z" fill="#67EC9C"/>
<path d="M51.6394 44.8444H51.6554L60.4994 53.6204C60.9314 54.1004 61.5314 54.4004 62.1754 54.4524C62.8194 54.4004 63.4154 54.1004 63.8434 53.6204L72.6954 44.8444L72.7194 44.8204C75.8674 41.5044 75.8674 36.3004 72.7194 32.9844C69.7234 30.2044 65.0634 30.2924 62.1754 33.1844C59.2874 30.2964 54.6354 30.2084 51.6394 32.9804C48.4874 36.2964 48.4874 41.5044 51.6394 44.8204V44.8444ZM53.6554 34.9524L53.6834 34.9564C55.7154 33.2844 58.7034 33.5084 60.4594 35.4684L60.7914 35.7764C61.3634 36.5404 62.4434 36.6924 63.2034 36.1244C63.3354 36.0244 63.4514 35.9084 63.5514 35.7764C63.6394 35.6924 63.7474 35.5884 63.8874 35.4644C65.6434 33.5044 68.6354 33.2804 70.6634 34.9564C72.7514 37.1644 72.7514 40.6204 70.6634 42.8284L62.1554 51.2644L54.7074 43.8684L53.6554 42.8284C51.5634 40.6204 51.5634 37.1604 53.6554 34.9524Z" fill="#67EC9C"/>
</svg>
