<svg width="48" height="44" viewBox="0 0 48 44" fill="none" xmlns="http://www.w3.org/2000/svg">
<path d="M36.7954 17.4076C37.7465 16.8091 38.4271 15.8888 38.7196 14.7974C39.027 13.6499 38.8692 12.4513 38.2752 11.4225C37.0782 9.34919 34.4526 8.60472 32.3521 9.71162L28.3579 2.79344C27.8296 1.87844 26.9736 1.22312 25.9475 0.948154C24.9213 0.673185 23.8522 0.812686 22.9374 1.34106C22.0224 1.86934 21.367 2.72537 21.0921 3.75137C20.8849 4.52453 20.9133 5.32206 21.1658 6.05969C19.2685 10.8407 15.2532 15.7166 9.80167 19.8762C9.71711 19.8196 9.62364 19.7758 9.52333 19.7489C9.28324 19.6845 9.0273 19.7182 8.81195 19.8425L3.71514 22.7853C2.00046 23.7753 0.772143 25.3802 0.256518 27.3046C-0.259107 29.2289 0.00208056 31.2331 0.992174 32.9478C2.36861 35.3318 4.87417 36.6661 7.44733 36.6661C8.70855 36.6661 9.98608 36.3454 11.1546 35.6708L11.4463 35.5024L17.0672 42.8411C17.4555 43.3481 17.9969 43.6465 18.6333 43.7042C18.7056 43.7107 18.7771 43.7139 18.848 43.7139C19.4009 43.7139 19.9091 43.5163 20.3285 43.1358L21.8765 41.7312C22.7379 40.9494 22.8562 39.6618 22.1516 38.7362L16.8665 31.7923C23.144 29.1964 29.317 28.1792 34.3663 28.9214C35.1312 29.7967 36.233 30.2772 37.3598 30.2771C38.0325 30.2771 38.7139 30.1061 39.3372 29.7463C41.2321 28.6523 41.8837 26.2207 40.7896 24.3257L36.7954 17.4076ZM36.6514 12.36C36.995 12.9551 37.0863 13.6484 36.9084 14.3121C36.7456 14.9197 36.3746 15.4353 35.8567 15.7819L33.2905 11.3372C34.4938 10.7459 35.9712 11.1819 36.6514 12.36ZM7.44424 34.7914C5.51983 34.7913 3.64539 33.7933 2.61583 32.0103C1.87624 30.7292 1.68152 29.2305 2.06758 27.7899C2.45355 26.3493 3.37155 25.1487 4.65255 24.4091L8.93749 21.9351L14.5019 31.5731L10.217 34.0471C9.34295 34.5517 8.38783 34.7915 7.44424 34.7914ZM20.6164 40.3427L19.0685 41.7472C18.9866 41.8215 18.9115 41.8467 18.802 41.8367C18.6919 41.8267 18.6229 41.7887 18.5557 41.701L13.0839 34.557L15.5365 33.1409L20.6596 39.8718C20.7704 40.0173 20.7518 40.2197 20.6164 40.3427ZM15.8623 30.1791L10.825 21.4541C16.0722 17.473 20.0786 12.8238 22.294 8.16269L33.1076 26.8926C27.9633 26.4805 21.9336 27.6255 15.8623 30.1791ZM38.3996 28.1223C37.3999 28.6997 36.1175 28.3557 35.5404 27.3563L23.1086 5.8239C22.5316 4.82434 22.8753 3.54175 23.8748 2.96472C24.1942 2.78031 24.55 2.68609 24.9117 2.68609C25.0949 2.68609 25.2798 2.71028 25.4621 2.75912C26.0045 2.90444 26.4563 3.24953 26.734 3.73084L39.1657 25.2632C39.7428 26.2627 39.3991 27.5453 38.3996 28.1223ZM39.4192 10.762C39.1602 10.3136 39.3139 9.74022 39.7623 9.48137L43.5258 7.30853C43.9742 7.04959 44.5476 7.20334 44.8064 7.65166C45.0654 8.10006 44.9117 8.67344 44.4633 8.93228L40.6998 11.1051C40.5522 11.1903 40.391 11.2309 40.232 11.2309C39.9079 11.2309 39.5928 11.0627 39.4192 10.762ZM35.0804 4.72403L37.3724 0.754092C37.6313 0.305779 38.2045 0.151935 38.653 0.410967C39.1015 0.669811 39.2551 1.24319 38.9962 1.69159L36.7042 5.66153C36.5305 5.96228 36.2154 6.13047 35.8914 6.13047C35.7324 6.13047 35.5712 6.08997 35.4235 6.00465C34.975 5.74581 34.8215 5.17244 35.0804 4.72403ZM48.0004 16.6011C48.0004 17.1189 47.5806 17.5386 47.0629 17.5386H42.4789C41.9612 17.5386 41.5414 17.1189 41.5414 16.6011C41.5414 16.0833 41.9612 15.6636 42.4789 15.6636H47.0629C47.5806 15.6636 48.0004 16.0833 48.0004 16.6011Z" fill="#041815"/>
</svg>
