<svg width="96" height="96" viewBox="0 0 96 96" fill="none" xmlns="http://www.w3.org/2000/svg">
<path d="M5.0442 68.9802H6.59052C11.2647 68.9802 15.7512 70.8163 19.2235 74.1507C24.2583 78.9844 30.1416 83.3749 36.7105 87.2007C42.4156 90.5235 49.1675 91.9335 55.7354 91.1952L85.9475 87.7898C89.4083 87.3994 92.0183 84.4787 92.0183 80.9961C92.0183 77.0976 88.7915 74.0854 85.0898 74.1602L64.0583 74.4349C65.3495 71.6353 64.7005 68.2313 62.3412 66.117L45.8855 51.3722C40.8246 46.8373 34.2946 44.3398 27.4996 44.3398H5.0442C2.88439 44.3398 1.12695 46.0973 1.12695 48.2571V65.0629C1.12695 67.2227 2.88439 68.9802 5.0442 68.9802ZM3.55564 48.2571C3.55564 47.4364 4.22352 46.7685 5.0442 46.7685H27.4996C33.6955 46.7685 39.6496 49.0459 44.2651 53.1814L60.7208 67.9257C62.663 69.6666 62.8293 72.7032 61.0353 74.6391C60.935 74.6997 58.5059 77.4372 55.2006 75.5113L41.4179 67.4824C40.8372 67.1451 40.0945 67.3407 39.7572 67.9202C39.4195 68.5 39.6158 69.2432 40.195 69.5809L53.9778 77.6098C56.6331 79.1582 59.9346 78.79 62.1893 76.888L85.1215 76.5887C87.5924 76.5492 89.5895 78.5498 89.5895 80.9959C89.5895 83.2414 87.9065 85.1247 85.675 85.3761L55.4631 88.7817C49.4065 89.4662 43.1793 88.1575 37.9324 85.1022C31.5306 81.3733 25.8018 77.0989 20.9056 72.3985C16.979 68.6282 11.8947 66.5517 6.59052 66.5517H5.0442C4.22352 66.5517 3.55564 65.8838 3.55564 65.0631V48.2571Z" fill="#67EC9C"/>
<path d="M44.6103 25.6777C46.2332 25.6777 47.7847 26.0373 49.221 26.7468C49.8225 27.0429 50.5502 26.7967 50.8475 26.1962C51.1445 25.5947 50.8978 24.8666 50.2968 24.5696C48.5227 23.6934 46.6097 23.249 44.6103 23.249C37.5125 23.249 31.7383 29.0233 31.7383 36.1211C31.7383 37.206 32.2022 38.2267 33.0798 39.0735C35.8147 41.711 42.0144 42.284 45.8295 42.1434C46.4998 42.1192 47.0235 41.5567 46.9993 40.8864C46.9751 40.2161 46.4163 39.6948 45.7423 39.7166C40.9215 39.893 36.4065 38.9073 34.7657 37.3254C34.3629 36.9363 34.167 36.5428 34.167 36.1211C34.167 30.3624 38.8518 25.6777 44.6103 25.6777Z" fill="#67EC9C"/>
<path d="M51.2633 13.5936C51.2633 9.92344 48.2772 6.9375 44.6072 6.9375C40.9373 6.9375 37.9512 9.92363 37.9512 13.5936C37.9512 17.2635 40.9373 20.2496 44.6072 20.2496C48.2772 20.2496 51.2633 17.2637 51.2633 13.5936ZM40.3797 13.5936C40.3797 11.2626 42.276 9.36619 44.607 9.36619C46.938 9.36619 48.8344 11.2626 48.8344 13.5936C48.8344 15.9246 46.9382 17.8209 44.6072 17.8209C42.2762 17.8209 40.3797 15.9246 40.3797 13.5936Z" fill="#67EC9C"/>
<path d="M82.0019 23.249C79.9964 23.249 78.0794 23.6936 76.3054 24.5696C75.7045 24.8666 75.4577 25.5947 75.7547 26.1962C76.0521 26.7971 76.7798 27.0442 77.3813 26.7468C78.8176 26.0371 80.3725 25.6777 82.0021 25.6777C87.7607 25.6777 92.4454 30.3624 92.4454 36.1211C92.4454 36.5452 92.2491 36.9408 91.8454 37.3303C90.208 38.9094 85.6917 39.8885 80.8604 39.7168C80.2043 39.6849 79.627 40.2153 79.6034 40.8866C79.5792 41.5569 80.1029 42.1194 80.7732 42.1436C84.5956 42.2838 90.8039 41.7101 93.5318 39.0783C94.4099 38.2312 94.8743 37.2084 94.8743 36.1213C94.8739 29.0233 89.0997 23.249 82.0019 23.249Z" fill="#67EC9C"/>
<path d="M82.0018 6.9375C78.3316 6.9375 75.3457 9.92363 75.3457 13.5936C75.3457 17.2635 78.3318 20.2496 82.0018 20.2496C85.6717 20.2496 88.6578 17.2635 88.6578 13.5936C88.6578 9.92363 85.6719 6.9375 82.0018 6.9375ZM82.0018 17.8209C79.6708 17.8209 77.7744 15.9246 77.7744 13.5936C77.7744 11.2626 79.6708 9.36619 82.0018 9.36619C84.3328 9.36619 86.2291 11.2626 86.2291 13.5936C86.2291 15.9246 84.3328 17.8209 82.0018 17.8209Z" fill="#67EC9C"/>
<path d="M70.7307 12.0411C70.7307 7.94595 67.3988 4.61426 63.3038 4.61426C59.2086 4.61426 55.877 7.94613 55.877 12.0411C55.877 16.1361 59.2088 19.468 63.3038 19.468C67.3988 19.468 70.7307 16.1363 70.7307 12.0411ZM58.3055 12.0411C58.3055 9.28507 60.5478 7.04294 63.3036 7.04294C66.0595 7.04294 68.3018 9.28526 68.3018 12.0411C68.3018 14.797 66.0595 17.0393 63.3036 17.0393C60.5478 17.0393 58.3055 14.7972 58.3055 12.0411Z" fill="#67EC9C"/>
<path d="M63.3036 44.4839C70.5332 44.4839 77.8283 42.4043 77.8283 37.7581C77.8283 29.749 71.3125 23.2334 63.3036 23.2334C55.2951 23.2334 48.7793 29.7492 48.7793 37.7581C48.7795 43.1163 57.8976 44.4839 63.3036 44.4839ZM63.3036 25.6619C69.9735 25.6619 75.3996 31.088 75.3996 37.7579C75.3996 40.1677 70.0864 42.055 63.3036 42.055C56.5214 42.055 51.208 40.1677 51.208 37.7579C51.2082 31.0881 56.6342 25.6619 63.3036 25.6619Z" fill="#67EC9C"/>
</svg>
