<svg width="48" height="48" viewBox="0 0 48 48" fill="none" xmlns="http://www.w3.org/2000/svg">
<path d="M47.0312 22.1804C46.8906 22.0397 46.6998 21.9607 46.5009 21.9607H37.2636C33.7582 21.9607 33.2895 21.6125 31.037 19.9393C30.557 19.5827 30.013 19.1786 29.349 18.7088C27.807 17.6176 26.1411 16.8109 24.3858 16.3011L27.4884 10.9274C28.0201 10.0063 28.1609 8.93104 27.8846 7.89979C27.6082 6.86854 26.9488 6.00773 26.0277 5.47598L24.905 4.82779C22.9991 3.72754 20.5538 4.38295 19.4536 6.28851L13.1545 17.1989C12.3654 17.569 11.5953 18.0051 10.8626 18.4989L6.99145 21.108C5.51302 22.1045 4.50173 23.3338 3.80911 24.9766L0.98086 31.6847C0.636891 32.5006 0.682266 33.4967 1.10555 34.4175C1.48477 35.2425 2.13089 35.9206 2.89027 36.3122V42.9558C2.89027 43.2238 3.03324 43.4714 3.26527 43.6053C3.38133 43.6723 3.5108 43.7058 3.64027 43.7058C3.76974 43.7058 3.8992 43.6724 4.01527 43.6053L10.751 39.7165C10.865 39.6507 10.9597 39.556 11.0255 39.442L11.84 38.0311C12.072 39.5169 13.3602 40.6573 14.9099 40.6573C15.8521 40.6573 16.6978 40.2358 17.268 39.5714C17.3194 39.6311 17.3732 39.689 17.4294 39.7453C18.0176 40.3334 18.7972 40.6573 19.6246 40.6573C20.5887 40.6573 21.4932 40.1946 22.075 39.4516C23.7024 40.3919 25.5369 41.0167 28.0514 41.0167H28.0741L46.5009 41.0029C46.9151 41.0029 47.2509 40.6671 47.2509 40.2529V22.7107C47.2509 22.5119 47.1719 22.321 47.0312 22.1804ZM20.7527 7.03851C21.4395 5.8492 22.9656 5.44017 24.1551 6.12679L25.2778 6.77498C25.8519 7.10648 26.2632 7.64376 26.4358 8.28801C26.6084 8.93226 26.5209 9.60323 26.1895 10.1774L16.6965 26.6196C16.6504 26.5958 16.6045 26.5721 16.5584 26.5483C14.8635 25.6723 13.1111 24.7679 10.8911 24.1196L20.7527 7.03851ZM2.36311 32.2675L5.19136 25.5593C5.76567 24.1972 6.60408 23.1779 7.82986 22.3518L11.6762 19.7594L9.25664 23.9503C8.71992 24.0085 8.19539 24.1778 7.71239 24.4567C6.8017 24.9824 6.15108 25.8283 5.88042 26.8382C5.63911 27.7388 5.73324 28.6514 6.08489 29.4437L3.08611 34.6378C2.83345 34.4087 2.61942 34.1194 2.46848 33.7911C2.22061 33.2519 2.18217 32.6965 2.36311 32.2675ZM4.39027 36.4771L8.87602 39.067L4.39027 41.6567V36.4771ZM10.1014 38.0425L4.66477 34.9036L7.04892 30.7742C7.49367 31.1756 8.03592 31.4814 8.6527 31.6475C10.278 32.106 11.664 32.6457 12.8797 33.2304L10.1014 38.0425ZM14.9099 39.1573C14.0235 39.1573 13.3025 38.4362 13.3025 37.5499V35.4979L14.2113 33.9238C15.0568 34.399 15.8155 34.893 16.5173 35.3898V37.4195C16.5173 37.4414 16.5187 37.4629 16.5206 37.4843C16.5187 37.5059 16.5173 37.5278 16.5173 37.55C16.5173 38.4362 15.7963 39.1573 14.9099 39.1573ZM19.6246 39.1573C19.1979 39.1573 18.795 38.9894 18.4901 38.6846C18.1852 38.3797 18.0173 37.9768 18.0173 37.5499C18.0173 37.5281 18.0159 37.5065 18.014 37.4851C18.0159 37.4635 18.0173 37.4416 18.0173 37.4194V36.5071C18.2746 36.7064 18.5267 36.9044 18.7752 37.0994C19.4625 37.6392 20.1258 38.1596 20.8046 38.6356C20.5043 38.9599 20.077 39.1573 19.6246 39.1573ZM28.0719 39.5167C28.065 39.5167 28.0587 39.5167 28.0518 39.5167C24.2831 39.5167 22.2604 37.9288 19.7017 35.9195C17.1726 33.9336 14.306 31.6827 9.05536 30.2024C9.05227 30.2016 9.04908 30.2007 9.04599 30.1998C8.4263 30.0338 7.90514 29.6308 7.57842 29.0649C7.2518 28.499 7.1633 27.8461 7.32933 27.2264C7.4962 26.6035 7.89858 26.0811 8.4623 25.7557C9.0247 25.431 9.67664 25.3435 10.2982 25.5087C12.4609 26.119 14.1938 27.0146 15.8695 27.8807C18.3571 29.1665 20.9295 30.496 24.7742 30.7909C25.1871 30.8232 25.5478 30.5135 25.5794 30.1004C25.611 29.6875 25.302 29.327 24.8889 29.2953C22.0585 29.0783 20.0042 28.2664 18.036 27.2992L23.6111 17.6428C25.3368 18.0971 26.9734 18.8654 28.4826 19.9333C29.1324 20.393 29.669 20.7916 30.1425 21.1433C32.3537 22.786 33.1424 23.3699 36.3953 23.4503V39.504L28.0719 39.5167ZM45.7509 39.5029H37.8954V23.4608H45.7509V39.5029Z" fill="#041815"/>
</svg>
