<svg width="72" height="72" viewBox="0 0 72 72" fill="none" xmlns="http://www.w3.org/2000/svg">
<circle cx="30" cy="30" r="30" fill="#D7EABE"/>
<path d="M31.5 36V52.5C31.5 52.725 31.575 52.95 31.65 53.1C31.875 53.55 36.525 63.45 47.4 68.1C47.625 68.175 47.775 68.25 48 68.25C48.225 68.25 48.375 68.175 48.6 68.1C59.475 63.45 64.2 53.55 64.35 53.1C64.425 52.875 64.5 52.725 64.5 52.5V36C64.5 35.325 64.05 34.725 63.375 34.575C57.675 33.15 48.9 27.375 48.825 27.3C48.3 27 47.7 26.925 47.175 27.3C47.1 27.375 38.325 33.15 32.625 34.575C31.95 34.725 31.5 35.325 31.5 36ZM34.5 37.125C39.525 35.55 45.75 31.725 48 30.3C50.25 31.725 56.475 35.55 61.5 37.125V52.125C60.675 53.7 56.475 61.2 48 65.1C39.525 61.2 35.325 53.7 34.5 52.125V37.125Z" fill="#041815"/>
<path d="M45.4502 52.8001C45.7502 53.1001 46.1252 53.2501 46.5002 53.2501C46.8752 53.2501 47.2502 53.1001 47.5502 52.8001L54.9752 45.3751C55.5752 44.7751 55.5752 43.8751 54.9752 43.2751C54.3752 42.6751 53.4752 42.6751 52.8752 43.2751L46.5002 49.6501L43.1252 46.2751C42.5252 45.6751 41.6252 45.6751 41.0252 46.2751C40.4252 46.8751 40.4252 47.7751 41.0252 48.3751L45.4502 52.8001Z" fill="#041815"/>
</svg>
