<svg width="72" height="72" viewBox="0 0 72 72" fill="none" xmlns="http://www.w3.org/2000/svg">
<circle cx="30" cy="30" r="30" fill="#DBBEEA"/>
<path d="M27.0002 48C27.0456 47.9999 27.0911 47.9969 27.1362 47.991C34.4821 46.9943 41.6467 44.947 48.4102 41.912C55.2404 38.8389 61.5864 34.787 67.2482 29.884L66.0302 34.758C65.966 35.0151 66.0066 35.2872 66.1429 35.5144C66.2792 35.7417 66.5001 35.9055 66.7572 35.97C66.8367 35.9897 66.9183 35.9997 67.0002 36C67.2231 35.9997 67.4395 35.925 67.615 35.7876C67.7906 35.6503 67.9152 35.4583 67.9692 35.242L69.9692 27.242C70.0059 27.0947 70.0086 26.941 69.9771 26.7925C69.9456 26.644 69.8807 26.5046 69.7873 26.3849C69.6939 26.2652 69.5745 26.1683 69.4381 26.1016C69.3018 26.035 69.152 26.0002 69.0002 26H61.0002C60.735 26 60.4806 26.1054 60.2931 26.2929C60.1055 26.4804 60.0002 26.7348 60.0002 27C60.0002 27.2652 60.1055 27.5196 60.2931 27.7071C60.4806 27.8946 60.735 28 61.0002 28H66.3692C60.7461 32.9416 54.4166 37.0158 47.5902 40.088C41.0012 43.0445 34.0215 45.0385 26.8652 46.009C26.6137 46.043 26.3846 46.1712 26.2242 46.3678C26.0638 46.5643 25.9842 46.8145 26.0013 47.0676C26.0185 47.3208 26.1312 47.5579 26.3167 47.731C26.5021 47.9041 26.7465 48.0003 27.0002 48Z" fill="#041815"/>
<path d="M69 68H68V41C68 40.7348 67.8946 40.4804 67.7071 40.2929C67.5196 40.1054 67.2652 40 67 40H57C56.7348 40 56.4804 40.1054 56.2929 40.2929C56.1054 40.4804 56 40.7348 56 41V68H54V47C54 46.7348 53.8946 46.4804 53.7071 46.2929C53.5196 46.1054 53.2652 46 53 46H43C42.7348 46 42.4804 46.1054 42.2929 46.2929C42.1054 46.4804 42 46.7348 42 47V68H40V53C40 52.7348 39.8946 52.4804 39.7071 52.2929C39.5196 52.1054 39.2652 52 39 52H29C28.7348 52 28.4804 52.1054 28.2929 52.2929C28.1054 52.4804 28 52.7348 28 53V68H27C26.7348 68 26.4804 68.1054 26.2929 68.2929C26.1054 68.4804 26 68.7348 26 69C26 69.2652 26.1054 69.5196 26.2929 69.7071C26.4804 69.8946 26.7348 70 27 70H69C69.2652 70 69.5196 69.8946 69.7071 69.7071C69.8946 69.5196 70 69.2652 70 69C70 68.7348 69.8946 68.4804 69.7071 68.2929C69.5196 68.1054 69.2652 68 69 68ZM58 42H66V68H58V42ZM44 48H52V68H44V48ZM30 54H38V68H30V54Z" fill="#041815"/>
</svg>
