<svg width="72" height="72" viewBox="0 0 72 72" fill="none" xmlns="http://www.w3.org/2000/svg">
<circle cx="30" cy="30" r="30" fill="#EAD8BE"/>
<g clip-path="url(#clip0_3047_5)">
<path d="M48.0002 31.0262C48.681 31.0262 49.2348 31.49 49.2348 32.06C49.2348 32.5777 49.6546 32.9975 50.1723 32.9975C50.69 32.9975 51.1098 32.5777 51.1098 32.06C51.1098 30.7616 50.1956 29.6594 48.9377 29.2866V29.1562C48.9377 28.6386 48.5179 28.2188 48.0002 28.2188C47.4825 28.2188 47.0627 28.6386 47.0627 29.1562V29.2866C45.8049 29.6595 44.8906 30.7616 44.8906 32.06C44.8906 33.6638 46.2856 34.9687 48.0002 34.9687C48.681 34.9687 49.2348 35.4323 49.2348 36.0023C49.2348 36.5723 48.681 37.0361 48.0002 37.0361C47.3194 37.0361 46.7656 36.5723 46.7656 36.0023C46.7656 35.4847 46.3458 35.0648 45.8281 35.0648C45.3104 35.0648 44.8906 35.4847 44.8906 36.0023C44.8906 37.3007 45.8049 38.4029 47.0627 38.7758V38.9062C47.0627 39.4239 47.4825 39.8438 48.0002 39.8438C48.5179 39.8438 48.9377 39.4239 48.9377 38.9062V38.7759C50.1956 38.403 51.1098 37.3009 51.1098 36.0025C51.1098 34.3986 49.7148 33.0938 48.0002 33.0938C47.3194 33.0938 46.7656 32.6301 46.7656 32.0601C46.7656 31.4901 47.3194 31.0262 48.0002 31.0262Z" fill="#041815"/>
<path d="M66 49.7091H61.7153C56.1651 49.7091 51.6496 54.2245 51.6496 59.7748V63.6712L48.9375 66.3833V44.0183C54.0308 43.544 58.0312 39.2464 58.0312 34.0312C58.0312 32.9513 57.8604 31.8885 57.5234 30.8721C57.3605 30.3804 56.8295 30.1145 56.3385 30.2771C55.847 30.4401 55.5807 30.9705 55.7436 31.462C56.0175 32.2878 56.1562 33.1523 56.1562 34.0312C56.1562 38.5286 52.4974 42.1875 48 42.1875C43.5026 42.1875 39.8438 38.5286 39.8438 34.0312C39.8438 29.5339 43.5026 25.875 48 25.875C48.8278 25.875 49.6439 25.9983 50.4257 26.2416C50.9198 26.3953 51.4455 26.1192 51.5994 25.6249C51.7533 25.1305 51.4771 24.605 50.9827 24.4511C50.0204 24.1518 49.0169 24 48 24C42.4688 24 37.9688 28.5 37.9688 34.0312C37.9688 39.2464 41.9692 43.544 47.0625 44.0183V58.2994L44.3504 55.5874V51.6911C44.3504 46.1408 39.8349 41.6254 34.2847 41.6254H30C29.4823 41.6254 29.0625 42.0452 29.0625 42.5629V46.8475C29.0625 52.3978 33.578 56.9133 39.1283 56.9133H43.0246L47.0625 60.9511V70.125H37.6724C37.1547 70.125 36.7349 70.5448 36.7349 71.0625C36.7349 71.5802 37.1547 72 37.6724 72H58.3276C58.8453 72 59.2651 71.5802 59.2651 71.0625C59.2651 70.5448 58.8453 70.125 58.3276 70.125H48.9375V69.035L52.9755 64.9971H56.8717C62.422 64.9971 66.9375 60.4816 66.9375 54.9313V50.6466C66.9375 50.1289 66.5177 49.7091 66 49.7091ZM39.1283 55.0382C34.6118 55.0382 30.9375 51.3638 30.9375 46.8474V43.5003H34.2847C38.8011 43.5003 42.4754 47.1746 42.4754 51.691V53.7123L38.3353 49.5722C37.9691 49.2062 37.3757 49.2062 37.0094 49.5722C36.6433 49.9383 36.6433 50.5319 37.0094 50.8981L41.1496 55.0382H39.1283ZM65.0625 54.9313C65.0625 59.4477 61.3882 63.1221 56.8717 63.1221H54.8505L58.9906 58.9821C59.3567 58.616 59.3567 58.0223 58.9906 57.6562C58.6245 57.2902 58.0311 57.2902 57.6647 57.6562L53.5246 61.7962V59.7749C53.5246 55.2585 57.1989 51.5842 61.7153 51.5842H65.0625V54.9313Z" fill="#041815"/>
<path d="M54.4102 28.5188C54.6567 28.5188 54.8986 28.4185 55.073 28.244C55.2473 28.0697 55.3477 27.8279 55.3477 27.5813C55.3477 27.3346 55.2473 27.0929 55.073 26.9185C54.8986 26.7441 54.6567 26.6438 54.4102 26.6438C54.1636 26.6438 53.9217 26.744 53.7473 26.9185C53.5731 27.0929 53.4727 27.3346 53.4727 27.5813C53.4727 27.8279 53.573 28.0697 53.7473 28.244C53.9217 28.4185 54.1636 28.5188 54.4102 28.5188Z" fill="#041815"/>
</g>
<defs>
<clipPath id="clip0_3047_5">
<rect width="48" height="48" fill="white" transform="translate(24 24)"/>
</clipPath>
</defs>
</svg>
