<svg width="72" height="72" viewBox="0 0 72 72" fill="none" xmlns="http://www.w3.org/2000/svg">
<circle cx="30" cy="30" r="30" fill="#BECDEA"/>
<g clip-path="url(#clip0_324_1180)">
<path d="M48.1094 31.2345H53.7022L51.584 33.3564C51.0354 33.9061 51.0362 34.7963 51.5859 35.3453C52.1344 35.8928 53.0251 35.8939 53.5744 35.3434L58.0854 30.8248C58.6406 30.2685 58.6358 29.3541 58.0531 28.8055L53.5744 24.319C53.0258 23.7693 52.1355 23.7686 51.5859 24.3172C51.0362 24.8661 51.0354 25.7564 51.584 26.3061L53.6963 28.422C47.3239 28.422 48.1186 28.4217 48.049 28.4217C33.1827 28.4217 23.7461 44.6013 31.2007 57.6061C31.5867 58.2796 32.4455 58.5132 33.12 58.1269C33.7939 57.7405 34.0268 56.8814 33.6408 56.2076C27.2357 45.0345 35.414 31.1708 48.1094 31.2345Z" fill="#041815"/>
<path d="M64.9356 38.206C64.5496 37.5326 63.6901 37.2993 63.0162 37.6853C62.3424 38.0716 62.1095 38.9311 62.4959 39.605C68.8628 50.7121 60.827 64.578 48.0682 64.578H42.4341L44.5522 62.4562C45.1012 61.9065 45.1005 61.0162 44.5508 60.4673C44.0011 59.9187 43.1105 59.9194 42.5619 60.4691L38.0509 64.9878C37.488 65.5518 37.5063 66.4658 38.085 67.0089L42.5619 71.4935C43.1105 72.0429 44.0007 72.0443 44.5508 71.4954C45.1005 70.9464 45.1012 70.0562 44.5526 69.5065L42.4403 67.3905H48.0858C62.9599 67.3901 72.3887 51.2084 64.9356 38.206Z" fill="#041815"/>
<path d="M46.6621 43.6875H52.2871C53.0635 43.6875 53.6934 43.0576 53.6934 42.2813C53.6934 41.5045 53.0635 40.875 52.2871 40.875H49.4746V39.4688C49.4746 38.692 48.8447 38.0625 48.0684 38.0625C47.2916 38.0625 46.6621 38.692 46.6621 39.4688V40.875C44.3356 40.875 42.4434 42.7676 42.4434 45.0938C42.4434 47.4199 44.3356 49.3125 46.6621 49.3125H49.4742C50.2499 49.3125 50.8809 49.9431 50.8809 50.7188C50.8809 51.4944 50.2535 52.1254 49.4742 52.1254C49.4739 52.1254 43.8492 52.125 43.8496 52.125C43.0729 52.125 42.4434 52.7545 42.4434 53.5309C42.443 54.3076 43.0725 54.9371 43.8492 54.9375H46.6621V56.3438C46.6621 57.1201 47.2916 57.75 48.0684 57.75C48.8447 57.75 49.4746 57.1201 49.4746 56.3438V54.9379C51.8059 54.9379 53.6934 53.0515 53.6934 50.7188C53.6934 48.3926 51.8004 46.5 49.4742 46.5H46.6621C45.8865 46.5 45.2559 45.869 45.2559 45.0938C45.2559 44.3181 45.8865 43.6875 46.6621 43.6875Z" fill="#041815"/>
</g>
<defs>
<clipPath id="clip0_324_1180">
<rect width="48" height="48" fill="white" transform="translate(24 24)"/>
</clipPath>
</defs>
</svg>
