<svg width="62" height="62" viewBox="0 0 62 62" fill="none" xmlns="http://www.w3.org/2000/svg">
<path d="M60 29.9835C60.0052 37.5019 56.9518 44.7287 51.4832 50.1414C46.0147 55.554 38.5578 58.7299 30.6837 59C26.2243 59.0066 21.8626 57.7542 18.1475 55.4004C17.7465 55.2722 17.3153 55.2569 16.9054 55.3565C16.3731 55.2788 15.8301 55.3012 15.3068 55.4223C15.2953 55.4113 15.2838 55.4113 15.2723 55.4004C14.3062 54.8187 7.06048 57.0685 2.24152 58.55C7.20999 54.2371 8.44061 47.7951 7.44002 46.544C3.48364 41.6494 2 36.656 2 29.9835C2.00054 22.52 5.01496 15.3437 10.4168 9.94604C15.8186 4.54835 23.1924 1.34438 31.0057 1C38.8172 1.3467 46.1884 4.55174 51.5879 9.94924C56.9873 15.3467 60 22.5217 60 29.9835Z" fill="#DBDFC3"/>
<path d="M21.3553 38.2958H17.5162C22.2282 37.0689 22.238 34.5277 22.2635 33.4807C20.8606 33.4807 19.5151 32.9234 18.523 31.9313C17.531 30.9393 16.9736 29.5938 16.9736 28.1908C16.9736 26.7878 17.531 25.4423 18.523 24.4503C19.5151 23.4582 20.8606 22.9009 22.2635 22.9009C30.9252 22.9009 29.5055 38.2958 21.3553 38.2958Z" fill="#427F42"/>
<path d="M37.8631 38.2958H34.024C38.736 37.0689 38.7458 34.5277 38.7714 33.4807C37.3684 33.4807 36.0229 32.9234 35.0308 31.9313C34.0388 30.9393 33.4814 29.5938 33.4814 28.1908C33.4814 26.7878 34.0388 25.4423 35.0308 24.4503C36.0229 23.4582 37.3684 22.9009 38.7714 22.9009C47.4331 22.9009 46.0133 38.2958 37.8631 38.2958Z" fill="#427F42"/>
<path d="M0.937724 61.1958C0.44762 61.1958 0.327251 60.9599 0.118749 60.5482C-0.0068871 60.2932 -0.0339179 60.0008 0.0428442 59.7271C0.119606 59.4533 0.294754 59.2176 0.534675 59.0651C5.93862 55.1448 7.14559 48.5173 6.59316 47.479C2.80459 42.5668 1.18059 37.3993 1.18059 30.2252C1.18048 24.2473 2.95304 18.4036 6.2741 13.4331C9.59517 8.46266 14.3156 4.5886 19.8384 2.30089C25.3612 0.0131688 31.4384 -0.585458 37.3015 0.580705C43.1645 1.74687 48.5501 4.62545 52.7771 8.85242C57.0042 13.0794 59.8829 18.4649 61.0491 24.3279C62.2154 30.191 61.6169 36.2682 59.3293 41.791C57.0417 47.3139 53.1677 52.0344 48.1973 55.3555C43.2268 58.6767 37.3832 60.4494 31.4053 60.4494C25.3178 60.4494 21.728 59.5046 17.257 56.7124C15.8953 56.6055 9.2833 58.7286 6.07189 59.7599C4.41218 60.4071 2.69238 60.8881 0.937724 61.1958ZM17.2022 54.5242C17.5893 54.5003 17.975 54.5882 18.3135 54.7773C22.488 57.4046 25.6693 58.2483 31.4053 58.2483C36.9478 58.2482 42.3658 56.6046 46.9742 53.5254C51.5825 50.4461 55.1743 46.0694 57.2953 40.9488C59.4162 35.8282 59.9712 30.1936 58.8898 24.7577C57.8085 19.3217 55.1395 14.3285 51.2203 10.4094C47.3012 6.49027 42.3079 3.82135 36.8719 2.74012C31.4359 1.65888 25.8013 2.21388 20.6808 4.33494C15.5602 6.456 11.1836 10.0479 8.10439 14.6563C5.02519 19.2647 3.3817 24.6827 3.38175 30.2252C3.38175 36.9624 4.82193 41.5791 8.35363 46.1608C8.93045 47.188 9.08758 48.3985 8.79213 49.5389C8.27475 52.5617 6.98488 55.3995 5.04764 57.777C5.16479 57.7394 5.28302 57.7018 5.39909 57.6641C12.4517 55.3996 15.618 54.5242 17.2022 54.5242Z" fill="#427F42"/>
</svg>
