<svg width="440" height="374" viewBox="0 0 440 374" fill="none" xmlns="http://www.w3.org/2000/svg">
<mask id="path-1-inside-1_1007_139" fill="white">
<path fill-rule="evenodd" clip-rule="evenodd" d="M440 16C440 7.16344 432.837 0 424 0H16C7.16344 0 0 7.16345 0 16V358C0 366.837 7.16345 374 16 374H342C350.837 374 358 366.837 358 358V308C358 299.163 365.163 292 374 292H424C432.837 292 440 284.837 440 276V16Z"/>
</mask>
<path fill-rule="evenodd" clip-rule="evenodd" d="M440 16C440 7.16344 432.837 0 424 0H16C7.16344 0 0 7.16345 0 16V358C0 366.837 7.16345 374 16 374H342C350.837 374 358 366.837 358 358V308C358 299.163 365.163 292 374 292H424C432.837 292 440 284.837 440 276V16Z" fill="#F7F7F7"/>
<path d="M16 1H424V-1H16V1ZM1 358V16H-1V358H1ZM342 373H16V375H342V373ZM359 358V308H357V358H359ZM374 293H424V291H374V293ZM439 16V276H441V16H439ZM424 293C433.389 293 441 285.389 441 276H439C439 284.284 432.284 291 424 291V293ZM359 308C359 299.716 365.716 293 374 293V291C364.611 291 357 298.611 357 308H359ZM342 375C351.389 375 359 367.389 359 358H357C357 366.284 350.284 373 342 373V375ZM-1 358C-1 367.389 6.61117 375 16 375V373C7.71573 373 1 366.284 1 358H-1ZM424 1C432.284 1 439 7.71573 439 16H441C441 6.61116 433.389 -1 424 -1V1ZM16 -1C6.61116 -1 -1 6.61116 -1 16H1C1 7.71573 7.71573 1 16 1V-1Z" fill="#E0E3E9" mask="url(#path-1-inside-1_1007_139)"/>
</svg>
